{
.appVersion = "983";
DisplayStrings = (
A,
"ABER HALLO WAS SOLL DAS DEN BITTE SCH\U00D6N DAS VERSTEHE ICH NICHT ABER NAJA \012SO IST DAS HEUTE ALSO IMMER AUF DIE KLEINEN NICHT WA"
);
date = "2014-02-27 21:10:03 +0000";
designer = "Julian Furchert";
designerURL = "work@julianfurchert.de";
familyName = Repro;
fontMaster = (
{
alignmentZones = (
"{700, 16}",
"{0, -16}",
"{-203, -16}"
);
ascender = 700;
capHeight = 700;
custom = "500";
customValue = 500;
descender = -203;
horizontalStems = (
112,
104
);
id = "9540212F-C873-4039-900D-544C1C7D2862";
userData = {
GSOffsetHorizontal = 11;
GSOffsetMakeStroke = 1;
GSOffsetProportional = 1;
GSOffsetVertical = 0;
};
verticalStems = (
120,
112
);
xHeight = 497;
}
);
glyphs = (
{
glyphname = A;
lastChange = "2018-03-01 10:01:57 +0000";
layers = (
{
anchors = (
{
name = ogonek;
position = "{376, 0}";
},
{
name = top;
position = "{206, 702}";
}
);
background = {
paths = (
{
closed = 1;
nodes = (
"374 700 LINE",
"241 700 LINE",
"8 0 LINE",
"125 0 LINE",
"170 133 LINE",
"446 133 LINE",
"489 0 LINE",
"607 0 LINE"
);
},
{
closed = 1;
nodes = (
"308 555 LINE",
"408 246 LINE",
"207 246 LINE"
);
}
);
};
guideLines = (
{
position = "{-8, 680}";
}
);
layerId = "9540212F-C873-4039-900D-544C1C7D2862";
leftMetricsKey = "=I";
paths = (
{
closed = 1;
nodes = (
"398 192 LINE",
"398 702 LINE",
"206 702 LINE",
"206 532 LINE",
"36 532 LINE",
"36 0 LINE",
"58 0 LINE",
"58 170 LINE",
"376 170 LINE",
"376 0 LINE",
"568 0 LINE",
"568 192 LINE"
);
},
{
closed = 1;
nodes = (
"228 680 LINE",
"376 680 LINE",
"376 362 LINE",
"228 362 LINE"
);
},
{
closed = 1;
nodes = (
"58 192 LINE",
"58 510 LINE",
"206 510 LINE",
"206 192 LINE"
);
},
{
closed = 1;
nodes = (
"228 192 LINE",
"228 340 LINE",
"376 340 LINE",
"376 192 LINE"
);
},
{
closed = 1;
nodes = (
"546 22 LINE",
"398 22 LINE",
"398 170 LINE",
"546 170 LINE"
);
}
);
width = 588;
},
{
anchors = (
{
name = ogonek;
position = "{547, 0}";
},
{
name = top;
position = "{307, 680}";
}
);
associatedMasterId = "9540212F-C873-4039-900D-544C1C7D2862";
guideLines = (
{
position = "{-2, 680}";
}
);
layerId = "44F9F7C3-3A0D-4A59-AA93-B67E7E4E1374";
name = Orginal;
paths = (
{
closed = 1;
nodes = (
"492 0 LINE",
"607 0 LINE",
"374 700 LINE",
"241 700 LINE",
"8 0 LINE",
"123 0 LINE",
"167 131 LINE",
"449 131 LINE"
);
},
{
closed = 1;
nodes = (
"203 243 LINE",
"308 562 LINE",
"412 243 LINE"
);
}
);
width = 615;
},
{
anchors = (
{
name = ogonek;
position = "{547, 0}";
},
{
name = top;
position = "{307, 680}";
}
);
associatedMasterId = "9540212F-C873-4039-900D-544C1C7D2862";
guideLines = (
{
position = "{-2, 680}";
}
);
layerId = "7883150F-AFC3-4232-BBDF-C40AE2132BA2";
name = " orginal";
paths = (
{
closed = 1;
nodes = (
"487 0 LINE",
"607 0 LINE",
"374 700 LINE",
"241 700 LINE",
"8 0 LINE",
"128 0 LINE",
"172 131 LINE",
"444 131 LINE"
);
},
{
closed = 1;
nodes = (
"208 243 LINE",
"308 547 LINE",
"407 243 LINE"
);
}
);
width = 615;
}
);
leftKerningGroup = A;
leftMetricsKey = I;
rightKerningGroup = A;
unicode = 0041;
},
{
glyphname = Aacute;
lastChange = "2018-03-01 10:01:57 +0000";
layers = (
{
background = {
paths = (
{
closed = 1;
nodes = (
"469 883 LINE",
"339 883 LINE",
"257 753 LINE",
"356 753 LINE"
);
},
{
closed = 1;
nodes = (
"374 700 LINE",
"241 700 LINE",
"8 0 LINE",
"125 0 LINE",
"170 133 LINE",
"446 133 LINE",
"489 0 LINE",
"607 0 LINE"
);
},
{
closed = 1;
nodes = (
"308 555 LINE",
"408 246 LINE",
"207 246 LINE"
);
}
);
};
components = (
{
name = A;
},
{
name = acute;
transform = "{1, 0, 0, 1, 47, 181}";
}
);
layerId = "9540212F-C873-4039-900D-544C1C7D2862";
leftMetricsKey = "=A";
rightMetricsKey = "=A";
width = 588;
}
);
leftKerningGroup = A;
leftMetricsKey = A;
rightKerningGroup = A;
rightMetricsKey = A;
unicode = 00C1;
},
{
glyphname = Abreve;
lastChange = "2018-03-01 10:01:57 +0000";
layers = (
{
background = {
paths = (
{
closed = 1;
nodes = (
"367 883 LINE",
"367 857 OFFCURVE",
"352 821 OFFCURVE",
"319 821 CURVE SMOOTH",
"294 821 LINE SMOOTH",
"260 821 OFFCURVE",
"246 857 OFFCURVE",
"246 883 CURVE",
"171 883 LINE",
"171 849 OFFCURVE",
"180 808 OFFCURVE",
"201 786 CURVE",
"220 763 OFFCURVE",
"251 753 OFFCURVE",
"281 753 CURVE SMOOTH",
"332 753 LINE SMOOTH",
"362 753 OFFCURVE",
"393 763 OFFCURVE",
"413 786 CURVE SMOOTH",
"432 808 OFFCURVE",
"442 849 OFFCURVE",
"442 883 CURVE"
);
},
{
closed = 1;
nodes = (
"374 700 LINE",
"241 700 LINE",
"8 0 LINE",
"125 0 LINE",
"170 133 LINE",
"446 133 LINE",
"489 0 LINE",
"607 0 LINE"
);
},
{
closed = 1;
nodes = (
"308 555 LINE",
"408 246 LINE",
"207 246 LINE"
);
}
);
};
components = (
{
name = A;
},
{
name = breve;
transform = "{1, 0, 0, 1, 47, 181}";
}
);
layerId = "9540212F-C873-4039-900D-544C1C7D2862";
leftMetricsKey = "=A";
rightMetricsKey = "=A";
width = 588;
}
);
leftKerningGroup = A;
leftMetricsKey = A;
rightKerningGroup = A;
rightMetricsKey = A;
unicode = 0102;
},
{
glyphname = Acircumflex;
lastChange = "2018-03-01 10:01:57 +0000";
layers = (
{
background = {
paths = (
{
closed = 1;
nodes = (
"356 883 LINE",
"257 883 LINE",
"156 753 LINE",
"257 753 LINE",
"306 823 LINE",
"355 753 LINE",
"457 753 LINE"
);
},
{
closed = 1;
nodes = (
"374 700 LINE",
"241 700 LINE",
"8 0 LINE",
"125 0 LINE",
"170 133 LINE",
"446 133 LINE",
"489 0 LINE",
"607 0 LINE"
);
},
{
closed = 1;
nodes = (
"308 555 LINE",
"408 246 LINE",
"207 246 LINE"
);
}
);
};
components = (
{
name = A;
},
{
name = circumflex;
transform = "{1, 0, 0, 1, 47, 181}";
}
);
layerId = "9540212F-C873-4039-900D-544C1C7D2862";
leftMetricsKey = "=A";
rightMetricsKey = "=A";
width = 588;
}
);
leftKerningGroup = A;
leftMetricsKey = A;
rightKerningGroup = A;
rightMetricsKey = A;
unicode = 00C2;
},
{
glyphname = Adieresis;
lastChange = "2018-03-01 10:01:57 +0000";
layers = (
{
background = {
paths = (
{
closed = 1;
nodes = (
"258 883 LINE",
"153 883 LINE",
"153 776 LINE",
"258 776 LINE"
);
},
{
closed = 1;
nodes = (
"461 883 LINE",
"356 883 LINE",
"356 776 LINE",
"461 776 LINE"
);
},
{
closed = 1;
nodes = (
"374 700 LINE",
"241 700 LINE",
"8 0 LINE",
"125 0 LINE",
"170 133 LINE",
"446 133 LINE",
"489 0 LINE",
"607 0 LINE"
);
},
{
closed = 1;
nodes = (
"308 555 LINE",
"408 246 LINE",
"207 246 LINE"
);
}
);
};
components = (
{
name = A;
}
);
layerId = "9540212F-C873-4039-900D-544C1C7D2862";
leftMetricsKey = "=A";
rightMetricsKey = "=A";
paths = (
{
closed = 1;
nodes = (
"376 680 LINE",
"568 680 LINE",
"568 872 LINE",
"376 872 LINE"
);
},
{
closed = 1;
nodes = (
"398 702 LINE",
"398 850 LINE",
"546 850 LINE",
"546 702 LINE"
);
},
{
closed = 1;
nodes = (
"36 680 LINE",
"228 680 LINE",
"228 872 LINE",
"36 872 LINE"
);
},
{
closed = 1;
nodes = (
"58 702 LINE",
"58 850 LINE",
"206 850 LINE",
"206 702 LINE"
);
}
);
width = 588;
}
);
leftKerningGroup = A;
leftMetricsKey = A;
rightKerningGroup = A;
rightMetricsKey = A;
unicode = 00C4;
},
{
glyphname = Agrave;
lastChange = "2018-03-01 10:01:57 +0000";
layers = (
{
background = {
paths = (
{
closed = 1;
nodes = (
"274 883 LINE",
"144 883 LINE",
"257 753 LINE",
"356 753 LINE"
);
},
{
closed = 1;
nodes = (
"374 700 LINE",
"241 700 LINE",
"8 0 LINE",
"125 0 LINE",
"170 133 LINE",
"446 133 LINE",
"489 0 LINE",
"607 0 LINE"
);
},
{
closed = 1;
nodes = (
"308 555 LINE",
"408 246 LINE",
"207 246 LINE"
);
}
);
};
components = (
{
name = A;
},
{
alignment = -1;
name = grave;
transform = "{1, 0, 0, 1, -123, 170}";
}
);
layerId = "9540212F-C873-4039-900D-544C1C7D2862";
leftMetricsKey = "=A";
rightMetricsKey = "=A";
width = 588;
}
);
leftKerningGroup = A;
leftMetricsKey = A;
rightKerningGroup = A;
rightMetricsKey = A;
unicode = 00C0;
},
{
glyphname = Amacron;
lastChange = "2018-03-01 10:01:57 +0000";
layers = (
{
background = {
paths = (
{
closed = 1;
nodes = (
"447 846 LINE",
"166 846 LINE",
"166 774 LINE",
"447 774 LINE"
);
},
{
closed = 1;
nodes = (
"374 700 LINE",
"241 700 LINE",
"8 0 LINE",
"125 0 LINE",
"170 133 LINE",
"446 133 LINE",
"489 0 LINE",
"607 0 LINE"
);
},
{
closed = 1;
nodes = (
"308 555 LINE",
"408 246 LINE",
"207 246 LINE"
);
}
);
};
components = (
{
name = A;
},
{
name = macron;
transform = "{1, 0, 0, 1, 47, 170}";
}
);
layerId = "9540212F-C873-4039-900D-544C1C7D2862";
leftMetricsKey = "=A";
rightMetricsKey = "=A";
width = 588;
}
);
leftKerningGroup = A;
leftMetricsKey = A;
rightKerningGroup = A;
rightMetricsKey = A;
unicode = 0100;
},
{
glyphname = Aogonek;
lastChange = "2018-03-01 10:01:57 +0000";
layers = (
{
background = {
paths = (
{
closed = 1;
nodes = (
"614 -98 LINE",
"581 -117 OFFCURVE",
"557 -127 OFFCURVE",
"537 -124 CURVE SMOOTH",
"522 -122 OFFCURVE",
"510 -117 OFFCURVE",
"510 -98 CURVE SMOOTH",
"510 -73 OFFCURVE",
"564 -31 OFFCURVE",
"607 0 CURVE",
"374 700 LINE",
"241 700 LINE",
"8 0 LINE",
"125 0 LINE",
"170 133 LINE",
"446 133 LINE",
"489 0 LINE",
"455 -24 OFFCURVE",
"417 -69 OFFCURVE",
"417 -117 CURVE SMOOTH",
"417 -149 OFFCURVE",
"428 -171 OFFCURVE",
"447 -184 CURVE SMOOTH",
"466 -197 OFFCURVE",
"489 -203 OFFCURVE",
"516 -203 CURVE SMOOTH",
"547 -203 OFFCURVE",
"595 -193 OFFCURVE",
"649 -150 CURVE"
);
},
{
closed = 1;
nodes = (
"207 246 LINE",
"308 555 LINE",
"408 246 LINE"
);
}
);
};
components = (
{
name = A;
},
{
name = ogonek;
transform = "{1, 0, 0, 1, 387, 0}";
}
);
layerId = "9540212F-C873-4039-900D-544C1C7D2862";
leftMetricsKey = "=A";
rightMetricsKey = "=A";
width = 588;
}
);
leftKerningGroup = A;
leftMetricsKey = A;
rightKerningGroup = A;
rightMetricsKey = A;
unicode = 0104;
},
{
glyphname = Aring;
lastChange = "2018-03-01 10:01:57 +0000";
layers = (
{
background = {
paths = (
{
closed = 1;
nodes = (
"262 899 OFFCURVE",
"227 863 OFFCURVE",
"227 817 CURVE SMOOTH",
"227 773 OFFCURVE",
"263 738 OFFCURVE",
"307 738 CURVE SMOOTH",
"352 738 OFFCURVE",
"387 773 OFFCURVE",
"387 817 CURVE SMOOTH",
"387 863 OFFCURVE",
"352 899 OFFCURVE",
"308 899 CURVE SMOOTH"
);
},
{
closed = 1;
nodes = (
"328 853 OFFCURVE",
"343 838 OFFCURVE",
"343 819 CURVE SMOOTH",
"343 798 OFFCURVE",
"326 783 OFFCURVE",
"307 783 CURVE SMOOTH",
"287 783 OFFCURVE",
"272 798 OFFCURVE",
"272 817 CURVE SMOOTH",
"272 839 OFFCURVE",
"287 853 OFFCURVE",
"308 853 CURVE SMOOTH"
);
},
{
closed = 1;
nodes = (
"374 700 LINE",
"241 700 LINE",
"8 0 LINE",
"125 0 LINE",
"170 133 LINE",
"446 133 LINE",
"489 0 LINE",
"607 0 LINE"
);
},
{
closed = 1;
nodes = (
"308 555 LINE",
"408 246 LINE",
"207 246 LINE"
);
}
);
};
components = (
{
name = A;
},
{
name = ring;
transform = "{1, 0, 0, 1, 47, 170}";
}
);
layerId = "9540212F-C873-4039-900D-544C1C7D2862";
leftMetricsKey = "=A";
rightMetricsKey = "=A";
width = 588;
}
);
leftKerningGroup = A;
leftMetricsKey = A;
rightKerningGroup = A;
rightMetricsKey = A;
unicode = 00C5;
},
{
glyphname = Aringacute;
lastChange = "2018-03-01 10:01:57 +0000";
layers = (
{
background = {
paths = (
{
closed = 1;
nodes = (
"375.478 695.559 LINE",
"384.049 708.178 OFFCURVE",
"389 723.452 OFFCURVE",
"389 740 CURVE SMOOTH",
"389 760.917 OFFCURVE",
"381.763 779.766 OFFCURVE",
"369.734 794.103 CURVE",
"455 886 LINE",
"325 886 LINE",
"281.683 817.119 LINE",
"250.38 805.797 OFFCURVE",
"229 775.953 OFFCURVE",
"229 740 CURVE SMOOTH",
"229 724.875 OFFCURVE",
"233.254 710.813 OFFCURVE",
"240.624 698.871 CURVE",
"8 0 LINE",
"125 0 LINE",
"170 133 LINE",
"446 133 LINE",
"489 0 LINE",
"607 0 LINE"
);
},
{
closed = 1;
nodes = (
"330 776 OFFCURVE",
"345 761 OFFCURVE",
"345 742 CURVE SMOOTH",
"345 721 OFFCURVE",
"328 706 OFFCURVE",
"309 706 CURVE SMOOTH",
"289 706 OFFCURVE",
"274 721 OFFCURVE",
"274 740 CURVE SMOOTH",
"274 762 OFFCURVE",
"289 776 OFFCURVE",
"310 776 CURVE SMOOTH"
);
},
{
closed = 1;
nodes = (
"207 246 LINE",
"308 555 LINE",
"408 246 LINE"
);
}
);
};
components = (
{
name = A;
},
{
name = ring;
transform = "{1, 0, 0, 1, 47, 170}";
}
);
guideLines = (
{
position = "{325, 886}";
}
);
layerId = "9540212F-C873-4039-900D-544C1C7D2862";
leftMetricsKey = "=A";
rightMetricsKey = "=A";
width = 588;
}
);
leftKerningGroup = A;
leftMetricsKey = A;
rightKerningGroup = A;
rightMetricsKey = A;
unicode = 01FA;
},
{
glyphname = Atilde;
lastChange = "2018-03-01 10:01:57 +0000";
layers = (
{
background = {
paths = (
{
closed = 1;
nodes = (
"412 882 LINE",
"387 844 OFFCURVE",
"379 839 OFFCURVE",
"361 839 CURVE SMOOTH",
"353 839 OFFCURVE",
"345 840 OFFCURVE",
"327 852 CURVE",
"284 874 OFFCURVE",
"271 876 OFFCURVE",
"254 876 CURVE SMOOTH",
"221 876 OFFCURVE",
"165 843 OFFCURVE",
"148 792 CURVE",
"207 757 LINE",
"225 790 OFFCURVE",
"235 798 OFFCURVE",
"254 798 CURVE SMOOTH",
"267 798 OFFCURVE",
"273 796 OFFCURVE",
"305 780 CURVE",
"329 766 OFFCURVE",
"345 761 OFFCURVE",
"362 761 CURVE SMOOTH",
"395 761 OFFCURVE",
"439 785 OFFCURVE",
"466 838 CURVE"
);
},
{
closed = 1;
nodes = (
"374 700 LINE",
"241 700 LINE",
"8 0 LINE",
"125 0 LINE",
"170 133 LINE",
"446 133 LINE",
"489 0 LINE",
"607 0 LINE"
);
},
{
closed = 1;
nodes = (
"308 555 LINE",
"408 246 LINE",
"207 246 LINE"
);
}
);
};
components = (
{
name = A;
},
{
name = tilde;
transform = "{1, 0, 0, 1, 47, 170}";
}
);
layerId = "9540212F-C873-4039-900D-544C1C7D2862";
leftMetricsKey = "=A";
rightMetricsKey = "=A";
width = 588;
}
);
leftKerningGroup = A;
leftMetricsKey = A;
rightKerningGroup = A;
rightMetricsKey = A;
unicode = 00C3;
},
{
glyphname = AE;
lastChange = "2018-03-01 10:01:57 +0000";
layers = (
{
anchors = (
{
name = top;
position = "{370, 702}";
}
);
background = {
paths = (
{
closed = 1;
nodes = (
"808 588 LINE",
"808 700 LINE",
"326 700 LINE",
"0 0 LINE",
"123 0 LINE",
"184 131 LINE",
"388 131 LINE",
"388 0 LINE",
"808 0 LINE",
"808 112 LINE",
"508.16 112 LINE",
"508.429 300 LINE",
"808 300 LINE",
"808 412 LINE",
"508.589 412 LINE",
"508.84 588 LINE"
);
},
{
closed = 1;
nodes = (
"236 243 LINE",
"388 568 LINE",
"388 243 LINE"
);
}
);
};
guideLines = (
{
angle = 65;
position = "{-127, 0}";
},
{
angle = 65;
position = "{-4, 0}";
},
{
position = "{-732, 545}";
}
);
layerId = "9540212F-C873-4039-900D-544C1C7D2862";
rightMetricsKey = "=E";
paths = (
{
closed = 1;
nodes = (
"732 510 LINE",
"732 702 LINE",
"200 702 LINE",
"200 362 LINE",
"30 362 LINE",
"30 0 LINE",
"222 0 LINE",
"222 170 LINE",
"370 170 LINE",
"370 0 LINE",
"732 0 LINE",
"732 192 LINE",
"562 192 LINE",
"562 340 LINE",
"721 340 LINE",
"721 362 LINE",
"562 362 LINE",
"562 510 LINE"
);
},
{
closed = 1;
nodes = (
"540 532 LINE",
"540 170 LINE",
"710 170 LINE",
"710 22 LINE",
"392 22 LINE",
"392 521 LINE",
"370 521 LINE",
"370 362 LINE",
"222 362 LINE",
"222 680 LINE",
"710 680 LINE",
"710 532 LINE"
);
},
{
closed = 1;
nodes = (
"200 22 LINE",
"52 22 LINE",
"52 340 LINE",
"200 340 LINE"
);
},
{
closed = 1;
nodes = (
"222 192 LINE",
"222 340 LINE",
"370 340 LINE",
"370 192 LINE"
);
}
);
width = 768;
}
);
leftKerningGroup = AE;
rightKerningGroup = E;
rightMetricsKey = E;
unicode = 00C6;
},
{
glyphname = AEacute;
lastChange = "2018-03-01 10:01:57 +0000";
layers = (
{
background = {
paths = (
{
closed = 1;
nodes = (
"580 903 LINE",
"450 903 LINE",
"368 773 LINE",
"467 773 LINE"
);
},
{
closed = 1;
nodes = (
"808 588 LINE",
"808 700 LINE",
"326 700 LINE",
"0 0 LINE",
"123 0 LINE",
"184 131 LINE",
"388 131 LINE",
"388 0 LINE",
"808 0 LINE",
"808 112 LINE",
"508.16 112 LINE",
"508.429 300 LINE",
"808 300 LINE",
"808 412 LINE",
"508.589 412 LINE",
"508.84 588 LINE"
);
},
{
closed = 1;
nodes = (
"236 243 LINE",
"388 568 LINE",
"388 243 LINE"
);
}
);
};
components = (
{
name = AE;
},
{
name = acute;
transform = "{1, 0, 0, 1, 211, 181}";
}
);
layerId = "9540212F-C873-4039-900D-544C1C7D2862";
width = 768;
}
);
leftKerningGroup = AE;
rightKerningGroup = E;
unicode = 01FC;
},
{
glyphname = B;
lastChange = "2018-03-01 10:01:57 +0000";
layers = (
{
background = {
paths = (
{
closed = 1;
nodes = (
"73 700 LINE",
"73 0 LINE",
"346 0 LINE SMOOTH",
"488 0 OFFCURVE",
"579 82 OFFCURVE",
"579 207 CURVE SMOOTH",
"579 285 OFFCURVE",
"543 337 OFFCURVE",
"481 364 CURVE",
"527 391 OFFCURVE",
"553 435 OFFCURVE",
"553 500 CURVE SMOOTH",
"553 621 OFFCURVE",
"462 700 OFFCURVE",
"319 700 CURVE SMOOTH"
);
},
{
closed = 1;
nodes = (
"307 588 LINE SMOOTH",
"406 588 OFFCURVE",
"433 556 OFFCURVE",
"433 499 CURVE SMOOTH",
"433 444 OFFCURVE",
"406 412 OFFCURVE",
"307 412 CURVE SMOOTH",
"193 412 LINE",
"193 588 LINE"
);
},
{
closed = 1;
nodes = (
"333 300 LINE SMOOTH",
"432 300 OFFCURVE",
"459 265 OFFCURVE",
"459 207 CURVE SMOOTH",
"459 150 OFFCURVE",
"432 112 OFFCURVE",
"333 112 CURVE SMOOTH",
"193 112 LINE",
"193 300 LINE"
);
}
);
};
layerId = "9540212F-C873-4039-900D-544C1C7D2862";
leftMetricsKey = "=I";
rightMetricsKey = "=I";
paths = (
{
closed = 1;
nodes = (
"36 702 LINE",
"36 0 LINE",
"568 0 LINE",
"568 702 LINE"
);
},
{
closed = 1;
nodes = (
"398 362 LINE",
"398 532 LINE",
"206 532 LINE",
"206 170 LINE",
"546 170 LINE",
"546 22 LINE",
"58 22 LINE",
"58 680 LINE",
"546 680 LINE",
"546 362 LINE"
);
},
{
closed = 1;
nodes = (
"376 362 LINE",
"228 362 LINE",
"228 510 LINE",
"376 510 LINE"
);
},
{
closed = 1;
nodes = (
"228 340 LINE",
"546 340 LINE",
"546 192 LINE",
"228 192 LINE"
);
}
);
width = 604;
}
);
leftMetricsKey = I;
rightMetricsKey = I;
unicode = 0042;
},
{
glyphname = C;
lastChange = "2018-03-01 10:01:57 +0000";
layers = (
{
anchors = (
{
name = bottom;
position = "{206, 0}";
},
{
name = top;
position = "{206, 702}";
}
);
background = {
paths = (
{
closed = 1;
nodes = (
"179 716 OFFCURVE",
"49 588 OFFCURVE",
"49 386 CURVE SMOOTH",
"49 315 LINE SMOOTH",
"49 113 OFFCURVE",
"179 -16 OFFCURVE",
"349 -16 CURVE SMOOTH",
"478 -16 OFFCURVE",
"585 59 OFFCURVE",
"628 184 CURVE",
"512 217 LINE",
"486 142 OFFCURVE",
"431 96 OFFCURVE",
"348 96 CURVE SMOOTH",
"228 96 OFFCURVE",
"169 192 OFFCURVE",
"169 333 CURVE SMOOTH",
"169 365 LINE SMOOTH",
"169 505 OFFCURVE",
"228 604 OFFCURVE",
"348 604 CURVE SMOOTH",
"431 604 OFFCURVE",
"485 557 OFFCURVE",
"511 482 CURVE",
"628 516 LINE",
"585 641 OFFCURVE",
"478 716 OFFCURVE",
"349 716 CURVE SMOOTH"
);
}
);
};
guideLines = (
{
position = "{855, 716}";
},
{
position = "{841, -16}";
},
{
position = "{864, 604}";
},
{
position = "{803, 96}";
},
{
angle = -16;
position = "{12, 350}";
},
{
position = "{741, -179}";
},
{
angle = 16;
position = "{12, 350}";
},
{
position = "{-35, 690}";
}
);
layerId = "9540212F-C873-4039-900D-544C1C7D2862";
leftMetricsKey = "=I";
rightMetricsKey = "=I";
paths = (
{
closed = 1;
nodes = (
"568 192 LINE",
"228 192 LINE",
"228 510 LINE",
"568 510 LINE",
"568 702 LINE",
"36 702 LINE",
"36 0 LINE",
"568 0 LINE"
);
},
{
closed = 1;
nodes = (
"546 170 LINE",
"546 22 LINE",
"58 22 LINE",
"58 680 LINE",
"546 680 LINE",
"546 532 LINE",
"206 532 LINE",
"206 170 LINE"
);
}
);
width = 604;
},
{
associatedMasterId = "9540212F-C873-4039-900D-544C1C7D2862";
guideLines = (
{
position = "{813, 716}";
},
{
position = "{799, -16}";
},
{
position = "{822, 604}";
},
{
position = "{761, 96}";
},
{
angle = -16;
position = "{-30, 350}";
},
{
position = "{699, -179}";
},
{
angle = 16;
position = "{-30, 350}";
}
);
layerId = "F0CD8407-6EF4-49AA-927E-B33300DA89C7";
name = "schmalles C";
paths = (
{
closed = 1;
nodes = (
"409 225 LINE",
"391 145 OFFCURVE",
"347 96 OFFCURVE",
"269 96 CURVE SMOOTH",
"161 96 OFFCURVE",
"120 192 OFFCURVE",
"120 333 CURVE SMOOTH",
"120 365 LINE SMOOTH",
"120 505 OFFCURVE",
"161 604 OFFCURVE",
"269 604 CURVE SMOOTH",
"345 604 OFFCURVE",
"389 555 OFFCURVE",
"408 477 CURVE",
"523 509 LINE",
"486 639 OFFCURVE",
"388 716 OFFCURVE",
"270 716 CURVE SMOOTH",
"117 716 OFFCURVE",
"0 588 OFFCURVE",
"0 386 CURVE SMOOTH",
"0 315 LINE SMOOTH",
"0 113 OFFCURVE",
"117 -16 OFFCURVE",
"270 -16 CURVE SMOOTH",
"388 -16 OFFCURVE",
"486 62 OFFCURVE",
"523 192 CURVE"
);
}
);
width = 579;
},
{
associatedMasterId = "9540212F-C873-4039-900D-544C1C7D2862";
guideLines = (
{
position = "{813, 716}";
},
{
position = "{799, -16}";
},
{
position = "{822, 604}";
},
{
position = "{761, 96}";
},
{
angle = -16;
position = "{-30, 350}";
},
{
position = "{699, -179}";
},
{
angle = 16;
position = "{-30, 350}";
}
);
layerId = "6D4B4E15-3374-44F9-860A-4717A7853F0C";
name = "schmalles O";
paths = (
{
closed = 1;
nodes = (
"117 716 OFFCURVE",
"0 588 OFFCURVE",
"0 386 CURVE SMOOTH",
"0 315 LINE SMOOTH",
"0 113 OFFCURVE",
"117 -16 OFFCURVE",
"270 -16 CURVE SMOOTH",
"422 -16 OFFCURVE",
"540 113 OFFCURVE",
"540 315 CURVE SMOOTH",
"540 386 LINE SMOOTH",
"540 588 OFFCURVE",
"422 716 OFFCURVE",
"270 716 CURVE SMOOTH"
);
},
{
closed = 1;
nodes = (
"424 192 OFFCURVE",
"377 96 OFFCURVE",
"269 96 CURVE SMOOTH",
"161 96 OFFCURVE",
"116 192 OFFCURVE",
"116 333 CURVE SMOOTH",
"116 365 LINE SMOOTH",
"116 505 OFFCURVE",
"161 604 OFFCURVE",
"269 604 CURVE SMOOTH",
"377 604 OFFCURVE",
"424 505 OFFCURVE",
"424 365 CURVE SMOOTH",
"424 333 LINE SMOOTH"
);
}
);
width = 579;
},
{
associatedMasterId = "9540212F-C873-4039-900D-544C1C7D2862";
guideLines = (
{
position = "{813, 716}";
},
{
position = "{799, -16}";
},
{
position = "{822, 604}";
},
{
position = "{761, 96}";
},
{
angle = -16;
position = "{-30, 350}";
},
{
position = "{699, -179}";
},
{
angle = 16;
position = "{-30, 350}";
}
);
layerId = "EAA454AA-73F9-4FD0-B295-98AC28DBE6E3";
name = "schmalles C2";
paths = (
{
closed = 1;
nodes = (
"435 217 LINE",
"414 142 OFFCURVE",
"369 96 OFFCURVE",
"294 96 CURVE SMOOTH",
"186 96 OFFCURVE",
"141 192 OFFCURVE",
"141 333 CURVE SMOOTH",
"141 365 LINE SMOOTH",
"141 505 OFFCURVE",
"186 604 OFFCURVE",
"294 604 CURVE SMOOTH",
"368 604 OFFCURVE",
"413 558 OFFCURVE",
"435 483 CURVE",
"547 515 LINE",
"508 641 OFFCURVE",
"411 716 OFFCURVE",
"295 716 CURVE SMOOTH",
"142 716 OFFCURVE",
"25 588 OFFCURVE",
"25 386 CURVE SMOOTH",
"25 315 LINE SMOOTH",
"25 113 OFFCURVE",
"142 -16 OFFCURVE",
"295 -16 CURVE SMOOTH",
"411 -16 OFFCURVE",
"507 59 OFFCURVE",
"546 184 CURVE"
);
}
);
width = 579;
},
{
associatedMasterId = "9540212F-C873-4039-900D-544C1C7D2862";
guideLines = (
{
position = "{813, 716}";
},
{
position = "{799, -16}";
},
{
position = "{822, 604}";
},
{
position = "{761, 96}";
},
{
angle = -16;
position = "{-30, 350}";
},
{
position = "{699, -179}";
},
{
angle = 16;
position = "{-30, 350}";
}
);
layerId = "1F0248F0-3863-4A4A-979F-2CD4AA294ECF";
name = "mehrschmall O";
paths = (
{
closed = 1;
nodes = (
"111 716 OFFCURVE",
"0 588 OFFCURVE",
"0 386 CURVE SMOOTH",
"0 315 LINE SMOOTH",
"0 113 OFFCURVE",
"111 -16 OFFCURVE",
"257 -16 CURVE SMOOTH",
"402 -16 OFFCURVE",
"514 113 OFFCURVE",
"514 315 CURVE SMOOTH",
"514 386 LINE SMOOTH",
"514 588 OFFCURVE",
"402 716 OFFCURVE",
"257 716 CURVE SMOOTH"
);
},
{
closed = 1;
nodes = (
"398 192 OFFCURVE",
"355 96 OFFCURVE",
"256 96 CURVE SMOOTH",
"157 96 OFFCURVE",
"116 192 OFFCURVE",
"116 333 CURVE SMOOTH",
"116 365 LINE SMOOTH",
"116 505 OFFCURVE",
"157 604 OFFCURVE",
"256 604 CURVE SMOOTH",
"355 604 OFFCURVE",
"398 505 OFFCURVE",
"398 365 CURVE SMOOTH",
"398 333 LINE SMOOTH"
);
}
);
width = 579;
},
{
associatedMasterId = "9540212F-C873-4039-900D-544C1C7D2862";
guideLines = (
{
position = "{813, 716}";
},
{
position = "{799, -16}";
},
{
position = "{822, 604}";
},
{
position = "{761, 96}";
},
{
angle = -16;
position = "{-30, 350}";
},
{
position = "{699, -179}";
},
{
angle = 16;
position = "{-30, 350}";
}
);
layerId = "7EF26123-3D0B-491E-A2DE-0B3B6147914A";
name = "mehrschmall  C";
paths = (
{
closed = 1;
nodes = (
"388 230 LINE",
"371 147 OFFCURVE",
"328 96 OFFCURVE",
"256 96 CURVE SMOOTH",
"157 96 OFFCURVE",
"116 192 OFFCURVE",
"116 333 CURVE SMOOTH",
"116 365 LINE SMOOTH",
"116 505 OFFCURVE",
"157 604 OFFCURVE",
"256 604 CURVE SMOOTH",
"328 604 OFFCURVE",
"370 552 OFFCURVE",
"388 470 CURVE",
"500 502 LINE",
"466 636 OFFCURVE",
"372 716 OFFCURVE",
"257 716 CURVE SMOOTH",
"111 716 OFFCURVE",
"0 588 OFFCURVE",
"0 386 CURVE SMOOTH",
"0 315 LINE SMOOTH",
"0 113 OFFCURVE",
"111 -16 OFFCURVE",
"257 -16 CURVE SMOOTH",
"372 -16 OFFCURVE",
"466 65 OFFCURVE",
"500 198 CURVE"
);
}
);
width = 579;
},
{
associatedMasterId = "9540212F-C873-4039-900D-544C1C7D2862";
guideLines = (
{
position = "{813, 716}";
},
{
position = "{799, -16}";
},
{
position = "{822, 604}";
},
{
position = "{761, 96}";
},
{
angle = -20;
position = "{-30, 350}";
},
{
position = "{699, -179}";
},
{
angle = 20;
position = "{-30, 350}";
}
);
layerId = "617D98D1-339B-4C54-8282-7508C2980B59";
name = EURO;
paths = (
{
closed = 1;
nodes = (
"420 187 LINE",
"391 130 OFFCURVE",
"340 96 OFFCURVE",
"269 96 CURVE SMOOTH",
"149 96 OFFCURVE",
"90 192 OFFCURVE",
"90 333 CURVE SMOOTH",
"90 365 LINE SMOOTH",
"90 505 OFFCURVE",
"149 604 OFFCURVE",
"269 604 CURVE SMOOTH",
"340 604 OFFCURVE",
"389 570 OFFCURVE",
"418 514 CURVE",
"533 554 LINE",
"483 656 OFFCURVE",
"385 716 OFFCURVE",
"270 716 CURVE SMOOTH",
"100 716 OFFCURVE",
"-30 588 OFFCURVE",
"-30 386 CURVE SMOOTH",
"-30 315 LINE SMOOTH",
"-30 113 OFFCURVE",
"100 -16 OFFCURVE",
"270 -16 CURVE SMOOTH",
"385 -16 OFFCURVE",
"483 44 OFFCURVE",
"533 145 CURVE"
);
}
);
width = 579;
},
{
anchors = (
{
name = bottom;
position = "{349, 0}";
},
{
name = top;
position = "{349, 690}";
}
);
associatedMasterId = "9540212F-C873-4039-900D-544C1C7D2862";
guideLines = (
{
position = "{892, 716}";
},
{
position = "{878, -16}";
},
{
position = "{901, 604}";
},
{
position = "{840, 96}";
},
{
angle = -16;
position = "{49, 350}";
},
{
position = "{778, -179}";
},
{
angle = 16;
position = "{49, 350}";
},
{
position = "{2, 690}";
}
);
layerId = "524D291B-E703-465D-98E3-C58BE0FD73CC";
leftMetricsKey = "=O";
name = "Regular Mar 20 14, 01:28";
paths = (
{
closed = 1;
nodes = (
"628 516 LINE",
"585 641 OFFCURVE",
"478 716 OFFCURVE",
"349 716 CURVE SMOOTH",
"179 716 OFFCURVE",
"49 588 OFFCURVE",
"49 386 CURVE SMOOTH",
"49 315 LINE SMOOTH",
"49 113 OFFCURVE",
"179 -16 OFFCURVE",
"349 -16 CURVE SMOOTH",
"478 -16 OFFCURVE",
"585 59 OFFCURVE",
"628 184 CURVE",
"512 217 LINE",
"486 142 OFFCURVE",
"431 96 OFFCURVE",
"348 96 CURVE SMOOTH",
"228 96 OFFCURVE",
"169 192 OFFCURVE",
"169 333 CURVE SMOOTH",
"169 365 LINE SMOOTH",
"169 505 OFFCURVE",
"228 604 OFFCURVE",
"348 604 CURVE SMOOTH",
"431 604 OFFCURVE",
"485 557 OFFCURVE",
"511 482 CURVE"
);
}
);
width = 667;
},
{
associatedMasterId = "9540212F-C873-4039-900D-544C1C7D2862";
guideLines = (
{
position = "{813, 716}";
},
{
position = "{799, -16}";
},
{
position = "{822, 604}";
},
{
position = "{761, 96}";
},
{
angle = -20;
position = "{-30, 350}";
},
{
position = "{699, -179}";
},
{
angle = 20;
position = "{-30, 350}";
}
);
layerId = "F60C2CDE-9E4E-4C1C-924F-D6FFEAB4B961";
name = "EURO Mar 20 14, 01:52";
paths = (
{
closed = 1;
nodes = (
"427 183 LINE",
"397 124 OFFCURVE",
"344 88 OFFCURVE",
"269 88 CURVE SMOOTH",
"144 88 OFFCURVE",
"83 187 OFFCURVE",
"83 332 CURVE SMOOTH",
"83 365 LINE SMOOTH",
"83 510 OFFCURVE",
"144 612 OFFCURVE",
"269 612 CURVE SMOOTH",
"343 612 OFFCURVE",
"396 576 OFFCURVE",
"426 516 CURVE",
"533 555 LINE",
"483 657 OFFCURVE",
"385 716 OFFCURVE",
"270 716 CURVE SMOOTH",
"100 716 OFFCURVE",
"-30 588 OFFCURVE",
"-30 386 CURVE SMOOTH",
"-30 315 LINE SMOOTH",
"-30 113 OFFCURVE",
"100 -16 OFFCURVE",
"270 -16 CURVE SMOOTH",
"384 -16 OFFCURVE",
"481 43 OFFCURVE",
"532 144 CURVE"
);
}
);
width = 579;
}
);
leftMetricsKey = I;
rightMetricsKey = I;
unicode = 0043;
},
{
glyphname = Cacute;
lastChange = "2018-03-01 10:01:57 +0000";
layers = (
{
background = {
paths = (
{
closed = 1;
nodes = (
"511 893 LINE",
"381 893 LINE",
"299 763 LINE",
"398 763 LINE"
);
},
{
closed = 1;
nodes = (
"179 716 OFFCURVE",
"49 588 OFFCURVE",
"49 386 CURVE SMOOTH",
"49 315 LINE SMOOTH",
"49 113 OFFCURVE",
"179 -16 OFFCURVE",
"349 -16 CURVE SMOOTH",
"478 -16 OFFCURVE",
"585 59 OFFCURVE",
"628 184 CURVE",
"512 217 LINE",
"486 142 OFFCURVE",
"431 96 OFFCURVE",
"348 96 CURVE SMOOTH",
"228 96 OFFCURVE",
"169 192 OFFCURVE",
"169 333 CURVE SMOOTH",
"169 365 LINE SMOOTH",
"169 505 OFFCURVE",
"228 604 OFFCURVE",
"348 604 CURVE SMOOTH",
"431 604 OFFCURVE",
"485 557 OFFCURVE",
"511 482 CURVE",
"628 516 LINE",
"585 641 OFFCURVE",
"478 716 OFFCURVE",
"349 716 CURVE SMOOTH"
);
}
);
};
components = (
{
name = C;
},
{
name = acute;
transform = "{1, 0, 0, 1, 47, 181}";
}
);
guideLines = (
{
position = "{0, 680}";
}
);
layerId = "9540212F-C873-4039-900D-544C1C7D2862";
width = 604;
}
);
leftKerningGroup = O;
rightKerningGroup = O;
unicode = 0106;
},
{
glyphname = Ccaron;
lastChange = "2018-03-01 10:01:57 +0000";
layers = (
{
background = {
paths = (
{
closed = 1;
nodes = (
"499 893 LINE",
"397 893 LINE",
"348 823 LINE",
"299 893 LINE",
"198 893 LINE",
"299 763 LINE",
"398 763 LINE"
);
},
{
closed = 1;
nodes = (
"179 716 OFFCURVE",
"49 588 OFFCURVE",
"49 386 CURVE SMOOTH",
"49 315 LINE SMOOTH",
"49 113 OFFCURVE",
"179 -16 OFFCURVE",
"349 -16 CURVE SMOOTH",
"478 -16 OFFCURVE",
"585 59 OFFCURVE",
"628 184 CURVE",
"512 217 LINE",
"486 142 OFFCURVE",
"431 96 OFFCURVE",
"348 96 CURVE SMOOTH",
"228 96 OFFCURVE",
"169 192 OFFCURVE",
"169 333 CURVE SMOOTH",
"169 365 LINE SMOOTH",
"169 505 OFFCURVE",
"228 604 OFFCURVE",
"348 604 CURVE SMOOTH",
"431 604 OFFCURVE",
"485 557 OFFCURVE",
"511 482 CURVE",
"628 516 LINE",
"585 641 OFFCURVE",
"478 716 OFFCURVE",
"349 716 CURVE SMOOTH"
);
}
);
};
components = (
{
name = C;
},
{
name = caron;
transform = "{1, 0, 0, 1, 47, 181}";
}
);
layerId = "9540212F-C873-4039-900D-544C1C7D2862";
width = 604;
}
);
leftKerningGroup = O;
rightKerningGroup = O;
unicode = 010C;
},
{
glyphname = Ccedilla;
lastChange = "2018-03-01 10:01:57 +0000";
layers = (
{
background = {
paths = (
{
closed = 1;
nodes = (
"228 96 OFFCURVE",
"169 192 OFFCURVE",
"169 333 CURVE SMOOTH",
"169 365 LINE SMOOTH",
"169 505 OFFCURVE",
"228 604 OFFCURVE",
"348 604 CURVE SMOOTH",
"431 604 OFFCURVE",
"485 557 OFFCURVE",
"511 482 CURVE",
"628 516 LINE",
"585 641 OFFCURVE",
"478 716 OFFCURVE",
"349 716 CURVE SMOOTH",
"179 716 OFFCURVE",
"49 588 OFFCURVE",
"49 386 CURVE SMOOTH",
"49 315 LINE SMOOTH",
"49 126.696 OFFCURVE",
"161.969 1.829 OFFCURVE",
"315 -14 CURVE",
"315 -97 LINE",
"316 -97 OFFCURVE",
"318 -97 OFFCURVE",
"319 -97 CURVE SMOOTH",
"323 -97 LINE SMOOTH",
"349 -97 OFFCURVE",
"373 -103 OFFCURVE",
"373 -127 CURVE SMOOTH",
"373 -150 OFFCURVE",
"344 -155 OFFCURVE",
"320 -155 CURVE SMOOTH",
"295 -155 OFFCURVE",
"267 -144 OFFCURVE",
"252 -128 CURVE",
"222 -180 LINE",
"254 -206 OFFCURVE",
"290 -218 OFFCURVE",
"339 -218 CURVE SMOOTH",
"391 -218 OFFCURVE",
"456 -190 OFFCURVE",
"456 -130 CURVE SMOOTH",
"456 -87 OFFCURVE",
"421.289 -60 OFFCURVE",
"382 -53 CURVE",
"382 -14 LINE",
"496.057 -3 OFFCURVE",
"588.725 69.828 OFFCURVE",
"628 184 CURVE",
"512 217 LINE",
"486 142 OFFCURVE",
"431 96 OFFCURVE",
"348 96 CURVE SMOOTH"
);
}
);
};
components = (
{
name = C;
},
{
name = cedilla;
transform = "{1, 0, 0, 1, -123, 0}";
}
);
layerId = "9540212F-C873-4039-900D-544C1C7D2862";
width = 604;
}
);
leftKerningGroup = O;
rightKerningGroup = O;
unicode = 00C7;
},
{
glyphname = Ccircumflex;
lastChange = "2018-03-01 10:01:57 +0000";
layers = (
{
background = {
paths = (
{
closed = 1;
nodes = (
"398 893 LINE",
"299 893 LINE",
"198 763 LINE",
"299 763 LINE",
"348 833 LINE",
"397 763 LINE",
"499 763 LINE"
);
},
{
closed = 1;
nodes = (
"179 716 OFFCURVE",
"49 588 OFFCURVE",
"49 386 CURVE SMOOTH",
"49 315 LINE SMOOTH",
"49 113 OFFCURVE",
"179 -16 OFFCURVE",
"349 -16 CURVE SMOOTH",
"478 -16 OFFCURVE",
"585 59 OFFCURVE",
"628 184 CURVE",
"512 217 LINE",
"486 142 OFFCURVE",
"431 96 OFFCURVE",
"348 96 CURVE SMOOTH",
"228 96 OFFCURVE",
"169 192 OFFCURVE",
"169 333 CURVE SMOOTH",
"169 365 LINE SMOOTH",
"169 505 OFFCURVE",
"228 604 OFFCURVE",
"348 604 CURVE SMOOTH",
"431 604 OFFCURVE",
"485 557 OFFCURVE",
"511 482 CURVE",
"628 516 LINE",
"585 641 OFFCURVE",
"478 716 OFFCURVE",
"349 716 CURVE SMOOTH"
);
}
);
};
components = (
{
name = C;
},
{
name = circumflex;
transform = "{1, 0, 0, 1, 47, 181}";
}
);
layerId = "9540212F-C873-4039-900D-544C1C7D2862";
width = 604;
}
);
leftKerningGroup = O;
rightKerningGroup = O;
unicode = 0108;
},
{
glyphname = Cdotaccent;
lastChange = "2018-03-01 10:01:57 +0000";
layers = (
{
background = {
paths = (
{
closed = 1;
nodes = (
"408 888 LINE",
"290 888 LINE",
"290 768 LINE",
"408 768 LINE"
);
},
{
closed = 1;
nodes = (
"179 716 OFFCURVE",
"49 588 OFFCURVE",
"49 386 CURVE SMOOTH",
"49 315 LINE SMOOTH",
"49 113 OFFCURVE",
"179 -16 OFFCURVE",
"349 -16 CURVE SMOOTH",
"478 -16 OFFCURVE",
"585 59 OFFCURVE",
"628 184 CURVE",
"512 217 LINE",
"486 142 OFFCURVE",
"431 96 OFFCURVE",
"348 96 CURVE SMOOTH",
"228 96 OFFCURVE",
"169 192 OFFCURVE",
"169 333 CURVE SMOOTH",
"169 365 LINE SMOOTH",
"169 505 OFFCURVE",
"228 604 OFFCURVE",
"348 604 CURVE SMOOTH",
"431 604 OFFCURVE",
"485 557 OFFCURVE",
"511 482 CURVE",
"628 516 LINE",
"585 641 OFFCURVE",
"478 716 OFFCURVE",
"349 716 CURVE SMOOTH"
);
}
);
};
components = (
{
name = C;
},
{
name = dotaccent;
transform = "{1, 0, 0, 1, 47, 170}";
}
);
layerId = "9540212F-C873-4039-900D-544C1C7D2862";
width = 604;
}
);
leftKerningGroup = O;
rightKerningGroup = O;
unicode = 010A;
},
{
glyphname = D;
lastChange = "2018-03-01 10:01:57 +0000";
layers = (
{
anchors = (
{
name = top;
position = "{206, 702}";
}
);
background = {
paths = (
{
closed = 1;
nodes = (
"73 700 LINE",
"73 0 LINE",
"313 0 LINE SMOOTH",
"482 0 OFFCURVE",
"613 123 OFFCURVE",
"613 316 CURVE SMOOTH",
"613 384 LINE SMOOTH",
"613 577 OFFCURVE",
"482 700 OFFCURVE",
"313 700 CURVE SMOOTH"
);
},
{
closed = 1;
nodes = (
"313 588 LINE SMOOTH",
"432 588 OFFCURVE",
"493 498 OFFCURVE",
"493 364 CURVE SMOOTH",
"493 333 LINE SMOOTH",
"493 199 OFFCURVE",
"432 113 OFFCURVE",
"313 112 CURVE SMOOTH",
"193 112 LINE",
"193 588 LINE"
);
}
);
};
guideLines = (
{
position = "{2, 680}";
}
);
layerId = "9540212F-C873-4039-900D-544C1C7D2862";
leftMetricsKey = "=I";
rightMetricsKey = "=I";
paths = (
{
closed = 1;
nodes = (
"398 532 LINE",
"398 702 LINE",
"36 702 LINE",
"36 0 LINE",
"392 0 LINE",
"568 176 LINE",
"568 532 LINE"
);
},
{
closed = 1;
nodes = (
"546 186 LINE",
"382 22 LINE",
"58 22 LINE",
"58 680 LINE",
"376 680 LINE",
"376 532 LINE",
"206 532 LINE",
"206 170 LINE",
"398 170 LINE",
"398 510 LINE",
"546 510 LINE"
);
},
{
closed = 1;
nodes = (
"376 510 LINE",
"376 192 LINE",
"228 192 LINE",
"228 510 LINE"
);
}
);
width = 604;
}
);
leftMetricsKey = I;
rightKerningGroup = D;
rightMetricsKey = I;
unicode = 0044;
},
{
glyphname = Eth;
lastChange = "2018-03-01 10:27:51 +0000";
layers = (
{
background = {
paths = (
{
closed = 1;
nodes = (
"113 700 LINE",
"113 395 LINE",
"12 395 LINE",
"12 320 LINE",
"113 320 LINE",
"113 0 LINE",
"353 0 LINE SMOOTH",
"522 0 OFFCURVE",
"653 123 OFFCURVE",
"653 316 CURVE SMOOTH",
"653 384 LINE SMOOTH",
"653 577 OFFCURVE",
"522 700 OFFCURVE",
"353 700 CURVE SMOOTH"
);
},
{
closed = 1;
nodes = (
"533 333 LINE SMOOTH",
"533 199 OFFCURVE",
"472 113 OFFCURVE",
"353 112 CURVE SMOOTH",
"233 112 LINE",
"233 320 LINE",
"332 320 LINE",
"332 395 LINE",
"233 395 LINE",
"233 588 LINE",
"353 588 LINE SMOOTH",
"472 588 OFFCURVE",
"533 498 OFFCURVE",
"533 364 CURVE SMOOTH"
);
}
);
};
components = (
{
alignment = -1;
name = D;
transform = "{1, 0, 0, 1, 40, 0}";
}
);
layerId = "9540212F-C873-4039-900D-544C1C7D2862";
rightMetricsKey = "=O";
paths = (
{
closed = 1;
nodes = (
"246 532 LINE",
"246 170 LINE",
"438 170 LINE",
"438 532 LINE"
);
},
{
closed = 1;
nodes = (
"416 192 LINE",
"268 192 LINE",
"268 340 LINE",
"427 340 LINE",
"427 362 LINE",
"268 362 LINE",
"268 510 LINE",
"416 510 LINE"
);
}
);
width = 644;
}
);
leftKerningGroup = Eth;
rightKerningGroup = O;
rightMetricsKey = O;
unicode = 00D0;
},
{
glyphname = Dcaron;
lastChange = "2018-03-01 10:01:57 +0000";
layers = (
{
background = {
paths = (
{
closed = 1;
nodes = (
"403 883 LINE",
"301 883 LINE",
"252 813 LINE",
"203 883 LINE",
"102 883 LINE",
"203 753 LINE",
"302 753 LINE"
);
},
{
closed = 1;
nodes = (
"73 700 LINE",
"73 0 LINE",
"313 0 LINE SMOOTH",
"482 0 OFFCURVE",
"613 123 OFFCURVE",
"613 316 CURVE SMOOTH",
"613 384 LINE SMOOTH",
"613 577 OFFCURVE",
"482 700 OFFCURVE",
"313 700 CURVE SMOOTH"
);
},
{
closed = 1;
nodes = (
"313 588 LINE SMOOTH",
"432 588 OFFCURVE",
"493 498 OFFCURVE",
"493 364 CURVE SMOOTH",
"493 333 LINE SMOOTH",
"493 199 OFFCURVE",
"432 113 OFFCURVE",
"313 112 CURVE SMOOTH",
"193 112 LINE",
"193 588 LINE"
);
}
);
};
components = (
{
name = D;
},
{
name = caron;
transform = "{1, 0, 0, 1, 47, 181}";
}
);
layerId = "9540212F-C873-4039-900D-544C1C7D2862";
width = 604;
}
);
leftKerningGroup = I;
rightKerningGroup = O;
unicode = 010E;
},
{
glyphname = Dcroat;
lastChange = "2018-03-01 10:27:51 +0000";
layers = (
{
background = {
paths = (
{
closed = 1;
nodes = (
"113 700 LINE",
"113 395 LINE",
"12 395 LINE",
"12 320 LINE",
"113 320 LINE",
"113 0 LINE",
"353 0 LINE SMOOTH",
"522 0 OFFCURVE",
"653 123 OFFCURVE",
"653 316 CURVE SMOOTH",
"653 384 LINE SMOOTH",
"653 577 OFFCURVE",
"522 700 OFFCURVE",
"353 700 CURVE SMOOTH"
);
},
{
closed = 1;
nodes = (
"533 333 LINE SMOOTH",
"533 199 OFFCURVE",
"472 113 OFFCURVE",
"353 112 CURVE SMOOTH",
"233 112 LINE",
"233 320 LINE",
"332 320 LINE",
"332 395 LINE",
"233 395 LINE",
"233 588 LINE",
"353 588 LINE SMOOTH",
"472 588 OFFCURVE",
"533 498 OFFCURVE",
"533 364 CURVE SMOOTH"
);
}
);
};
components = (
{
alignment = -1;
name = D;
transform = "{1, 0, 0, 1, 40, 0}";
}
);
guideLines = (
{
position = "{490, 300}";
},
{
position = "{490, 412}";
},
{
angle = 90;
position = "{81, 0}";
},
{
angle = 90;
position = "{188, 106}";
},
{
angle = 90;
position = "{332, 315}";
}
);
layerId = "9540212F-C873-4039-900D-544C1C7D2862";
rightMetricsKey = "=O";
paths = (
{
closed = 1;
nodes = (
"246 532 LINE",
"246 170 LINE",
"438 170 LINE",
"438 532 LINE"
);
},
{
closed = 1;
nodes = (
"416 192 LINE",
"268 192 LINE",
"268 340 LINE",
"427 340 LINE",
"427 362 LINE",
"268 362 LINE",
"268 510 LINE",
"416 510 LINE"
);
}
);
width = 644;
}
);
leftKerningGroup = Eth;
rightKerningGroup = O;
rightMetricsKey = O;
unicode = 0110;
},
{
glyphname = E;
lastChange = "2018-03-01 10:01:57 +0000";
layers = (
{
anchors = (
{
name = top;
position = "{36, 702}";
}
);
background = {
paths = (
{
closed = 1;
nodes = (
"493 700 LINE",
"73 700 LINE",
"73 0 LINE",
"493 0 LINE",
"493 112 LINE",
"193 112 LINE",
"193 300 LINE",
"493 300 LINE",
"493 412 LINE",
"193 412 LINE",
"193 588 LINE",
"493 588 LINE"
);
}
);
};
guideLines = (
{
angle = 90;
position = "{427, 112}";
},
{
position = "{427, 300}";
},
{
position = "{427, 412}";
},
{
position = "{-23, 680}";
}
);
layerId = "9540212F-C873-4039-900D-544C1C7D2862";
leftMetricsKey = "=I";
rightMetricsKey = "=I";
paths = (
{
closed = 1;
nodes = (
"398 510 LINE",
"398 702 LINE",
"36 702 LINE",
"36 0 LINE",
"398 0 LINE",
"398 192 LINE",
"58 192 LINE",
"58 340 LINE",
"398 340 LINE",
"398 362 LINE",
"58 362 LINE",
"58 510 LINE"
);
},
{
closed = 1;
nodes = (
"58 680 LINE",
"376 680 LINE",
"376 532 LINE",
"58 532 LINE"
);
},
{
closed = 1;
nodes = (
"376 170 LINE",
"376 22 LINE",
"58 22 LINE",
"58 170 LINE"
);
}
);
width = 434;
}
);
leftMetricsKey = I;
rightMetricsKey = I;
unicode = 0045;
},
{
glyphname = Eacute;
lastChange = "2018-03-01 10:01:57 +0000";
layers = (
{
anchors = (
{
name = "new anchor";
position = "{181, 233}";
}
);
background = {
paths = (
{
closed = 1;
nodes = (
"444 883 LINE",
"314 883 LINE",
"232 753 LINE",
"331 753 LINE"
);
},
{
closed = 1;
nodes = (
"493 700 LINE",
"73 700 LINE",
"73 0 LINE",
"493 0 LINE",
"493 112 LINE",
"193 112 LINE",
"193 300 LINE",
"493 300 LINE",
"493 412 LINE",
"193 412 LINE",
"193 588 LINE",
"493 588 LINE"
);
}
);
};
components = (
{
name = E;
},
{
name = acute;
transform = "{1, 0, 0, 1, -123, 181}";
}
);
layerId = "9540212F-C873-4039-900D-544C1C7D2862";
width = 434;
}
);
leftKerningGroup = I;
rightKerningGroup = E;
unicode = 00C9;
},
{
glyphname = Ebreve;
lastChange = "2018-03-01 10:01:57 +0000";
layers = (
{
background = {
paths = (
{
closed = 1;
nodes = (
"342 883 LINE",
"342 857 OFFCURVE",
"327 821 OFFCURVE",
"294 821 CURVE SMOOTH",
"269 821 LINE SMOOTH",
"235 821 OFFCURVE",
"221 857 OFFCURVE",
"221 883 CURVE",
"146 883 LINE",
"146 849 OFFCURVE",
"155 808 OFFCURVE",
"176 786 CURVE",
"195 763 OFFCURVE",
"226 753 OFFCURVE",
"256 753 CURVE SMOOTH",
"307 753 LINE SMOOTH",
"337 753 OFFCURVE",
"368 763 OFFCURVE",
"388 786 CURVE SMOOTH",
"407 808 OFFCURVE",
"417 849 OFFCURVE",
"417 883 CURVE"
);
},
{
closed = 1;
nodes = (
"493 700 LINE",
"73 700 LINE",
"73 0 LINE",
"493 0 LINE",
"493 112 LINE",
"193 112 LINE",
"193 300 LINE",
"493 300 LINE",
"493 412 LINE",
"193 412 LINE",
"193 588 LINE",
"493 588 LINE"
);
}
);
};
components = (
{
name = E;
},
{
name = breve;
transform = "{1, 0, 0, 1, -123, 181}";
}
);
layerId = "9540212F-C873-4039-900D-544C1C7D2862";
width = 434;
}
);
leftKerningGroup = I;
rightKerningGroup = E;
unicode = 0114;
},
{
glyphname = Ecaron;
lastChange = "2018-03-01 10:01:57 +0000";
layers = (
{
background = {
paths = (
{
closed = 1;
nodes = (
"432 883 LINE",
"330 883 LINE",
"281 813 LINE",
"232 883 LINE",
"131 883 LINE",
"232 753 LINE",
"331 753 LINE"
);
},
{
closed = 1;
nodes = (
"493 700 LINE",
"73 700 LINE",
"73 0 LINE",
"493 0 LINE",
"493 112 LINE",
"193 112 LINE",
"193 300 LINE",
"493 300 LINE",
"493 412 LINE",
"193 412 LINE",
"193 588 LINE",
"493 588 LINE"
);
}
);
};
components = (
{
name = E;
},
{
name = caron;
transform = "{1, 0, 0, 1, -123, 181}";
}
);
layerId = "9540212F-C873-4039-900D-544C1C7D2862";
width = 434;
}
);
leftKerningGroup = I;
rightKerningGroup = E;
unicode = 011A;
},
{
glyphname = Ecircumflex;
lastChange = "2018-03-01 10:01:57 +0000";
layers = (
{
background = {
paths = (
{
closed = 1;
nodes = (
"331 883 LINE",
"232 883 LINE",
"131 753 LINE",
"232 753 LINE",
"281 823 LINE",
"330 753 LINE",
"432 753 LINE"
);
},
{
closed = 1;
nodes = (
"493 700 LINE",
"73 700 LINE",
"73 0 LINE",
"493 0 LINE",
"493 112 LINE",
"193 112 LINE",
"193 300 LINE",
"493 300 LINE",
"493 412 LINE",
"193 412 LINE",
"193 588 LINE",
"493 588 LINE"
);
}
);
};
components = (
{
name = E;
},
{
name = circumflex;
transform = "{1, 0, 0, 1, -123, 181}";
}
);
layerId = "9540212F-C873-4039-900D-544C1C7D2862";
width = 434;
}
);
leftKerningGroup = I;
rightKerningGroup = E;
unicode = 00CA;
},
{
glyphname = Edieresis;
lastChange = "2018-03-01 10:01:57 +0000";
layers = (
{
background = {
paths = (
{
closed = 1;
nodes = (
"233 883 LINE",
"128 883 LINE",
"128 776 LINE",
"233 776 LINE"
);
},
{
closed = 1;
nodes = (
"436 883 LINE",
"331 883 LINE",
"331 776 LINE",
"436 776 LINE"
);
},
{
closed = 1;
nodes = (
"493 700 LINE",
"73 700 LINE",
"73 0 LINE",
"493 0 LINE",
"493 112 LINE",
"193 112 LINE",
"193 300 LINE",
"493 300 LINE",
"493 412 LINE",
"193 412 LINE",
"193 588 LINE",
"493 588 LINE"
);
}
);
};
components = (
{
name = E;
},
{
name = dieresis;
transform = "{1, 0, 0, 1, -123, 181}";
}
);
layerId = "9540212F-C873-4039-900D-544C1C7D2862";
width = 434;
}
);
leftKerningGroup = I;
rightKerningGroup = E;
unicode = 00CB;
},
{
glyphname = Edotaccent;
lastChange = "2018-03-01 10:01:57 +0000";
layers = (
{
background = {
paths = (
{
closed = 1;
nodes = (
"341 878 LINE",
"223 878 LINE",
"223 758 LINE",
"341 758 LINE"
);
},
{
closed = 1;
nodes = (
"493 700 LINE",
"73 700 LINE",
"73 0 LINE",
"493 0 LINE",
"493 112 LINE",
"193 112 LINE",
"193 300 LINE",
"493 300 LINE",
"493 412 LINE",
"193 412 LINE",
"193 588 LINE",
"493 588 LINE"
);
}
);
};
components = (
{
name = E;
},
{
name = dotaccent;
transform = "{1, 0, 0, 1, -123, 170}";
}
);
layerId = "9540212F-C873-4039-900D-544C1C7D2862";
width = 434;
}
);
leftKerningGroup = I;
rightKerningGroup = E;
unicode = 0116;
},
{
glyphname = Egrave;
lastChange = "2018-03-01 10:01:57 +0000";
layers = (
{
background = {
paths = (
{
closed = 1;
nodes = (
"249 883 LINE",
"119 883 LINE",
"232 753 LINE",
"331 753 LINE"
);
},
{
closed = 1;
nodes = (
"493 700 LINE",
"73 700 LINE",
"73 0 LINE",
"493 0 LINE",
"493 112 LINE",
"193 112 LINE",
"193 300 LINE",
"493 300 LINE",
"493 412 LINE",
"193 412 LINE",
"193 588 LINE",
"493 588 LINE"
);
}
);
};
components = (
{
name = E;
},
{
name = grave;
transform = "{1, 0, 0, 1, -293, 181}";
}
);
layerId = "9540212F-C873-4039-900D-544C1C7D2862";
width = 434;
}
);
leftKerningGroup = I;
rightKerningGroup = E;
unicode = 00C8;
},
{
glyphname = Emacron;
lastChange = "2018-03-01 10:01:57 +0000";
layers = (
{
background = {
paths = (
{
closed = 1;
nodes = (
"422 846 LINE",
"141 846 LINE",
"141 774 LINE",
"422 774 LINE"
);
},
{
closed = 1;
nodes = (
"493 700 LINE",
"73 700 LINE",
"73 0 LINE",
"493 0 LINE",
"493 112 LINE",
"193 112 LINE",
"193 300 LINE",
"493 300 LINE",
"493 412 LINE",
"193 412 LINE",
"193 588 LINE",
"493 588 LINE"
);
}
);
};
components = (
{
name = E;
},
{
name = macron;
transform = "{1, 0, 0, 1, -123, 170}";
}
);
layerId = "9540212F-C873-4039-900D-544C1C7D2862";
width = 434;
}
);
leftKerningGroup = I;
rightKerningGroup = E;
unicode = 0112;
},
{
glyphname = Eogonek;
lastChange = "2018-03-01 10:01:57 +0000";
layers = (
{
background = {
paths = (
{
closed = 1;
nodes = (
"493 588 LINE",
"493 700 LINE",
"73 700 LINE",
"73 0 LINE",
"330 0 LINE",
"296 -24 OFFCURVE",
"259 -69 OFFCURVE",
"259 -117 CURVE SMOOTH",
"259 -149 OFFCURVE",
"270 -171 OFFCURVE",
"289 -184 CURVE SMOOTH",
"308 -197 OFFCURVE",
"331 -203 OFFCURVE",
"358 -203 CURVE SMOOTH",
"389 -203 OFFCURVE",
"437 -193 OFFCURVE",
"491 -150 CURVE",
"456 -98 LINE",
"423 -117 OFFCURVE",
"399 -127 OFFCURVE",
"379 -124 CURVE SMOOTH",
"364 -122 OFFCURVE",
"352 -117 OFFCURVE",
"352 -98 CURVE SMOOTH",
"352 -73 OFFCURVE",
"407 -31 OFFCURVE",
"450 0 CURVE",
"493 0 LINE",
"493 112 LINE",
"193 112 LINE",
"193 300 LINE",
"493 300 LINE",
"493 412 LINE",
"193 412 LINE",
"193 588 LINE"
);
}
);
};
components = (
{
name = E;
},
{
alignment = -1;
name = ogonek.case;
transform = "{1, 0, 0, 1, 217, 0}";
}
);
layerId = "9540212F-C873-4039-900D-544C1C7D2862";
width = 434;
}
);
leftKerningGroup = I;
rightKerningGroup = E;
unicode = 0118;
},
{
glyphname = F;
lastChange = "2018-03-01 10:01:57 +0000";
layers = (
{
background = {
paths = (
{
closed = 1;
nodes = (
"493 700 LINE",
"73 700 LINE",
"73 0 LINE",
"193 0 LINE",
"193 300 LINE",
"493 300 LINE",
"493 412 LINE",
"193 412 LINE",
"193 588 LINE",
"493 588 LINE"
);
}
);
};
guideLines = (
{
angle = 90;
position = "{427, 112}";
},
{
position = "{427, 300}";
},
{
position = "{427, 412}";
}
);
layerId = "9540212F-C873-4039-900D-544C1C7D2862";
leftMetricsKey = "=I";
rightMetricsKey = "=I";
paths = (
{
closed = 1;
nodes = (
"398 510 LINE",
"398 702 LINE",
"36 702 LINE",
"36 0 LINE",
"228 0 LINE",
"228 340 LINE",
"398 340 LINE",
"398 362 LINE",
"228 362 LINE",
"228 510 LINE"
);
},
{
closed = 1;
nodes = (
"206 532 LINE",
"206 22 LINE",
"58 22 LINE",
"58 680 LINE",
"376 680 LINE",
"376 532 LINE"
);
}
);
width = 434;
}
);
leftMetricsKey = I;
rightMetricsKey = I;
unicode = 0046;
},
{
glyphname = G;
lastChange = "2018-03-01 10:01:57 +0000";
layers = (
{
anchors = (
{
name = bottom;
position = "{206, 0}";
},
{
name = top;
position = "{206, 702}";
}
);
background = {
paths = (
{
closed = 1;
nodes = (
"371 369 LINE",
"371 257 LINE",
"522.245 257 LINE",
"503.353 158.623 OFFCURVE",
"444.92 96 OFFCURVE",
"348 96 CURVE SMOOTH",
"228 96 OFFCURVE",
"169 192 OFFCURVE",
"169 333 CURVE SMOOTH",
"169 365 LINE SMOOTH",
"169 505 OFFCURVE",
"228 604 OFFCURVE",
"348 604 CURVE SMOOTH",
"431 604 OFFCURVE",
"485 557 OFFCURVE",
"511 482 CURVE",
"628 516 LINE",
"585 641 OFFCURVE",
"478 716 OFFCURVE",
"349 716 CURVE SMOOTH",
"179 716 OFFCURVE",
"49 588 OFFCURVE",
"49 386 CURVE SMOOTH",
"49 315 LINE SMOOTH",
"49 113 OFFCURVE",
"179 -16 OFFCURVE",
"349 -16 CURVE SMOOTH",
"518 -16 OFFCURVE",
"649 113 OFFCURVE",
"649 315 CURVE SMOOTH",
"649 369 LINE"
);
}
);
};
guideLines = (
{
position = "{845, 716}";
},
{
position = "{854, 604}";
},
{
angle = 16;
position = "{2, 350}";
},
{
position = "{929, 369}";
},
{
position = "{902, 257}";
},
{
position = "{-105, 690}";
}
);
layerId = "9540212F-C873-4039-900D-544C1C7D2862";
leftMetricsKey = "=I";
rightMetricsKey = "=I";
paths = (
{
closed = 1;
nodes = (
"58 510 LINE",
"568 510 LINE",
"568 702 LINE",
"36 702 LINE",
"36 0 LINE",
"568 0 LINE",
"568 362 LINE",
"206 362 LINE",
"206 192 LINE",
"58 192 LINE"
);
},
{
closed = 1;
nodes = (
"58 680 LINE",
"546 680 LINE",
"546 532 LINE",
"58 532 LINE"
);
},
{
closed = 1;
nodes = (
"398 170 LINE",
"398 192 LINE",
"228 192 LINE",
"228 340 LINE",
"546 340 LINE",
"546 22 LINE",
"58 22 LINE",
"58 170 LINE"
);
}
);
width = 604;
}
);
leftMetricsKey = I;
rightMetricsKey = I;
unicode = 0047;
},
{
glyphname = Gbreve;
lastChange = "2018-03-01 10:01:57 +0000";
layers = (
{
background = {
paths = (
{
closed = 1;
nodes = (
"374 763 LINE SMOOTH",
"404 763 OFFCURVE",
"435 773 OFFCURVE",
"455 796 CURVE SMOOTH",
"474 818 OFFCURVE",
"484 859 OFFCURVE",
"484 893 CURVE",
"409 893 LINE",
"409 867 OFFCURVE",
"394 831 OFFCURVE",
"361 831 CURVE SMOOTH",
"336 831 LINE SMOOTH",
"302 831 OFFCURVE",
"288 867 OFFCURVE",
"288 893 CURVE",
"213 893 LINE",
"213 859 OFFCURVE",
"222 818 OFFCURVE",
"243 796 CURVE",
"262 773 OFFCURVE",
"293 763 OFFCURVE",
"323 763 CURVE SMOOTH"
);
},
{
closed = 1;
nodes = (
"371 369 LINE",
"371 257 LINE",
"522.245 257 LINE",
"503.353 158.623 OFFCURVE",
"444.92 96 OFFCURVE",
"348 96 CURVE SMOOTH",
"228 96 OFFCURVE",
"169 192 OFFCURVE",
"169 333 CURVE SMOOTH",
"169 365 LINE SMOOTH",
"169 505 OFFCURVE",
"228 604 OFFCURVE",
"348 604 CURVE SMOOTH",
"431 604 OFFCURVE",
"485 557 OFFCURVE",
"511 482 CURVE",
"628 516 LINE",
"585 641 OFFCURVE",
"478 716 OFFCURVE",
"349 716 CURVE SMOOTH",
"179 716 OFFCURVE",
"49 588 OFFCURVE",
"49 386 CURVE SMOOTH",
"49 315 LINE SMOOTH",
"49 113 OFFCURVE",
"179 -16 OFFCURVE",
"349 -16 CURVE SMOOTH",
"518 -16 OFFCURVE",
"649 113 OFFCURVE",
"649 315 CURVE SMOOTH",
"649 369 LINE"
);
}
);
};
components = (
{
name = G;
},
{
name = breve;
transform = "{1, 0, 0, 1, 47, 181}";
}
);
layerId = "9540212F-C873-4039-900D-544C1C7D2862";
width = 604;
}
);
leftKerningGroup = O;
rightKerningGroup = O;
unicode = 011E;
},
{
glyphname = Gcircumflex;
lastChange = "2018-03-01 10:01:57 +0000";
layers = (
{
background = {
paths = (
{
closed = 1;
nodes = (
"348 833 LINE",
"397 763 LINE",
"499 763 LINE",
"398 893 LINE",
"299 893 LINE",
"198 763 LINE",
"299 763 LINE"
);
},
{
closed = 1;
nodes = (
"371 369 LINE",
"371 257 LINE",
"522.245 257 LINE",
"503.353 158.623 OFFCURVE",
"444.92 96 OFFCURVE",
"348 96 CURVE SMOOTH",
"228 96 OFFCURVE",
"169 192 OFFCURVE",
"169 333 CURVE SMOOTH",
"169 365 LINE SMOOTH",
"169 505 OFFCURVE",
"228 604 OFFCURVE",
"348 604 CURVE SMOOTH",
"431 604 OFFCURVE",
"485 557 OFFCURVE",
"511 482 CURVE",
"628 516 LINE",
"585 641 OFFCURVE",
"478 716 OFFCURVE",
"349 716 CURVE SMOOTH",
"179 716 OFFCURVE",
"49 588 OFFCURVE",
"49 386 CURVE SMOOTH",
"49 315 LINE SMOOTH",
"49 113 OFFCURVE",
"179 -16 OFFCURVE",
"349 -16 CURVE SMOOTH",
"518 -16 OFFCURVE",
"649 113 OFFCURVE",
"649 315 CURVE SMOOTH",
"649 369 LINE"
);
}
);
};
components = (
{
name = G;
},
{
name = circumflex;
transform = "{1, 0, 0, 1, 47, 181}";
}
);
layerId = "9540212F-C873-4039-900D-544C1C7D2862";
width = 604;
}
);
leftKerningGroup = O;
rightKerningGroup = O;
unicode = 011C;
},
{
glyphname = Gcommaaccent;
lastChange = "2018-03-01 10:27:51 +0000";
layers = (
{
background = {
paths = (
{
closed = 1;
nodes = (
"371 369 LINE",
"371 257 LINE",
"522.245 257 LINE",
"503.353 158.623 OFFCURVE",
"444.92 96 OFFCURVE",
"348 96 CURVE SMOOTH",
"228 96 OFFCURVE",
"169 192 OFFCURVE",
"169 333 CURVE SMOOTH",
"169 365 LINE SMOOTH",
"169 505 OFFCURVE",
"228 604 OFFCURVE",
"348 604 CURVE SMOOTH",
"431 604 OFFCURVE",
"485 557 OFFCURVE",
"511 482 CURVE",
"628 516 LINE",
"585 641 OFFCURVE",
"478 716 OFFCURVE",
"349 716 CURVE SMOOTH",
"179 716 OFFCURVE",
"49 588 OFFCURVE",
"49 386 CURVE SMOOTH",
"49 315 LINE SMOOTH",
"49 113 OFFCURVE",
"179 -16 OFFCURVE",
"349 -16 CURVE SMOOTH",
"518 -16 OFFCURVE",
"649 113 OFFCURVE",
"649 315 CURVE SMOOTH",
"649 369 LINE"
);
},
{
closed = 1;
nodes = (
"269 -176 LINE",
"328 -176 LINE",
"296 -268 LINE",
"359 -268 LINE",
"391 -176 LINE",
"391 -58 LINE",
"269 -58 LINE"
);
}
);
};
components = (
{
alignment = -1;
name = G;
},
{
locked = 1;
name = commaaccent;
transform = "{1, 0, 0, 1, 31, 0}";
}
);
layerId = "9540212F-C873-4039-900D-544C1C7D2862";
leftMetricsKey = "=G";
rightMetricsKey = "=G";
width = 604;
}
);
leftKerningGroup = O;
leftMetricsKey = G;
rightKerningGroup = O;
rightMetricsKey = G;
unicode = 0122;
},
{
glyphname = Gdotaccent;
lastChange = "2018-03-01 10:01:57 +0000";
layers = (
{
background = {
paths = (
{
closed = 1;
nodes = (
"408 888 LINE",
"290 888 LINE",
"290 768 LINE",
"408 768 LINE"
);
},
{
closed = 1;
nodes = (
"371 369 LINE",
"371 257 LINE",
"522.245 257 LINE",
"503.353 158.623 OFFCURVE",
"444.92 96 OFFCURVE",
"348 96 CURVE SMOOTH",
"228 96 OFFCURVE",
"169 192 OFFCURVE",
"169 333 CURVE SMOOTH",
"169 365 LINE SMOOTH",
"169 505 OFFCURVE",
"228 604 OFFCURVE",
"348 604 CURVE SMOOTH",
"431 604 OFFCURVE",
"485 557 OFFCURVE",
"511 482 CURVE",
"628 516 LINE",
"585 641 OFFCURVE",
"478 716 OFFCURVE",
"349 716 CURVE SMOOTH",
"179 716 OFFCURVE",
"49 588 OFFCURVE",
"49 386 CURVE SMOOTH",
"49 315 LINE SMOOTH",
"49 113 OFFCURVE",
"179 -16 OFFCURVE",
"349 -16 CURVE SMOOTH",
"518 -16 OFFCURVE",
"649 113 OFFCURVE",
"649 315 CURVE SMOOTH",
"649 369 LINE"
);
}
);
};
components = (
{
name = G;
},
{
name = dotaccent;
transform = "{1, 0, 0, 1, 47, 170}";
}
);
layerId = "9540212F-C873-4039-900D-544C1C7D2862";
width = 604;
}
);
leftKerningGroup = O;
rightKerningGroup = O;
unicode = 0120;
},
{
glyphname = H;
lastChange = "2018-03-01 10:01:57 +0000";
layers = (
{
anchors = (
{
name = top;
position = "{206, 702}";
}
);
background = {
paths = (
{
closed = 1;
nodes = (
"583 700 LINE",
"463 700 LINE",
"463 412 LINE",
"193 412 LINE",
"193 700 LINE",
"73 700 LINE",
"73 0 LINE",
"193 0 LINE",
"193 300 LINE",
"463 300 LINE",
"463 0 LINE",
"583 0 LINE"
);
}
);
};
guideLines = (
{
position = "{437, 300}";
},
{
position = "{437, 412}";
},
{
position = "{17, 680}";
}
);
layerId = "9540212F-C873-4039-900D-544C1C7D2862";
leftMetricsKey = "=I";
rightMetricsKey = "=I";
paths = (
{
closed = 1;
nodes = (
"376 702 LINE",
"376 362 LINE",
"228 362 LINE",
"228 702 LINE",
"36 702 LINE",
"36 0 LINE",
"228 0 LINE",
"228 340 LINE",
"376 340 LINE",
"376 0 LINE",
"568 0 LINE",
"568 702 LINE"
);
},
{
closed = 1;
nodes = (
"206 22 LINE",
"58 22 LINE",
"58 680 LINE",
"206 680 LINE"
);
},
{
closed = 1;
nodes = (
"546 22 LINE",
"398 22 LINE",
"398 680 LINE",
"546 680 LINE"
);
}
);
width = 604;
}
);
leftMetricsKey = I;
rightMetricsKey = I;
unicode = 0048;
},
{
glyphname = Hbar;
lastChange = "2018-03-01 10:01:57 +0000";
layers = (
{
background = {
paths = (
{
closed = 1;
nodes = (
"622 582 LINE",
"581 582 LINE",
"581 700 LINE",
"461 700 LINE",
"461 582 LINE",
"191 582 LINE",
"191 700 LINE",
"71 700 LINE",
"71 582 LINE",
"29 582 LINE",
"29 507 LINE",
"71 507 LINE",
"71 0 LINE",
"191 0 LINE",
"191 300 LINE",
"461 300 LINE",
"461 0 LINE",
"581 0 LINE",
"581 507 LINE",
"622 507 LINE"
);
},
{
closed = 1;
nodes = (
"461 412 LINE",
"191 412 LINE",
"191 507 LINE",
"461 507 LINE"
);
}
);
};
layerId = "9540212F-C873-4039-900D-544C1C7D2862";
leftMetricsKey = "=I";
rightMetricsKey = "=I";
paths = (
{
closed = 1;
nodes = (
"376 702 LINE",
"376 532 LINE",
"228 532 LINE",
"228 702 LINE",
"36 702 LINE",
"36 0 LINE",
"228 0 LINE",
"228 340 LINE",
"376 340 LINE",
"376 0 LINE",
"568 0 LINE",
"568 702 LINE"
);
},
{
closed = 1;
nodes = (
"206 22 LINE",
"58 22 LINE",
"58 680 LINE",
"206 680 LINE"
);
},
{
closed = 1;
nodes = (
"546 22 LINE",
"398 22 LINE",
"398 680 LINE",
"546 680 LINE"
);
},
{
closed = 1;
nodes = (
"228 362 LINE",
"228 510 LINE",
"376 510 LINE",
"376 362 LINE"
);
}
);
width = 604;
}
);
leftKerningGroup = I;
leftMetricsKey = I;
rightKerningGroup = I;
rightMetricsKey = I;
unicode = 0126;
},
{
glyphname = Hcircumflex;
lastChange = "2018-03-01 10:01:57 +0000";
layers = (
{
background = {
paths = (
{
closed = 1;
nodes = (
"377 883 LINE",
"278 883 LINE",
"177 753 LINE",
"278 753 LINE",
"327 823 LINE",
"376 753 LINE",
"478 753 LINE"
);
},
{
closed = 1;
nodes = (
"583 700 LINE",
"463 700 LINE",
"463 412 LINE",
"193 412 LINE",
"193 700 LINE",
"73 700 LINE",
"73 0 LINE",
"193 0 LINE",
"193 300 LINE",
"463 300 LINE",
"463 0 LINE",
"583 0 LINE"
);
}
);
};
components = (
{
name = H;
},
{
name = circumflex;
transform = "{1, 0, 0, 1, 47, 181}";
}
);
layerId = "9540212F-C873-4039-900D-544C1C7D2862";
width = 604;
}
);
leftKerningGroup = I;
rightKerningGroup = I;
unicode = 0124;
},
{
glyphname = I;
lastChange = "2018-03-01 10:01:57 +0000";
layers = (
{
anchors = (
{
name = ogonek;
position = "{36, 0}";
},
{
name = top;
position = "{36, 702}";
}
);
background = {
paths = (
{
closed = 1;
nodes = (
"193 700 LINE",
"73 700 LINE",
"73 0 LINE",
"193 0 LINE"
);
}
);
};
guideLines = (
{
position = "{42, 680}";
}
);
layerId = "9540212F-C873-4039-900D-544C1C7D2862";
paths = (
{
closed = 1;
nodes = (
"228 0 LINE",
"228 702 LINE",
"36 702 LINE",
"36 0 LINE"
);
},
{
closed = 1;
nodes = (
"206 22 LINE",
"58 22 LINE",
"58 680 LINE",
"206 680 LINE"
);
}
);
width = 264;
}
);
unicode = 0049;
},
{
glyphname = Iacute;
lastChange = "2018-03-01 10:01:57 +0000";
layers = (
{
background = {
paths = (
{
closed = 1;
nodes = (
"295 883 LINE",
"165 883 LINE",
"83 753 LINE",
"182 753 LINE"
);
},
{
closed = 1;
nodes = (
"193 700 LINE",
"73 700 LINE",
"73 0 LINE",
"193 0 LINE"
);
}
);
};
components = (
{
name = I;
},
{
name = acute;
transform = "{1, 0, 0, 1, -123, 181}";
}
);
layerId = "9540212F-C873-4039-900D-544C1C7D2862";
width = 264;
}
);
leftKerningGroup = I;
rightKerningGroup = I;
unicode = 00CD;
},
{
glyphname = Ibreve;
lastChange = "2018-03-01 10:01:57 +0000";
layers = (
{
background = {
paths = (
{
closed = 1;
nodes = (
"193 883 LINE",
"193 857 OFFCURVE",
"178 821 OFFCURVE",
"145 821 CURVE SMOOTH",
"120 821 LINE SMOOTH",
"86 821 OFFCURVE",
"72 857 OFFCURVE",
"72 883 CURVE",
"-3 883 LINE",
"-3 849 OFFCURVE",
"6 808 OFFCURVE",
"27 786 CURVE",
"46 763 OFFCURVE",
"77 753 OFFCURVE",
"107 753 CURVE SMOOTH",
"158 753 LINE SMOOTH",
"188 753 OFFCURVE",
"219 763 OFFCURVE",
"239 786 CURVE SMOOTH",
"258 808 OFFCURVE",
"268 849 OFFCURVE",
"268 883 CURVE"
);
},
{
closed = 1;
nodes = (
"193 700 LINE",
"73 700 LINE",
"73 0 LINE",
"193 0 LINE"
);
}
);
};
components = (
{
name = I;
},
{
name = breve;
transform = "{1, 0, 0, 1, -123, 181}";
}
);
layerId = "9540212F-C873-4039-900D-544C1C7D2862";
width = 264;
}
);
leftKerningGroup = I;
rightKerningGroup = I;
unicode = 012C;
},
{
glyphname = Icircumflex;
lastChange = "2018-03-01 10:01:57 +0000";
layers = (
{
background = {
paths = (
{
closed = 1;
nodes = (
"182 883 LINE",
"83 883 LINE",
"-18 753 LINE",
"83 753 LINE",
"132 823 LINE",
"181 753 LINE",
"283 753 LINE"
);
},
{
closed = 1;
nodes = (
"193 700 LINE",
"73 700 LINE",
"73 0 LINE",
"193 0 LINE"
);
}
);
};
components = (
{
name = I;
},
{
name = circumflex;
transform = "{1, 0, 0, 1, -123, 181}";
}
);
layerId = "9540212F-C873-4039-900D-544C1C7D2862";
width = 264;
}
);
leftKerningGroup = I;
rightKerningGroup = I;
unicode = 00CE;
},
{
glyphname = Idieresis;
lastChange = "2018-03-01 10:01:57 +0000";
layers = (
{
background = {
paths = (
{
closed = 1;
nodes = (
"84 883 LINE",
"-21 883 LINE",
"-21 776 LINE",
"84 776 LINE"
);
},
{
closed = 1;
nodes = (
"287 883 LINE",
"182 883 LINE",
"182 776 LINE",
"287 776 LINE"
);
},
{
closed = 1;
nodes = (
"193 700 LINE",
"73 700 LINE",
"73 0 LINE",
"193 0 LINE"
);
}
);
};
components = (
{
name = I;
},
{
name = dieresis;
transform = "{1, 0, 0, 1, -123, 181}";
}
);
layerId = "9540212F-C873-4039-900D-544C1C7D2862";
width = 264;
}
);
leftKerningGroup = I;
rightKerningGroup = I;
unicode = 00CF;
},
{
glyphname = Idotaccent;
lastChange = "2018-03-01 10:01:57 +0000";
layers = (
{
background = {
paths = (
{
closed = 1;
nodes = (
"192 878 LINE",
"74 878 LINE",
"74 758 LINE",
"192 758 LINE"
);
},
{
closed = 1;
nodes = (
"193 700 LINE",
"73 700 LINE",
"73 0 LINE",
"193 0 LINE"
);
}
);
};
components = (
{
name = I;
},
{
name = dotaccent;
transform = "{1, 0, 0, 1, -123, 170}";
}
);
layerId = "9540212F-C873-4039-900D-544C1C7D2862";
width = 264;
}
);
leftKerningGroup = I;
rightKerningGroup = I;
unicode = 0130;
},
{
glyphname = Igrave;
lastChange = "2018-03-01 10:01:57 +0000";
layers = (
{
background = {
paths = (
{
closed = 1;
nodes = (
"100 883 LINE",
"-30 883 LINE",
"83 753 LINE",
"182 753 LINE"
);
},
{
closed = 1;
nodes = (
"193 700 LINE",
"73 700 LINE",
"73 0 LINE",
"193 0 LINE"
);
}
);
};
components = (
{
name = I;
},
{
name = grave;
transform = "{1, 0, 0, 1, -293, 181}";
}
);
layerId = "9540212F-C873-4039-900D-544C1C7D2862";
width = 264;
}
);
leftKerningGroup = I;
rightKerningGroup = I;
unicode = 00CC;
},
{
glyphname = Imacron;
lastChange = "2018-03-01 10:01:57 +0000";
layers = (
{
background = {
paths = (
{
closed = 1;
nodes = (
"273 846 LINE",
"-8 846 LINE",
"-8 774 LINE",
"273 774 LINE"
);
},
{
closed = 1;
nodes = (
"193 700 LINE",
"73 700 LINE",
"73 0 LINE",
"193 0 LINE"
);
}
);
};
components = (
{
name = I;
},
{
name = macron;
transform = "{1, 0, 0, 1, -123, 170}";
}
);
layerId = "9540212F-C873-4039-900D-544C1C7D2862";
width = 264;
}
);
leftKerningGroup = I;
rightKerningGroup = I;
unicode = 012A;
},
{
glyphname = Iogonek;
lastChange = "2018-03-01 10:01:57 +0000";
layers = (
{
background = {
paths = (
{
closed = 1;
nodes = (
"199 -98 LINE",
"166 -117 OFFCURVE",
"142 -127 OFFCURVE",
"122 -124 CURVE SMOOTH",
"107 -122 OFFCURVE",
"95 -117 OFFCURVE",
"95 -98 CURVE SMOOTH",
"95 -73 OFFCURVE",
"150 -31 OFFCURVE",
"193 0 CURVE",
"193 700 LINE",
"73 700 LINE",
"73 0 LINE",
"39 -24 OFFCURVE",
"2 -69 OFFCURVE",
"2 -117 CURVE SMOOTH",
"2 -149 OFFCURVE",
"13 -171 OFFCURVE",
"32 -184 CURVE SMOOTH",
"51 -197 OFFCURVE",
"74 -203 OFFCURVE",
"101 -203 CURVE SMOOTH",
"132 -203 OFFCURVE",
"180 -193 OFFCURVE",
"234 -150 CURVE"
);
}
);
};
components = (
{
name = I;
},
{
name = ogonek.case;
transform = "{1, 0, 0, 1, 47, 0}";
}
);
layerId = "9540212F-C873-4039-900D-544C1C7D2862";
width = 264;
}
);
leftKerningGroup = I;
rightKerningGroup = I;
unicode = 012E;
},
{
glyphname = Itilde;
lastChange = "2018-03-01 10:01:57 +0000";
layers = (
{
background = {
paths = (
{
closed = 1;
nodes = (
"238 882 LINE",
"213 844 OFFCURVE",
"205 839 OFFCURVE",
"187 839 CURVE SMOOTH",
"179 839 OFFCURVE",
"171 840 OFFCURVE",
"153 852 CURVE",
"110 874 OFFCURVE",
"97 876 OFFCURVE",
"80 876 CURVE SMOOTH",
"47 876 OFFCURVE",
"-9 843 OFFCURVE",
"-26 792 CURVE",
"33 757 LINE",
"51 790 OFFCURVE",
"61 798 OFFCURVE",
"80 798 CURVE SMOOTH",
"93 798 OFFCURVE",
"99 796 OFFCURVE",
"131 780 CURVE",
"155 766 OFFCURVE",
"171 761 OFFCURVE",
"188 761 CURVE SMOOTH",
"221 761 OFFCURVE",
"265 785 OFFCURVE",
"292 838 CURVE"
);
},
{
closed = 1;
nodes = (
"193 700 LINE",
"73 700 LINE",
"73 0 LINE",
"193 0 LINE"
);
}
);
};
components = (
{
name = I;
},
{
name = tilde;
transform = "{1, 0, 0, 1, -123, 170}";
}
);
layerId = "9540212F-C873-4039-900D-544C1C7D2862";
width = 264;
}
);
leftKerningGroup = I;
rightKerningGroup = I;
unicode = 0128;
},
{
glyphname = J;
lastChange = "2018-03-01 10:01:57 +0000";
layers = (
{
anchors = (
{
name = top;
position = "{206, 702}";
}
);
background = {
paths = (
{
closed = 1;
nodes = (
"388 700 LINE",
"268 700 LINE",
"268 233 LINE SMOOTH",
"268 132 OFFCURVE",
"258 96 OFFCURVE",
"193 96 CURVE SMOOTH",
"152 96 OFFCURVE",
"133 125 OFFCURVE",
"124 172 CURVE",
"4 154 LINE",
"23 49 OFFCURVE",
"93 -16 OFFCURVE",
"193 -16 CURVE SMOOTH",
"311 -16 OFFCURVE",
"388 43 OFFCURVE",
"388 215 CURVE SMOOTH"
);
}
);
};
layerId = "9540212F-C873-4039-900D-544C1C7D2862";
leftMetricsKey = "=I";
rightMetricsKey = "=I";
paths = (
{
closed = 1;
nodes = (
"398 702 LINE",
"206 702 LINE",
"206 192 LINE",
"36 192 LINE",
"36 0 LINE",
"398 0 LINE"
);
},
{
closed = 1;
nodes = (
"376 680 LINE",
"376 22 LINE",
"58 22 LINE",
"58 170 LINE",
"228 170 LINE",
"228 680 LINE"
);
}
);
width = 434;
}
);
leftKerningGroup = J;
leftMetricsKey = I;
rightMetricsKey = I;
unicode = 004A;
},
{
glyphname = Jcircumflex;
lastChange = "2018-03-01 10:01:57 +0000";
layers = (
{
background = {
paths = (
{
closed = 1;
nodes = (
"377 883 LINE",
"278 883 LINE",
"177 753 LINE",
"278 753 LINE",
"327 823 LINE",
"376 753 LINE",
"478 753 LINE"
);
},
{
closed = 1;
nodes = (
"388 700 LINE",
"268 700 LINE",
"268 233 LINE SMOOTH",
"268 132 OFFCURVE",
"258 96 OFFCURVE",
"193 96 CURVE SMOOTH",
"152 96 OFFCURVE",
"133 125 OFFCURVE",
"124 172 CURVE",
"4 154 LINE",
"23 49 OFFCURVE",
"93 -16 OFFCURVE",
"193 -16 CURVE SMOOTH",
"311 -16 OFFCURVE",
"388 43 OFFCURVE",
"388 215 CURVE SMOOTH"
);
}
);
};
components = (
{
name = J;
},
{
name = circumflex;
transform = "{1, 0, 0, 1, 47, 181}";
}
);
layerId = "9540212F-C873-4039-900D-544C1C7D2862";
width = 434;
}
);
leftKerningGroup = J;
rightKerningGroup = U;
unicode = 0134;
},
{
glyphname = K;
lastChange = "2018-03-01 10:01:57 +0000";
layers = (
{
anchors = (
{
name = bottom;
position = "{206, 0}";
},
{
name = top;
position = "{283, 680}";
}
);
background = {
paths = (
{
closed = 1;
nodes = (
"582 700 LINE",
"439 700 LINE",
"193 391 LINE",
"193 700 LINE",
"73 700 LINE",
"73 0 LINE",
"193 0 LINE",
"193 212 LINE",
"277 318 LINE",
"468 0 LINE",
"598 0 LINE",
"351 411 LINE"
);
}
);
};
layerId = "9540212F-C873-4039-900D-544C1C7D2862";
paths = (
{
closed = 1;
nodes = (
"398 192 LINE",
"398 680 LINE",
"568 680 LINE",
"568 702 LINE",
"376 702 LINE",
"376 532 LINE",
"228 532 LINE",
"228 702 LINE",
"36 702 LINE",
"36 0 LINE",
"228 0 LINE",
"228 170 LINE",
"376 170 LINE",
"376 0 LINE",
"568 0 LINE",
"568 192 LINE"
);
},
{
closed = 1;
nodes = (
"206 22 LINE",
"58 22 LINE",
"58 680 LINE",
"206 680 LINE"
);
},
{
closed = 1;
nodes = (
"228 192 LINE",
"228 510 LINE",
"376 510 LINE",
"376 192 LINE"
);
},
{
closed = 1;
nodes = (
"546 22 LINE",
"398 22 LINE",
"398 170 LINE",
"546 170 LINE"
);
}
);
width = 598;
}
);
unicode = 004B;
},
{
glyphname = Kcommaaccent;
lastChange = "2018-03-01 10:01:57 +0000";
layers = (
{
background = {
paths = (
{
closed = 1;
nodes = (
"351 411 LINE",
"582 700 LINE",
"439 700 LINE",
"193 391 LINE",
"193 700 LINE",
"73 700 LINE",
"73 0 LINE",
"193 0 LINE",
"193 212 LINE",
"277 318 LINE",
"468 0 LINE",
"598 0 LINE"
);
},
{
closed = 1;
nodes = (
"255 -176 LINE",
"314 -176 LINE",
"282 -268 LINE",
"345 -268 LINE",
"377 -176 LINE",
"377 -58 LINE",
"255 -58 LINE"
);
}
);
};
components = (
{
name = K;
},
{
name = commaaccent;
transform = "{1, 0, 0, 1, -156, 0}";
}
);
layerId = "9540212F-C873-4039-900D-544C1C7D2862";
width = 598;
}
);
leftKerningGroup = I;
rightKerningGroup = K;
unicode = 0136;
},
{
glyphname = L;
lastChange = "2018-03-01 10:01:57 +0000";
layers = (
{
anchors = (
{
name = bottom;
position = "{206, 0}";
},
{
name = top;
position = "{36, 702}";
}
);
background = {
paths = (
{
closed = 1;
nodes = (
"193 700 LINE",
"73 700 LINE",
"73 0 LINE",
"433 0 LINE",
"433 112 LINE",
"193 112 LINE"
);
}
);
};
guideLines = (
{
angle = 90;
position = "{457, 112}";
}
);
layerId = "9540212F-C873-4039-900D-544C1C7D2862";
leftMetricsKey = "=I";
rightMetricsKey = "=I";
paths = (
{
closed = 1;
nodes = (
"398 192 LINE",
"228 192 LINE",
"228 702 LINE",
"36 702 LINE",
"36 0 LINE",
"398 0 LINE"
);
},
{
closed = 1;
nodes = (
"376 170 LINE",
"376 22 LINE",
"58 22 LINE",
"58 680 LINE",
"206 680 LINE",
"206 170 LINE"
);
}
);
width = 434;
}
);
leftMetricsKey = I;
rightKerningGroup = L;
rightMetricsKey = I;
unicode = 004C;
},
{
glyphname = Lacute;
lastChange = "2018-03-01 10:01:57 +0000";
layers = (
{
background = {
paths = (
{
closed = 1;
nodes = (
"295 903 LINE",
"165 903 LINE",
"83 773 LINE",
"182 773 LINE"
);
},
{
closed = 1;
nodes = (
"193 700 LINE",
"73 700 LINE",
"73 0 LINE",
"433 0 LINE",
"433 112 LINE",
"193 112 LINE"
);
}
);
};
components = (
{
name = L;
},
{
name = acute;
transform = "{1, 0, 0, 1, -123, 181}";
}
);
layerId = "9540212F-C873-4039-900D-544C1C7D2862";
width = 434;
}
);
leftKerningGroup = I;
rightKerningGroup = L;
unicode = 0139;
},
{
glyphname = Lcaron;
lastChange = "2018-03-01 10:27:51 +0000";
layers = (
{
background = {
paths = (
{
closed = 1;
nodes = (
"193 700 LINE",
"73 700 LINE",
"73 0 LINE",
"433 0 LINE",
"433 112 LINE",
"193 112 LINE"
);
},
{
closed = 1;
nodes = (
"376 700 LINE",
"265 700 LINE",
"243 545 LINE",
"315 545 LINE"
);
}
);
};
components = (
{
name = L;
}
);
layerId = "9540212F-C873-4039-900D-544C1C7D2862";
leftMetricsKey = "=I";
rightMetricsKey = "=L";
paths = (
{
closed = 1;
nodes = (
"315 -545 LINE",
"243 -545 LINE",
"265 -700 LINE",
"376 -700 LINE"
);
},
{
closed = 1;
nodes = (
"206 702 LINE",
"206 510 LINE",
"228 510 LINE",
"228 510 LINE",
"398 510 LINE",
"398 702 LINE"
);
},
{
closed = 1;
nodes = (
"206 532 LINE",
"228 532 LINE",
"228 680 LINE",
"376 680 LINE",
"376 532 LINE",
"206 532 LINE"
);
}
);
width = 434;
}
);
leftKerningGroup = I;
leftMetricsKey = L;
rightKerningGroup = L;
rightMetricsKey = L;
unicode = 013D;
},
{
glyphname = Lcommaaccent;
lastChange = "2018-03-01 10:01:57 +0000";
layers = (
{
background = {
paths = (
{
closed = 1;
nodes = (
"193 112 LINE",
"193 700 LINE",
"73 700 LINE",
"73 0 LINE",
"433 0 LINE",
"433 112 LINE"
);
},
{
closed = 1;
nodes = (
"192 -176 LINE",
"251 -176 LINE",
"219 -268 LINE",
"282 -268 LINE",
"314 -176 LINE",
"314 -58 LINE",
"192 -58 LINE"
);
}
);
};
components = (
{
name = L;
},
{
name = commaaccent;
transform = "{1, 0, 0, 1, -156, 0}";
}
);
layerId = "9540212F-C873-4039-900D-544C1C7D2862";
width = 434;
}
);
leftKerningGroup = I;
rightKerningGroup = L;
unicode = 013B;
},
{
glyphname = Ldot;
lastChange = "2018-03-01 10:01:57 +0000";
layers = (
{
background = {
paths = (
{
closed = 1;
nodes = (
"193 700 LINE",
"73 700 LINE",
"73 0 LINE",
"433 0 LINE",
"433 112 LINE",
"193 112 LINE"
);
},
{
closed = 1;
nodes = (
"370 384 LINE",
"258 384 LINE",
"258 272 LINE",
"370 272 LINE"
);
}
);
};
components = (
{
name = L;
}
);
layerId = "9540212F-C873-4039-900D-544C1C7D2862";
leftMetricsKey = "=L";
rightMetricsKey = "=L";
paths = (
{
closed = 1;
nodes = (
"228 340 LINE",
"376 340 LINE",
"376 192 LINE",
"228 192 LINE"
);
},
{
closed = 1;
nodes = (
"398 170 LINE",
"398 362 LINE",
"206 362 LINE",
"206 170 LINE"
);
}
);
width = 434;
}
);
leftKerningGroup = I;
leftMetricsKey = L;
rightKerningGroup = L;
rightMetricsKey = L;
unicode = 013F;
},
{
glyphname = Lslash;
lastChange = "2018-03-01 10:01:57 +0000";
layers = (
{
background = {
paths = (
{
closed = 1;
nodes = (
"205 112 LINE",
"205 331.5 LINE",
"322 399 LINE",
"284 464 LINE",
"205 418.713 LINE",
"205 700 LINE",
"85 700 LINE",
"85 349.924 LINE",
"-30 284 LINE",
"10 219 LINE",
"85 262.269 LINE",
"85 0 LINE",
"445 0 LINE",
"445 112 LINE"
);
}
);
};
guideLines = (
{
angle = 90;
position = "{-34, 0}";
},
{
angle = 90;
position = "{73, 105}";
}
);
layerId = "9540212F-C873-4039-900D-544C1C7D2862";
leftMetricsKey = "=i";
rightMetricsKey = "=L";
paths = (
{
closed = 1;
nodes = (
"376 22 LINE",
"217 22 LINE",
"58 22 LINE",
"58 181 LINE",
"58 351 LINE",
"58 521 LINE",
"58 680 LINE",
"206 680 LINE",
"206 521 LINE",
"206 351 LINE",
"206 170 LINE",
"376 170 LINE"
);
},
{
closed = 1;
nodes = (
"228 192 LINE",
"228 351 LINE",
"228 521 LINE",
"228 702 LINE",
"36 702 LINE",
"36 521 LINE",
"36 351 LINE",
"36 181 LINE",
"36 0 LINE",
"217 0 LINE",
"398 0 LINE",
"398 192 LINE"
);
},
{
closed = 1;
nodes = (
"217 340 LINE",
"398 340 LINE",
"398 362 LINE",
"217 362 LINE"
);
},
{
closed = 1;
nodes = (
"217 340 LINE",
"398 340 LINE",
"398 362 LINE",
"217 362 LINE"
);
}
);
width = 434;
}
);
leftKerningGroup = I;
leftMetricsKey = i;
rightKerningGroup = L;
rightMetricsKey = L;
unicode = 0141;
},
{
glyphname = M;
lastChange = "2018-03-01 10:01:57 +0000";
layers = (
{
background = {
paths = (
{
closed = 1;
nodes = (
"736 700 LINE",
"568 700 LINE",
"405 176 LINE",
"241 700 LINE",
"73 700 LINE",
"73 0 LINE",
"190 0 LINE",
"190 510 LINE",
"353 0 LINE",
"456 0 LINE",
"619 510 LINE",
"619 0 LINE",
"736 0 LINE"
);
}
);
};
layerId = "9540212F-C873-4039-900D-544C1C7D2862";
leftMetricsKey = "=I";
rightMetricsKey = "=I";
paths = (
{
closed = 1;
nodes = (
"376 702 LINE",
"376 362 LINE",
"228 362 LINE",
"228 702 LINE",
"36 702 LINE",
"36 0 LINE",
"58 0 LINE",
"58 340 LINE",
"206 340 LINE",
"206 0 LINE",
"398 0 LINE",
"398 340 LINE",
"546 340 LINE",
"546 0 LINE",
"568 0 LINE",
"568 702 LINE"
);
},
{
closed = 1;
nodes = (
"58 680 LINE",
"206 680 LINE",
"206 362 LINE",
"58 362 LINE"
);
},
{
closed = 1;
nodes = (
"546 362 LINE",
"398 362 LINE",
"398 680 LINE",
"546 680 LINE"
);
},
{
closed = 1;
nodes = (
"228 22 LINE",
"228 340 LINE",
"376 340 LINE",
"376 22 LINE"
);
}
);
width = 604;
},
{
associatedMasterId = "9540212F-C873-4039-900D-544C1C7D2862";
layerId = "A458963F-749F-45B3-877B-9130F0EE97AF";
leftMetricsKey = "=I";
rightMetricsKey = "=I";
name = Orginal;
paths = (
{
closed = 1;
nodes = (
"582 700 LINE",
"403 150 LINE",
"223 700 LINE",
"73 700 LINE",
"73 0 LINE",
"193 0 LINE",
"193 483 LINE",
"351 0 LINE",
"454 0 LINE",
"612 483 LINE",
"612 0 LINE",
"732 0 LINE",
"732 700 LINE"
);
}
);
width = 805;
},
{
associatedMasterId = "9540212F-C873-4039-900D-544C1C7D2862";
layerId = "8709A18D-923F-4A80-8F78-04F9E35329BB";
leftMetricsKey = "=I";
rightMetricsKey = "=I";
name = "Regular Mar 15 14, 20:38";
paths = (
{
closed = 1;
nodes = (
"582 700 LINE",
"403 150 LINE",
"223 700 LINE",
"73 700 LINE",
"73 0 LINE",
"193 0 LINE",
"193 483 LINE",
"351 0 LINE",
"454 0 LINE",
"612 483 LINE",
"612 0 LINE",
"732 0 LINE",
"732 700 LINE"
);
}
);
width = 805;
},
{
associatedMasterId = "9540212F-C873-4039-900D-544C1C7D2862";
layerId = "3C0805A8-B0DE-4619-9C01-C33DE9436168";
leftMetricsKey = "=I";
rightMetricsKey = "=I";
name = "Regular Mar 15 14, 20:41";
paths = (
{
closed = 1;
nodes = (
"561 700 LINE",
"403 178 LINE",
"244 700 LINE",
"73 700 LINE",
"73 0 LINE",
"193 0 LINE",
"193 503 LINE",
"351 0 LINE",
"454 0 LINE",
"612 503 LINE",
"612 0 LINE",
"732 0 LINE",
"732 700 LINE"
);
}
);
width = 805;
},
{
associatedMasterId = "9540212F-C873-4039-900D-544C1C7D2862";
layerId = "6ADDD4C0-2DAB-445D-B1DF-83A7BD7DF220";
leftMetricsKey = "=I";
rightMetricsKey = "=I";
name = orginal;
paths = (
{
closed = 1;
nodes = (
"561 700 LINE",
"403 178 LINE",
"244 700 LINE",
"73 700 LINE",
"73 0 LINE",
"193 0 LINE",
"193 503 LINE",
"351 0 LINE",
"454 0 LINE",
"612 503 LINE",
"612 0 LINE",
"732 0 LINE",
"732 700 LINE"
);
}
);
width = 805;
}
);
leftMetricsKey = I;
rightMetricsKey = I;
unicode = 004D;
},
{
glyphname = N;
lastChange = "2018-03-01 10:01:57 +0000";
layers = (
{
anchors = (
{
name = bottom;
position = "{234, 0}";
},
{
name = top;
position = "{206, 702}";
}
);
background = {
paths = (
{
closed = 1;
nodes = (
"582 700 LINE",
"466 700 LINE",
"466 190 LINE",
"220 700 LINE",
"73 700 LINE",
"73 0 LINE",
"188 0 LINE",
"188 511 LINE",
"435 0 LINE",
"582 0 LINE"
);
}
);
};
layerId = "9540212F-C873-4039-900D-544C1C7D2862";
leftMetricsKey = "=I";
rightMetricsKey = "=I";
paths = (
{
closed = 1;
nodes = (
"376 702 LINE",
"376 362 LINE",
"228 362 LINE",
"228 702 LINE",
"36 702 LINE",
"36 0 LINE",
"58 0 LINE",
"58 340 LINE",
"206 340 LINE",
"206 0 LINE",
"568 0 LINE",
"568 702 LINE"
);
},
{
closed = 1;
nodes = (
"58 362 LINE",
"58 680 LINE",
"206 680 LINE",
"206 362 LINE"
);
},
{
closed = 1;
nodes = (
"546 22 LINE",
"228 22 LINE",
"228 340 LINE",
"376 340 LINE",
"378 170 LINE",
"400 170 LINE",
"398 680 LINE",
"546 680 LINE"
);
}
);
width = 604;
},
{
anchors = (
{
name = bottom;
position = "{303, 0}";
},
{
name = top;
position = "{341, 680}";
}
);
associatedMasterId = "9540212F-C873-4039-900D-544C1C7D2862";
layerId = "3E74BE5F-290D-4A23-9ED5-B3355EC55A60";
leftMetricsKey = "=I";
rightMetricsKey = "=I";
name = Orginal;
paths = (
{
closed = 1;
nodes = (
"462 700 LINE",
"462 198 LINE",
"223 700 LINE",
"73 700 LINE",
"73 0 LINE",
"193 0 LINE",
"193 503 LINE",
"432 0 LINE",
"582 0 LINE",
"582 700 LINE"
);
}
);
width = 655;
}
);
leftMetricsKey = I;
rightMetricsKey = I;
unicode = 004E;
},
{
glyphname = Nacute;
lastChange = "2018-03-01 10:01:57 +0000";
layers = (
{
background = {
paths = (
{
closed = 1;
nodes = (
"503 883 LINE",
"373 883 LINE",
"291 753 LINE",
"390 753 LINE"
);
},
{
closed = 1;
nodes = (
"582 700 LINE",
"466 700 LINE",
"466 190 LINE",
"220 700 LINE",
"73 700 LINE",
"73 0 LINE",
"188 0 LINE",
"188 511 LINE",
"435 0 LINE",
"582 0 LINE"
);
}
);
};
components = (
{
name = N;
},
{
name = acute;
transform = "{1, 0, 0, 1, 47, 181}";
}
);
layerId = "9540212F-C873-4039-900D-544C1C7D2862";
width = 604;
}
);
leftKerningGroup = I;
rightKerningGroup = I;
unicode = 0143;
},
{
glyphname = Ncaron;
lastChange = "2018-03-01 10:01:57 +0000";
layers = (
{
background = {
paths = (
{
closed = 1;
nodes = (
"491 883 LINE",
"389 883 LINE",
"340 813 LINE",
"291 883 LINE",
"190 883 LINE",
"291 753 LINE",
"390 753 LINE"
);
},
{
closed = 1;
nodes = (
"582 700 LINE",
"466 700 LINE",
"466 190 LINE",
"220 700 LINE",
"73 700 LINE",
"73 0 LINE",
"188 0 LINE",
"188 511 LINE",
"435 0 LINE",
"582 0 LINE"
);
}
);
};
components = (
{
name = N;
},
{
name = caron;
transform = "{1, 0, 0, 1, 47, 181}";
}
);
layerId = "9540212F-C873-4039-900D-544C1C7D2862";
width = 604;
}
);
leftKerningGroup = I;
rightKerningGroup = I;
unicode = 0147;
},
{
glyphname = Ncommaaccent;
lastChange = "2018-03-01 10:01:57 +0000";
layers = (
{
background = {
paths = (
{
closed = 1;
nodes = (
"466 700 LINE",
"466 190 LINE",
"220 700 LINE",
"73 700 LINE",
"73 0 LINE",
"188 0 LINE",
"188 511 LINE",
"435 0 LINE",
"582 0 LINE",
"582 700 LINE"
);
},
{
closed = 1;
nodes = (
"242 -176 LINE",
"301 -176 LINE",
"269 -268 LINE",
"332 -268 LINE",
"364 -176 LINE",
"364 -58 LINE",
"242 -58 LINE"
);
}
);
};
components = (
{
name = N;
},
{
name = commaaccent;
transform = "{1, 0, 0, 1, -128, 0}";
}
);
layerId = "9540212F-C873-4039-900D-544C1C7D2862";
width = 604;
}
);
leftKerningGroup = I;
rightKerningGroup = I;
unicode = 0145;
},
{
glyphname = Eng;
lastChange = "2018-03-01 10:27:51 +0000";
layers = (
{
background = {
paths = (
{
closed = 1;
nodes = (
"452 700 LINE",
"452 219 LINE",
"223 700 LINE",
"73 700 LINE",
"73 0 LINE",
"193 0 LINE",
"193 503 LINE",
"452 0 LINE",
"452 -28 LINE SMOOTH",
"452 -79 OFFCURVE",
"443 -99 OFFCURVE",
"376 -99 CURVE",
"376 -203 LINE",
"406 -203 LINE SMOOTH",
"533 -203 OFFCURVE",
"572 -130 OFFCURVE",
"572 -29 CURVE SMOOTH",
"572 700 LINE"
);
}
);
};
layerId = "9540212F-C873-4039-900D-544C1C7D2862";
leftMetricsKey = "=I";
rightMetricsKey = "=I";
paths = (
{
closed = 1;
nodes = (
"376 702 LINE",
"376 362 LINE",
"228 362 LINE",
"228 702 LINE",
"36 702 LINE",
"36 0 LINE",
"58 0 LINE",
"58 340 LINE",
"206 340 LINE",
"206 0 LINE",
"376 0 LINE",
"376 -170 LINE",
"568 -170 LINE",
"568 702 LINE"
);
},
{
closed = 1;
nodes = (
"58 362 LINE",
"58 680 LINE",
"206 680 LINE",
"206 362 LINE"
);
},
{
closed = 1;
nodes = (
"546 -148 LINE",
"398 -148 LINE",
"398 22 LINE",
"228 22 LINE",
"228 340 LINE",
"376 340 LINE",
"378 170 LINE",
"400 170 LINE",
"398 680 LINE",
"546 680 LINE"
);
}
);
width = 604;
}
);
leftKerningGroup = I;
leftMetricsKey = I;
rightKerningGroup = I;
rightMetricsKey = I;
unicode = 014A;
},
{
glyphname = Ntilde;
lastChange = "2018-03-01 10:01:57 +0000";
layers = (
{
background = {
paths = (
{
closed = 1;
nodes = (
"446 882 LINE",
"421 844 OFFCURVE",
"413 839 OFFCURVE",
"395 839 CURVE SMOOTH",
"387 839 OFFCURVE",
"379 840 OFFCURVE",
"361 852 CURVE",
"318 874 OFFCURVE",
"305 876 OFFCURVE",
"288 876 CURVE SMOOTH",
"255 876 OFFCURVE",
"199 843 OFFCURVE",
"182 792 CURVE",
"241 757 LINE",
"259 790 OFFCURVE",
"269 798 OFFCURVE",
"288 798 CURVE SMOOTH",
"301 798 OFFCURVE",
"307 796 OFFCURVE",
"339 780 CURVE",
"363 766 OFFCURVE",
"379 761 OFFCURVE",
"396 761 CURVE SMOOTH",
"429 761 OFFCURVE",
"473 785 OFFCURVE",
"500 838 CURVE"
);
},
{
closed = 1;
nodes = (
"582 700 LINE",
"466 700 LINE",
"466 190 LINE",
"220 700 LINE",
"73 700 LINE",
"73 0 LINE",
"188 0 LINE",
"188 511 LINE",
"435 0 LINE",
"582 0 LINE"
);
}
);
};
components = (
{
name = N;
},
{
name = tilde;
transform = "{1, 0, 0, 1, 47, 170}";
}
);
layerId = "9540212F-C873-4039-900D-544C1C7D2862";
width = 604;
}
);
leftKerningGroup = I;
rightKerningGroup = I;
unicode = 00D1;
},
{
glyphname = O;
lastChange = "2018-03-01 10:01:57 +0000";
layers = (
{
anchors = (
{
name = "new anchor";
position = "{-203, 365}";
},
{
name = top;
position = "{206, 702}";
}
);
background = {
paths = (
{
closed = 1;
nodes = (
"179 716 OFFCURVE",
"49 588 OFFCURVE",
"49 386 CURVE SMOOTH",
"49 315 LINE SMOOTH",
"49 113 OFFCURVE",
"179 -16 OFFCURVE",
"349 -16 CURVE SMOOTH",
"518 -16 OFFCURVE",
"649 113 OFFCURVE",
"649 315 CURVE SMOOTH",
"649 386 LINE SMOOTH",
"649 588 OFFCURVE",
"518 716 OFFCURVE",
"349 716 CURVE SMOOTH"
);
},
{
closed = 1;
nodes = (
"468 604 OFFCURVE",
"529 505 OFFCURVE",
"529 365 CURVE SMOOTH",
"529 333 LINE SMOOTH",
"529 192 OFFCURVE",
"468 96 OFFCURVE",
"348 96 CURVE SMOOTH",
"228 96 OFFCURVE",
"169 192 OFFCURVE",
"169 333 CURVE SMOOTH",
"169 365 LINE SMOOTH",
"169 505 OFFCURVE",
"228 604 OFFCURVE",
"348 604 CURVE SMOOTH"
);
}
);
};
guideLines = (
{
position = "{845, 716}";
},
{
position = "{831, -16}";
},
{
position = "{854, 604}";
},
{
position = "{793, 96}";
}
);
hints = (
{
place = "{531, 0}";
}
);
layerId = "9540212F-C873-4039-900D-544C1C7D2862";
leftMetricsKey = "=I";
rightMetricsKey = "=I";
paths = (
{
closed = 1;
nodes = (
"36 702 LINE",
"36 0 LINE",
"568 0 LINE",
"568 702 LINE"
);
},
{
closed = 1;
nodes = (
"58 532 LINE",
"58 680 LINE",
"546 680 LINE",
"546 532 LINE"
);
},
{
closed = 1;
nodes = (
"546 192 LINE",
"58 192 LINE",
"58 510 LINE",
"546 510 LINE"
);
},
{
closed = 1;
nodes = (
"546 22 LINE",
"58 22 LINE",
"58 170 LINE",
"546 170 LINE"
);
}
);
width = 604;
}
);
leftMetricsKey = I;
rightMetricsKey = I;
unicode = 004F;
},
{
glyphname = Oacute;
lastChange = "2018-03-01 10:01:57 +0000";
layers = (
{
background = {
paths = (
{
closed = 1;
nodes = (
"511 893 LINE",
"381 893 LINE",
"299 763 LINE",
"398 763 LINE"
);
},
{
closed = 1;
nodes = (
"179 716 OFFCURVE",
"49 588 OFFCURVE",
"49 386 CURVE SMOOTH",
"49 315 LINE SMOOTH",
"49 113 OFFCURVE",
"179 -16 OFFCURVE",
"349 -16 CURVE SMOOTH",
"518 -16 OFFCURVE",
"649 113 OFFCURVE",
"649 315 CURVE SMOOTH",
"649 386 LINE SMOOTH",
"649 588 OFFCURVE",
"518 716 OFFCURVE",
"349 716 CURVE SMOOTH"
);
},
{
closed = 1;
nodes = (
"468 604 OFFCURVE",
"529 505 OFFCURVE",
"529 365 CURVE SMOOTH",
"529 333 LINE SMOOTH",
"529 192 OFFCURVE",
"468 96 OFFCURVE",
"348 96 CURVE SMOOTH",
"228 96 OFFCURVE",
"169 192 OFFCURVE",
"169 333 CURVE SMOOTH",
"169 365 LINE SMOOTH",
"169 505 OFFCURVE",
"228 604 OFFCURVE",
"348 604 CURVE SMOOTH"
);
}
);
};
components = (
{
name = O;
},
{
name = acute;
transform = "{1, 0, 0, 1, 47, 181}";
}
);
layerId = "9540212F-C873-4039-900D-544C1C7D2862";
width = 604;
}
);
leftKerningGroup = O;
rightKerningGroup = O;
unicode = 00D3;
},
{
glyphname = Obreve;
lastChange = "2018-03-01 10:01:57 +0000";
layers = (
{
background = {
paths = (
{
closed = 1;
nodes = (
"409 893 LINE",
"409 867 OFFCURVE",
"394 831 OFFCURVE",
"361 831 CURVE SMOOTH",
"336 831 LINE SMOOTH",
"302 831 OFFCURVE",
"288 867 OFFCURVE",
"288 893 CURVE",
"213 893 LINE",
"213 859 OFFCURVE",
"222 818 OFFCURVE",
"243 796 CURVE",
"262 773 OFFCURVE",
"293 763 OFFCURVE",
"323 763 CURVE SMOOTH",
"374 763 LINE SMOOTH",
"404 763 OFFCURVE",
"435 773 OFFCURVE",
"455 796 CURVE SMOOTH",
"474 818 OFFCURVE",
"484 859 OFFCURVE",
"484 893 CURVE"
);
},
{
closed = 1;
nodes = (
"179 716 OFFCURVE",
"49 588 OFFCURVE",
"49 386 CURVE SMOOTH",
"49 315 LINE SMOOTH",
"49 113 OFFCURVE",
"179 -16 OFFCURVE",
"349 -16 CURVE SMOOTH",
"518 -16 OFFCURVE",
"649 113 OFFCURVE",
"649 315 CURVE SMOOTH",
"649 386 LINE SMOOTH",
"649 588 OFFCURVE",
"518 716 OFFCURVE",
"349 716 CURVE SMOOTH"
);
},
{
closed = 1;
nodes = (
"468 604 OFFCURVE",
"529 505 OFFCURVE",
"529 365 CURVE SMOOTH",
"529 333 LINE SMOOTH",
"529 192 OFFCURVE",
"468 96 OFFCURVE",
"348 96 CURVE SMOOTH",
"228 96 OFFCURVE",
"169 192 OFFCURVE",
"169 333 CURVE SMOOTH",
"169 365 LINE SMOOTH",
"169 505 OFFCURVE",
"228 604 OFFCURVE",
"348 604 CURVE SMOOTH"
);
}
);
};
components = (
{
name = O;
},
{
name = breve;
transform = "{1, 0, 0, 1, 47, 181}";
}
);
layerId = "9540212F-C873-4039-900D-544C1C7D2862";
width = 604;
}
);
leftKerningGroup = O;
rightKerningGroup = O;
unicode = 014E;
},
{
glyphname = Ocircumflex;
lastChange = "2018-03-01 10:01:57 +0000";
layers = (
{
background = {
paths = (
{
closed = 1;
nodes = (
"398 893 LINE",
"299 893 LINE",
"198 763 LINE",
"299 763 LINE",
"348 833 LINE",
"397 763 LINE",
"499 763 LINE"
);
},
{
closed = 1;
nodes = (
"179 716 OFFCURVE",
"49 588 OFFCURVE",
"49 386 CURVE SMOOTH",
"49 315 LINE SMOOTH",
"49 113 OFFCURVE",
"179 -16 OFFCURVE",
"349 -16 CURVE SMOOTH",
"518 -16 OFFCURVE",
"649 113 OFFCURVE",
"649 315 CURVE SMOOTH",
"649 386 LINE SMOOTH",
"649 588 OFFCURVE",
"518 716 OFFCURVE",
"349 716 CURVE SMOOTH"
);
},
{
closed = 1;
nodes = (
"468 604 OFFCURVE",
"529 505 OFFCURVE",
"529 365 CURVE SMOOTH",
"529 333 LINE SMOOTH",
"529 192 OFFCURVE",
"468 96 OFFCURVE",
"348 96 CURVE SMOOTH",
"228 96 OFFCURVE",
"169 192 OFFCURVE",
"169 333 CURVE SMOOTH",
"169 365 LINE SMOOTH",
"169 505 OFFCURVE",
"228 604 OFFCURVE",
"348 604 CURVE SMOOTH"
);
}
);
};
components = (
{
name = O;
},
{
name = circumflex;
transform = "{1, 0, 0, 1, 47, 181}";
}
);
layerId = "9540212F-C873-4039-900D-544C1C7D2862";
width = 604;
}
);
leftKerningGroup = O;
rightKerningGroup = O;
unicode = 00D4;
},
{
glyphname = Odieresis;
lastChange = "2018-03-01 10:01:57 +0000";
layers = (
{
background = {
paths = (
{
closed = 1;
nodes = (
"300 893 LINE",
"195 893 LINE",
"195 786 LINE",
"300 786 LINE"
);
},
{
closed = 1;
nodes = (
"503 893 LINE",
"398 893 LINE",
"398 786 LINE",
"503 786 LINE"
);
},
{
closed = 1;
nodes = (
"179 716 OFFCURVE",
"49 588 OFFCURVE",
"49 386 CURVE SMOOTH",
"49 315 LINE SMOOTH",
"49 113 OFFCURVE",
"179 -16 OFFCURVE",
"349 -16 CURVE SMOOTH",
"518 -16 OFFCURVE",
"649 113 OFFCURVE",
"649 315 CURVE SMOOTH",
"649 386 LINE SMOOTH",
"649 588 OFFCURVE",
"518 716 OFFCURVE",
"349 716 CURVE SMOOTH"
);
},
{
closed = 1;
nodes = (
"468 604 OFFCURVE",
"529 505 OFFCURVE",
"529 365 CURVE SMOOTH",
"529 333 LINE SMOOTH",
"529 192 OFFCURVE",
"468 96 OFFCURVE",
"348 96 CURVE SMOOTH",
"228 96 OFFCURVE",
"169 192 OFFCURVE",
"169 333 CURVE SMOOTH",
"169 365 LINE SMOOTH",
"169 505 OFFCURVE",
"228 604 OFFCURVE",
"348 604 CURVE SMOOTH"
);
}
);
};
components = (
{
name = O;
},
{
name = dieresis;
transform = "{1, 0, 0, 1, 47, 181}";
}
);
layerId = "9540212F-C873-4039-900D-544C1C7D2862";
width = 604;
}
);
leftKerningGroup = O;
rightKerningGroup = O;
unicode = 00D6;
},
{
glyphname = Ograve;
lastChange = "2018-03-01 10:01:57 +0000";
layers = (
{
background = {
paths = (
{
closed = 1;
nodes = (
"316 893 LINE",
"186 893 LINE",
"299 763 LINE",
"398 763 LINE"
);
},
{
closed = 1;
nodes = (
"179 716 OFFCURVE",
"49 588 OFFCURVE",
"49 386 CURVE SMOOTH",
"49 315 LINE SMOOTH",
"49 113 OFFCURVE",
"179 -16 OFFCURVE",
"349 -16 CURVE SMOOTH",
"518 -16 OFFCURVE",
"649 113 OFFCURVE",
"649 315 CURVE SMOOTH",
"649 386 LINE SMOOTH",
"649 588 OFFCURVE",
"518 716 OFFCURVE",
"349 716 CURVE SMOOTH"
);
},
{
closed = 1;
nodes = (
"468 604 OFFCURVE",
"529 505 OFFCURVE",
"529 365 CURVE SMOOTH",
"529 333 LINE SMOOTH",
"529 192 OFFCURVE",
"468 96 OFFCURVE",
"348 96 CURVE SMOOTH",
"228 96 OFFCURVE",
"169 192 OFFCURVE",
"169 333 CURVE SMOOTH",
"169 365 LINE SMOOTH",
"169 505 OFFCURVE",
"228 604 OFFCURVE",
"348 604 CURVE SMOOTH"
);
}
);
};
components = (
{
name = O;
},
{
name = grave;
transform = "{1, 0, 0, 1, -123, 181}";
}
);
layerId = "9540212F-C873-4039-900D-544C1C7D2862";
width = 604;
}
);
leftKerningGroup = O;
rightKerningGroup = O;
unicode = 00D2;
},
{
glyphname = Ohungarumlaut;
lastChange = "2018-03-01 10:01:57 +0000";
layers = (
{
background = {
paths = (
{
closed = 1;
nodes = (
"421 893 LINE",
"291 893 LINE",
"209 763 LINE",
"308 763 LINE"
);
},
{
closed = 1;
nodes = (
"602 893 LINE",
"472 893 LINE",
"390 763 LINE",
"489 763 LINE"
);
},
{
closed = 1;
nodes = (
"179 716 OFFCURVE",
"49 588 OFFCURVE",
"49 386 CURVE SMOOTH",
"49 315 LINE SMOOTH",
"49 113 OFFCURVE",
"179 -16 OFFCURVE",
"349 -16 CURVE SMOOTH",
"518 -16 OFFCURVE",
"649 113 OFFCURVE",
"649 315 CURVE SMOOTH",
"649 386 LINE SMOOTH",
"649 588 OFFCURVE",
"518 716 OFFCURVE",
"349 716 CURVE SMOOTH"
);
},
{
closed = 1;
nodes = (
"468 604 OFFCURVE",
"529 505 OFFCURVE",
"529 365 CURVE SMOOTH",
"529 333 LINE SMOOTH",
"529 192 OFFCURVE",
"468 96 OFFCURVE",
"348 96 CURVE SMOOTH",
"228 96 OFFCURVE",
"169 192 OFFCURVE",
"169 333 CURVE SMOOTH",
"169 365 LINE SMOOTH",
"169 505 OFFCURVE",
"228 604 OFFCURVE",
"348 604 CURVE SMOOTH"
);
}
);
};
components = (
{
name = O;
},
{
name = hungarumlaut;
transform = "{1, 0, 0, 1, 47, 181}";
}
);
layerId = "9540212F-C873-4039-900D-544C1C7D2862";
width = 604;
}
);
leftKerningGroup = O;
rightKerningGroup = O;
unicode = 0150;
},
{
glyphname = Omacron;
lastChange = "2018-03-01 10:01:57 +0000";
layers = (
{
background = {
paths = (
{
closed = 1;
nodes = (
"489 856 LINE",
"208 856 LINE",
"208 784 LINE",
"489 784 LINE"
);
},
{
closed = 1;
nodes = (
"179 716 OFFCURVE",
"49 588 OFFCURVE",
"49 386 CURVE SMOOTH",
"49 315 LINE SMOOTH",
"49 113 OFFCURVE",
"179 -16 OFFCURVE",
"349 -16 CURVE SMOOTH",
"518 -16 OFFCURVE",
"649 113 OFFCURVE",
"649 315 CURVE SMOOTH",
"649 386 LINE SMOOTH",
"649 588 OFFCURVE",
"518 716 OFFCURVE",
"349 716 CURVE SMOOTH"
);
},
{
closed = 1;
nodes = (
"468 604 OFFCURVE",
"529 505 OFFCURVE",
"529 365 CURVE SMOOTH",
"529 333 LINE SMOOTH",
"529 192 OFFCURVE",
"468 96 OFFCURVE",
"348 96 CURVE SMOOTH",
"228 96 OFFCURVE",
"169 192 OFFCURVE",
"169 333 CURVE SMOOTH",
"169 365 LINE SMOOTH",
"169 505 OFFCURVE",
"228 604 OFFCURVE",
"348 604 CURVE SMOOTH"
);
}
);
};
components = (
{
name = O;
},
{
name = macron;
transform = "{1, 0, 0, 1, 47, 170}";
}
);
layerId = "9540212F-C873-4039-900D-544C1C7D2862";
width = 604;
}
);
leftKerningGroup = O;
rightKerningGroup = O;
unicode = 014C;
},
{
glyphname = Oslash;
lastChange = "2018-03-01 10:01:57 +0000";
layers = (
{
anchors = (
{
name = top;
position = "{376, 702}";
}
);
background = {
paths = (
{
closed = 1;
nodes = (
"600 679 LINE",
"538 721 LINE",
"506.508 674.362 LINE",
"461.712 701.429 OFFCURVE",
"409.019 716 OFFCURVE",
"352 716 CURVE SMOOTH",
"182 716 OFFCURVE",
"52 588 OFFCURVE",
"52 386 CURVE SMOOTH",
"52 315 LINE SMOOTH",
"52 227.665 OFFCURVE",
"76.301 153.976 OFFCURVE",
"117.629 98.458 CURVE",
"66 22 LINE",
"128 -21 LINE",
"171.476 43.476 LINE",
"221.165 5.057 OFFCURVE",
"283.318 -16 OFFCURVE",
"352 -16 CURVE SMOOTH",
"521 -16 OFFCURVE",
"652 113 OFFCURVE",
"652 315 CURVE SMOOTH",
"652 386 LINE SMOOTH",
"652 487.221 OFFCURVE",
"619.107 569.86 OFFCURVE",
"565.022 627.125 CURVE"
);
},
{
closed = 1;
nodes = (
"172 365 LINE",
"172 505 OFFCURVE",
"231 604 OFFCURVE",
"351 604 CURVE SMOOTH",
"386.666 604 OFFCURVE",
"417.119 595.255 OFFCURVE",
"442.309 579.287 CURVE",
"191.905 208.456 LINE",
"178.61 243.654 OFFCURVE",
"172 285.807 OFFCURVE",
"172 333 CURVE"
);
},
{
closed = 1;
nodes = (
"532 333 LINE SMOOTH",
"532 192 OFFCURVE",
"471 96 OFFCURVE",
"351 96 CURVE SMOOTH",
"302.868 96 OFFCURVE",
"264.549 111.445 OFFCURVE",
"235.916 139.044 CURVE",
"495.233 523.626 LINE",
"519.684 482.536 OFFCURVE",
"532 427.907 OFFCURVE",
"532 365 CURVE SMOOTH"
);
}
);
};
layerId = "9540212F-C873-4039-900D-544C1C7D2862";
leftMetricsKey = "=I";
rightMetricsKey = "=I";
paths = (
{
closed = 1;
nodes = (
"557 691 LINE",
"557 702 LINE",
"206 702 LINE",
"206 532 LINE",
"36 532 LINE",
"36 170 LINE",
"206 170 LINE",
"206 22 LINE",
"47 22 LINE",
"47 0 LINE",
"568 0 LINE",
"568 691 LINE"
);
},
{
closed = 1;
nodes = (
"228 680 LINE",
"546 680 LINE",
"546 532 LINE",
"228 532 LINE"
);
},
{
closed = 1;
nodes = (
"58 192 LINE",
"58 510 LINE",
"206 510 LINE",
"206 192 LINE"
);
},
{
closed = 1;
nodes = (
"228 362 LINE",
"228 510 LINE",
"376 510 LINE",
"376 362 LINE"
);
},
{
closed = 1;
nodes = (
"398 362 LINE",
"398 510 LINE",
"546 510 LINE",
"546 362 LINE"
);
},
{
closed = 1;
nodes = (
"376 192 LINE",
"228 192 LINE",
"228 340 LINE",
"376 340 LINE"
);
},
{
closed = 1;
nodes = (
"546 192 LINE",
"398 192 LINE",
"398 340 LINE",
"546 340 LINE"
);
},
{
closed = 1;
nodes = (
"546 22 LINE",
"228 22 LINE",
"228 170 LINE",
"546 170 LINE"
);
}
);
width = 604;
}
);
leftKerningGroup = O;
leftMetricsKey = I;
rightKerningGroup = O;
rightMetricsKey = I;
unicode = 00D8;
},
{
glyphname = Oslashacute;
lastChange = "2018-03-01 10:01:57 +0000";
layers = (
{
background = {
paths = (
{
closed = 1;
nodes = (
"495 893 LINE",
"365 893 LINE",
"283 763 LINE",
"382 763 LINE"
);
},
{
closed = 1;
nodes = (
"600 679 LINE",
"538 721 LINE",
"506.508 674.362 LINE",
"461.712 701.429 OFFCURVE",
"409.019 716 OFFCURVE",
"352 716 CURVE SMOOTH",
"182 716 OFFCURVE",
"52 588 OFFCURVE",
"52 386 CURVE SMOOTH",
"52 315 LINE SMOOTH",
"52 227.665 OFFCURVE",
"76.301 153.976 OFFCURVE",
"117.629 98.458 CURVE",
"66 22 LINE",
"128 -21 LINE",
"171.476 43.476 LINE",
"221.165 5.057 OFFCURVE",
"283.318 -16 OFFCURVE",
"352 -16 CURVE SMOOTH",
"521 -16 OFFCURVE",
"652 113 OFFCURVE",
"652 315 CURVE SMOOTH",
"652 386 LINE SMOOTH",
"652 487.221 OFFCURVE",
"619.107 569.86 OFFCURVE",
"565.022 627.125 CURVE"
);
},
{
closed = 1;
nodes = (
"172 365 LINE",
"172 505 OFFCURVE",
"231 604 OFFCURVE",
"351 604 CURVE SMOOTH",
"386.666 604 OFFCURVE",
"417.119 595.255 OFFCURVE",
"442.309 579.287 CURVE",
"191.905 208.456 LINE",
"178.61 243.654 OFFCURVE",
"172 285.807 OFFCURVE",
"172 333 CURVE"
);
},
{
closed = 1;
nodes = (
"532 333 LINE SMOOTH",
"532 192 OFFCURVE",
"471 96 OFFCURVE",
"351 96 CURVE SMOOTH",
"302.868 96 OFFCURVE",
"264.549 111.445 OFFCURVE",
"235.916 139.044 CURVE",
"495.233 523.626 LINE",
"519.684 482.536 OFFCURVE",
"532 427.907 OFFCURVE",
"532 365 CURVE SMOOTH"
);
}
);
};
components = (
{
name = Oslash;
},
{
name = acute;
transform = "{1, 0, 0, 1, 217, 181}";
}
);
layerId = "9540212F-C873-4039-900D-544C1C7D2862";
width = 604;
}
);
leftKerningGroup = O;
rightKerningGroup = O;
unicode = 01FE;
},
{
glyphname = Otilde;
lastChange = "2018-03-01 10:01:57 +0000";
layers = (
{
background = {
paths = (
{
closed = 1;
nodes = (
"454 892 LINE",
"429 854 OFFCURVE",
"421 849 OFFCURVE",
"403 849 CURVE SMOOTH",
"395 849 OFFCURVE",
"387 850 OFFCURVE",
"369 862 CURVE",
"326 884 OFFCURVE",
"313 886 OFFCURVE",
"296 886 CURVE SMOOTH",
"263 886 OFFCURVE",
"207 853 OFFCURVE",
"190 802 CURVE",
"249 767 LINE",
"267 800 OFFCURVE",
"277 808 OFFCURVE",
"296 808 CURVE SMOOTH",
"309 808 OFFCURVE",
"315 806 OFFCURVE",
"347 790 CURVE",
"371 776 OFFCURVE",
"387 771 OFFCURVE",
"404 771 CURVE SMOOTH",
"437 771 OFFCURVE",
"481 795 OFFCURVE",
"508 848 CURVE"
);
},
{
closed = 1;
nodes = (
"179 716 OFFCURVE",
"49 588 OFFCURVE",
"49 386 CURVE SMOOTH",
"49 315 LINE SMOOTH",
"49 113 OFFCURVE",
"179 -16 OFFCURVE",
"349 -16 CURVE SMOOTH",
"518 -16 OFFCURVE",
"649 113 OFFCURVE",
"649 315 CURVE SMOOTH",
"649 386 LINE SMOOTH",
"649 588 OFFCURVE",
"518 716 OFFCURVE",
"349 716 CURVE SMOOTH"
);
},
{
closed = 1;
nodes = (
"468 604 OFFCURVE",
"529 505 OFFCURVE",
"529 365 CURVE SMOOTH",
"529 333 LINE SMOOTH",
"529 192 OFFCURVE",
"468 96 OFFCURVE",
"348 96 CURVE SMOOTH",
"228 96 OFFCURVE",
"169 192 OFFCURVE",
"169 333 CURVE SMOOTH",
"169 365 LINE SMOOTH",
"169 505 OFFCURVE",
"228 604 OFFCURVE",
"348 604 CURVE SMOOTH"
);
}
);
};
components = (
{
name = O;
},
{
name = tilde;
transform = "{1, 0, 0, 1, 47, 170}";
}
);
layerId = "9540212F-C873-4039-900D-544C1C7D2862";
width = 604;
}
);
leftKerningGroup = O;
rightKerningGroup = O;
unicode = 00D5;
},
{
glyphname = OE;
lastChange = "2018-03-01 10:01:57 +0000";
layers = (
{
background = {
paths = (
{
closed = 1;
nodes = (
"949 588 LINE",
"949 700 LINE",
"529 700 LINE",
"529 642.957 LINE",
"483.857 689.587 OFFCURVE",
"422.936 716 OFFCURVE",
"349 716 CURVE SMOOTH",
"179 716 OFFCURVE",
"49 588 OFFCURVE",
"49 386 CURVE SMOOTH",
"49 315 LINE SMOOTH",
"49 113 OFFCURVE",
"179 -16 OFFCURVE",
"349 -16 CURVE SMOOTH",
"422.936 -16 OFFCURVE",
"483.857 10.604 OFFCURVE",
"529 57.45 CURVE",
"529 0 LINE",
"949 0 LINE",
"949 112 LINE",
"649 112 LINE",
"649 300 LINE",
"949 300 LINE",
"949 412 LINE",
"649 412 LINE",
"649 588 LINE"
);
},
{
closed = 1;
nodes = (
"228 96 OFFCURVE",
"169 192 OFFCURVE",
"169 333 CURVE SMOOTH",
"169 365 LINE SMOOTH",
"169 505 OFFCURVE",
"228 604 OFFCURVE",
"348 604 CURVE SMOOTH",
"468 604 OFFCURVE",
"529 515 OFFCURVE",
"529 365 CURVE SMOOTH",
"529 333 LINE SMOOTH",
"529 182 OFFCURVE",
"468 96 OFFCURVE",
"348 96 CURVE SMOOTH"
);
}
);
};
guideLines = (
{
angle = 90;
position = "{576, 700}";
}
);
layerId = "9540212F-C873-4039-900D-544C1C7D2862";
leftMetricsKey = "=O";
rightMetricsKey = "=E";
paths = (
{
closed = 1;
nodes = (
"908 510 LINE",
"908 702 LINE",
"36 702 LINE",
"36 0 LINE",
"908 0 LINE",
"908 192 LINE",
"568 192 LINE",
"568 340 LINE",
"897 340 LINE",
"897 362 LINE",
"568 362 LINE",
"568 510 LINE"
);
},
{
closed = 1;
nodes = (
"546 532 LINE",
"546 170 LINE",
"886 170 LINE",
"886 22 LINE",
"58 22 LINE",
"58 170 LINE",
"398 170 LINE",
"398 532 LINE",
"58 532 LINE",
"58 680 LINE",
"886 680 LINE",
"886 532 LINE"
);
},
{
closed = 1;
nodes = (
"376 510 LINE",
"376 192 LINE",
"58 192 LINE",
"58 510 LINE"
);
}
);
width = 944;
}
);
leftKerningGroup = O;
leftMetricsKey = O;
rightKerningGroup = E;
rightMetricsKey = E;
unicode = 0152;
},
{
glyphname = P;
lastChange = "2018-03-01 10:01:57 +0000";
layers = (
{
background = {
paths = (
{
closed = 1;
nodes = (
"73 700 LINE",
"73 0 LINE",
"193 0 LINE",
"193 240 LINE",
"286 240 LINE SMOOTH",
"449 240 OFFCURVE",
"553 331 OFFCURVE",
"553 470 CURVE SMOOTH",
"553 609 OFFCURVE",
"449 700 OFFCURVE",
"286 700 CURVE SMOOTH"
);
},
{
closed = 1;
nodes = (
"272 588 LINE SMOOTH",
"385 588 OFFCURVE",
"433 547 OFFCURVE",
"433 470 CURVE SMOOTH",
"433 393 OFFCURVE",
"385 352 OFFCURVE",
"272 352 CURVE SMOOTH",
"193 352 LINE",
"193 588 LINE"
);
}
);
};
layerId = "9540212F-C873-4039-900D-544C1C7D2862";
leftMetricsKey = "=I";
rightMetricsKey = "=I";
paths = (
{
closed = 1;
nodes = (
"36 702 LINE",
"36 0 LINE",
"58 0 LINE",
"58 170 LINE",
"398 170 LINE",
"398 702 LINE"
);
},
{
closed = 1;
nodes = (
"58 532 LINE",
"58 680 LINE",
"376 680 LINE",
"376 532 LINE"
);
},
{
closed = 1;
nodes = (
"376 362 LINE",
"58 362 LINE",
"58 510 LINE",
"376 510 LINE"
);
},
{
closed = 1;
nodes = (
"376 192 LINE",
"58 192 LINE",
"58 340 LINE",
"376 340 LINE"
);
}
);
width = 434;
}
);
leftMetricsKey = I;
rightMetricsKey = I;
unicode = 0050;
},
{
glyphname = Thorn;
lastChange = "2018-03-01 10:01:57 +0000";
layers = (
{
background = {
paths = (
{
closed = 1;
nodes = (
"193 580 LINE",
"193 700 LINE",
"73 700 LINE",
"73 0 LINE",
"193 0 LINE",
"193 120 LINE",
"286 120 LINE SMOOTH",
"449 120 OFFCURVE",
"553 211 OFFCURVE",
"553 350 CURVE SMOOTH",
"553 489 OFFCURVE",
"449 580 OFFCURVE",
"286 580 CURVE SMOOTH"
);
},
{
closed = 1;
nodes = (
"193 232 LINE",
"193 468 LINE",
"272 468 LINE SMOOTH",
"385 468 OFFCURVE",
"433 427 OFFCURVE",
"433 350 CURVE SMOOTH",
"433 273 OFFCURVE",
"385 232 OFFCURVE",
"272 232 CURVE SMOOTH"
);
}
);
};
layerId = "9540212F-C873-4039-900D-544C1C7D2862";
leftMetricsKey = "=I";
rightMetricsKey = "=P";
paths = (
{
closed = 1;
nodes = (
"58 532 LINE",
"58 702 LINE",
"36 702 LINE",
"36 0 LINE",
"58 0 LINE",
"58 170 LINE",
"398 170 LINE",
"398 532 LINE"
);
},
{
closed = 1;
nodes = (
"58 192 LINE",
"58 510 LINE",
"206 510 LINE",
"206 192 LINE"
);
},
{
closed = 1;
nodes = (
"376 192 LINE",
"228 192 LINE",
"228 510 LINE",
"376 510 LINE"
);
}
);
width = 434;
}
);
leftKerningGroup = I;
leftMetricsKey = I;
rightKerningGroup = D;
rightMetricsKey = P;
unicode = 00DE;
},
{
glyphname = Q;
lastChange = "2018-03-01 10:01:57 +0000";
layers = (
{
background = {
paths = (
{
closed = 1;
nodes = (
"650 34 LINE",
"583.387 98.905 LINE",
"624.644 154.371 OFFCURVE",
"649 227.899 OFFCURVE",
"649 315 CURVE SMOOTH",
"649 386 LINE SMOOTH",
"649 588 OFFCURVE",
"518 716 OFFCURVE",
"349 716 CURVE SMOOTH",
"179 716 OFFCURVE",
"49 588 OFFCURVE",
"49 386 CURVE SMOOTH",
"49 315 LINE SMOOTH",
"49 113 OFFCURVE",
"179 -16 OFFCURVE",
"349 -16 CURVE SMOOTH",
"411.495 -16 OFFCURVE",
"468.794 1.641 OFFCURVE",
"516.194 34.09 CURVE",
"584 -32 LINE"
);
},
{
closed = 1;
nodes = (
"228 96 OFFCURVE",
"169 192 OFFCURVE",
"169 333 CURVE SMOOTH",
"169 365 LINE SMOOTH",
"169 505 OFFCURVE",
"228 604 OFFCURVE",
"348 604 CURVE SMOOTH",
"468 604 OFFCURVE",
"529 505 OFFCURVE",
"529 365 CURVE SMOOTH",
"529 333 LINE SMOOTH",
"529 273.771 OFFCURVE",
"518.236 222.482 OFFCURVE",
"496.857 182.914 CURVE",
"411 267 LINE",
"346 200 LINE",
"431.937 115.817 LINE",
"408.246 102.936 OFFCURVE",
"380.255 96 OFFCURVE",
"348 96 CURVE SMOOTH"
);
}
);
};
guideLines = (
{
position = "{837, 716}";
},
{
position = "{823, -16}";
},
{
position = "{846, 604}";
},
{
position = "{785, 96}";
}
);
layerId = "9540212F-C873-4039-900D-544C1C7D2862";
leftMetricsKey = "=I";
rightMetricsKey = "=I";
paths = (
{
closed = 1;
nodes = (
"398 702 LINE",
"36 702 LINE",
"36 0 LINE",
"568 0 LINE",
"568 532 LINE",
"398 532 LINE"
);
},
{
closed = 1;
nodes = (
"58 532 LINE",
"58 680 LINE",
"376 680 LINE",
"376 532 LINE"
);
},
{
closed = 1;
nodes = (
"546 510 LINE",
"546 22 LINE",
"58 22 LINE",
"58 170 LINE",
"398 170 LINE",
"398 510 LINE"
);
},
{
closed = 1;
nodes = (
"376 192 LINE",
"58 192 LINE",
"58 510 LINE",
"376 510 LINE"
);
}
);
width = 604;
}
);
leftMetricsKey = I;
rightKerningGroup = Q;
rightMetricsKey = I;
unicode = 0051;
},
{
glyphname = R;
lastChange = "2018-03-01 10:01:57 +0000";
layers = (
{
anchors = (
{
name = bottom;
position = "{376, 0}";
},
{
name = top;
position = "{206, 702}";
}
);
background = {
paths = (
{
closed = 1;
nodes = (
"73 700 LINE",
"73 0 LINE",
"193 0 LINE",
"193 269 LINE",
"299 269 LINE",
"438 0 LINE",
"573 0 LINE",
"424 289 LINE",
"508 321 OFFCURVE",
"558 391 OFFCURVE",
"558 485 CURVE SMOOTH",
"558 615 OFFCURVE",
"461 700 OFFCURVE",
"308 700 CURVE SMOOTH"
);
},
{
closed = 1;
nodes = (
"300 588 LINE SMOOTH",
"406 588 OFFCURVE",
"438 540 OFFCURVE",
"438 483 CURVE SMOOTH",
"438 428 OFFCURVE",
"406 381 OFFCURVE",
"300 381 CURVE SMOOTH",
"193 381 LINE",
"193 588 LINE"
);
}
);
};
layerId = "9540212F-C873-4039-900D-544C1C7D2862";
leftMetricsKey = "=I";
rightMetricsKey = "=I";
paths = (
{
closed = 1;
nodes = (
"36 702 LINE",
"36 0 LINE",
"228 0 LINE",
"228 170 LINE",
"376 170 LINE",
"376 0 LINE",
"568 0 LINE",
"568 192 LINE",
"398 192 LINE",
"398 340 LINE",
"568 340 LINE",
"568 702 LINE"
);
},
{
closed = 1;
nodes = (
"546 362 LINE",
"398 362 LINE",
"398 532 LINE",
"206 532 LINE",
"206 22 LINE",
"58 22 LINE",
"58 680 LINE",
"546 680 LINE"
);
},
{
closed = 1;
nodes = (
"376 362 LINE",
"228 362 LINE",
"228 510 LINE",
"376 510 LINE"
);
},
{
closed = 1;
nodes = (
"376 192 LINE",
"228 192 LINE",
"228 340 LINE",
"376 340 LINE"
);
},
{
closed = 1;
nodes = (
"546 170 LINE",
"546 22 LINE",
"398 22 LINE",
"398 170 LINE"
);
}
);
width = 604;
}
);
leftMetricsKey = I;
rightMetricsKey = I;
unicode = 0052;
},
{
glyphname = Racute;
lastChange = "2018-03-01 10:01:57 +0000";
layers = (
{
background = {
paths = (
{
closed = 1;
nodes = (
"421 883 LINE",
"291 883 LINE",
"209 753 LINE",
"308 753 LINE"
);
},
{
closed = 1;
nodes = (
"73 700 LINE",
"73 0 LINE",
"193 0 LINE",
"193 269 LINE",
"299 269 LINE",
"438 0 LINE",
"573 0 LINE",
"424 289 LINE",
"508 321 OFFCURVE",
"558 391 OFFCURVE",
"558 485 CURVE SMOOTH",
"558 615 OFFCURVE",
"461 700 OFFCURVE",
"308 700 CURVE SMOOTH"
);
},
{
closed = 1;
nodes = (
"300 588 LINE SMOOTH",
"406 588 OFFCURVE",
"438 540 OFFCURVE",
"438 483 CURVE SMOOTH",
"438 428 OFFCURVE",
"406 381 OFFCURVE",
"300 381 CURVE SMOOTH",
"193 381 LINE",
"193 588 LINE"
);
}
);
};
components = (
{
name = R;
},
{
name = acute;
transform = "{1, 0, 0, 1, 47, 181}";
}
);
layerId = "9540212F-C873-4039-900D-544C1C7D2862";
width = 604;
}
);
leftKerningGroup = I;
rightKerningGroup = R;
unicode = 0154;
},
{
glyphname = Rcaron;
lastChange = "2018-03-01 10:01:57 +0000";
layers = (
{
background = {
paths = (
{
closed = 1;
nodes = (
"409 883 LINE",
"307 883 LINE",
"258 813 LINE",
"209 883 LINE",
"108 883 LINE",
"209 753 LINE",
"308 753 LINE"
);
},
{
closed = 1;
nodes = (
"73 700 LINE",
"73 0 LINE",
"193 0 LINE",
"193 269 LINE",
"299 269 LINE",
"438 0 LINE",
"573 0 LINE",
"424 289 LINE",
"508 321 OFFCURVE",
"558 391 OFFCURVE",
"558 485 CURVE SMOOTH",
"558 615 OFFCURVE",
"461 700 OFFCURVE",
"308 700 CURVE SMOOTH"
);
},
{
closed = 1;
nodes = (
"300 588 LINE SMOOTH",
"406 588 OFFCURVE",
"438 540 OFFCURVE",
"438 483 CURVE SMOOTH",
"438 428 OFFCURVE",
"406 381 OFFCURVE",
"300 381 CURVE SMOOTH",
"193 381 LINE",
"193 588 LINE"
);
}
);
};
components = (
{
name = R;
},
{
name = caron;
transform = "{1, 0, 0, 1, 47, 181}";
}
);
layerId = "9540212F-C873-4039-900D-544C1C7D2862";
width = 604;
}
);
leftKerningGroup = I;
rightKerningGroup = R;
unicode = 0158;
},
{
glyphname = Rcommaaccent;
lastChange = "2018-03-01 10:27:51 +0000";
layers = (
{
background = {
paths = (
{
closed = 1;
nodes = (
"424 289 LINE",
"508 321 OFFCURVE",
"558 391 OFFCURVE",
"558 485 CURVE SMOOTH",
"558 615 OFFCURVE",
"461 700 OFFCURVE",
"308 700 CURVE SMOOTH",
"73 700 LINE",
"73 0 LINE",
"193 0 LINE",
"193 269 LINE",
"299 269 LINE",
"438 0 LINE",
"573 0 LINE"
);
},
{
closed = 1;
nodes = (
"193 381 LINE",
"193 588 LINE",
"300 588 LINE SMOOTH",
"406 588 OFFCURVE",
"438 540 OFFCURVE",
"438 483 CURVE SMOOTH",
"438 428 OFFCURVE",
"406 381 OFFCURVE",
"300 381 CURVE SMOOTH"
);
},
{
closed = 1;
nodes = (
"198 -176 LINE",
"257 -176 LINE",
"225 -268 LINE",
"288 -268 LINE",
"320 -176 LINE",
"320 -58 LINE",
"198 -58 LINE"
);
}
);
};
components = (
{
alignment = -1;
name = commaaccent;
transform = "{1, 0, 0, 1, 15, 0}";
},
{
name = R;
}
);
layerId = "9540212F-C873-4039-900D-544C1C7D2862";
leftMetricsKey = "=R";
rightMetricsKey = "=R";
width = 604;
}
);
leftKerningGroup = I;
leftMetricsKey = R;
rightKerningGroup = R;
rightMetricsKey = R;
unicode = 0156;
},
{
glyphname = S;
lastChange = "2018-03-01 10:01:57 +0000";
layers = (
{
anchors = (
{
name = bottom;
position = "{206, 0}";
},
{
name = top;
position = "{206, 702}";
}
);
background = {
paths = (
{
closed = 1;
nodes = (
"286 716 LINE SMOOTH",
"145 716 OFFCURVE",
"50 632 OFFCURVE",
"50 508 CURVE SMOOTH",
"50 347 OFFCURVE",
"220 322 OFFCURVE",
"297 293 CURVE SMOOTH",
"359 271 OFFCURVE",
"420 259 OFFCURVE",
"420 194 CURVE SMOOTH",
"420 134 OFFCURVE",
"376 96 OFFCURVE",
"297 96 CURVE SMOOTH",
"217 96 OFFCURVE",
"171 139 OFFCURVE",
"144 206 CURVE",
"25 169 LINE",
"73 55 OFFCURVE",
"170 -16 OFFCURVE",
"296 -16 CURVE SMOOTH",
"297 -16 LINE SMOOTH",
"445 -16 OFFCURVE",
"544 70 OFFCURVE",
"544 194 CURVE SMOOTH",
"544 354 OFFCURVE",
"351 392 OFFCURVE",
"298 412 CURVE SMOOTH",
"257 428 OFFCURVE",
"170 451 OFFCURVE",
"170 507 CURVE SMOOTH",
"170 569 OFFCURVE",
"215 604 OFFCURVE",
"286 604 CURVE SMOOTH",
"287 604 LINE SMOOTH",
"364 604 OFFCURVE",
"407 562 OFFCURVE",
"433 496 CURVE",
"549 534 LINE",
"502 647 OFFCURVE",
"409 716 OFFCURVE",
"287 716 CURVE SMOOTH"
);
}
);
};
guideLines = (
{
position = "{827, 716}";
},
{
position = "{813, -16}";
},
{
position = "{836, 604}";
},
{
angle = -16;
position = "{584, 316}";
},
{
angle = 18;
position = "{-16, 350}";
},
{
angle = 18;
position = "{584, 350}";
},
{
position = "{584, 350}";
},
{
angle = -16;
position = "{-16, 386}";
},
{
angle = 90;
position = "{43, 513}";
},
{
angle = 90;
position = "{548, 534}";
}
);
layerId = "9540212F-C873-4039-900D-544C1C7D2862";
leftMetricsKey = "=I";
rightMetricsKey = "=I";
paths = (
{
closed = 1;
nodes = (
"36 702 LINE",
"36 340 LINE",
"376 340 LINE",
"376 192 LINE",
"36 192 LINE",
"36 0 LINE",
"568 0 LINE",
"568 362 LINE",
"228 362 LINE",
"228 510 LINE",
"568 510 LINE",
"568 702 LINE"
);
},
{
closed = 1;
nodes = (
"546 532 LINE",
"206 532 LINE",
"206 362 LINE",
"58 362 LINE",
"58 680 LINE",
"546 680 LINE"
);
},
{
closed = 1;
nodes = (
"546 340 LINE",
"546 22 LINE",
"58 22 LINE",
"58 170 LINE",
"398 170 LINE",
"398 340 LINE"
);
}
);
width = 604;
},
{
associatedMasterId = "9540212F-C873-4039-900D-544C1C7D2862";
guideLines = (
{
position = "{843, 716}";
},
{
position = "{829, -16}";
},
{
position = "{852, 604}";
},
{
angle = -16;
position = "{600, 316}";
},
{
angle = 16;
position = "{0, 350}";
},
{
angle = 16;
position = "{600, 350}";
},
{
position = "{600, 350}";
},
{
angle = -16;
position = "{0, 386}";
}
);
layerId = "B8370E67-2609-4849-A193-4390F141D0A9";
name = Variaton1;
paths = (
{
closed = 1;
nodes = (
"271 428 OFFCURVE",
"172 446 OFFCURVE",
"172 507 CURVE SMOOTH",
"172 561 OFFCURVE",
"233 604 OFFCURVE",
"308 604 CURVE SMOOTH",
"309 604 LINE SMOOTH",
"392 604 OFFCURVE",
"446 557 OFFCURVE",
"471 482 CURVE",
"588 516 LINE",
"545 641 OFFCURVE",
"438 716 OFFCURVE",
"309 716 CURVE SMOOTH",
"308 716 LINE SMOOTH",
"167 716 OFFCURVE",
"52 624 OFFCURVE",
"52 508 CURVE SMOOTH",
"52 347 OFFCURVE",
"235 322 OFFCURVE",
"310 293 CURVE SMOOTH",
"370 271 OFFCURVE",
"446 261 OFFCURVE",
"446 194 CURVE SMOOTH",
"446 140 OFFCURVE",
"386 96 OFFCURVE",
"310 96 CURVE SMOOTH",
"227 96 OFFCURVE",
"172 142 OFFCURVE",
"146 217 CURVE",
"30 184 LINE",
"73 59 OFFCURVE",
"180 -16 OFFCURVE",
"309 -16 CURVE SMOOTH",
"310 -16 LINE SMOOTH",
"453 -16 OFFCURVE",
"566 78 OFFCURVE",
"566 194 CURVE SMOOTH",
"566 354 OFFCURVE",
"362 392 OFFCURVE",
"311 412 CURVE SMOOTH"
);
}
);
width = 600;
},
{
associatedMasterId = "9540212F-C873-4039-900D-544C1C7D2862";
guideLines = (
{
position = "{843, 716}";
},
{
position = "{829, -16}";
},
{
position = "{852, 604}";
},
{
angle = -16;
position = "{600, 316}";
},
{
angle = 16;
position = "{0, 350}";
},
{
angle = 16;
position = "{600, 350}";
},
{
position = "{600, 350}";
},
{
angle = -16;
position = "{0, 386}";
}
);
layerId = "640EB42C-19D4-4EC1-BDF8-4A08BF9DF39A";
name = Variation2;
paths = (
{
closed = 1;
nodes = (
"265 428 OFFCURVE",
"166 446 OFFCURVE",
"166 507 CURVE SMOOTH",
"166 561 OFFCURVE",
"227 604 OFFCURVE",
"302 604 CURVE SMOOTH",
"303 604 OFFCURVE",
"303 604 OFFCURVE",
"303 604 CURVE SMOOTH",
"386 604 OFFCURVE",
"440 557 OFFCURVE",
"465 482 CURVE",
"582 516 LINE",
"539 641 OFFCURVE",
"432 716 OFFCURVE",
"303 716 CURVE SMOOTH",
"303 716 OFFCURVE",
"303 716 OFFCURVE",
"303 716 CURVE SMOOTH",
"303 716 LINE SMOOTH",
"303 716 OFFCURVE",
"303 716 OFFCURVE",
"302 716 CURVE SMOOTH",
"161 716 OFFCURVE",
"46 624 OFFCURVE",
"46 508 CURVE SMOOTH",
"46 347 OFFCURVE",
"229 322 OFFCURVE",
"304 293 CURVE SMOOTH",
"364 271 OFFCURVE",
"440 261 OFFCURVE",
"440 194 CURVE SMOOTH",
"440 140 OFFCURVE",
"380 96 OFFCURVE",
"304 96 CURVE SMOOTH",
"221 96 OFFCURVE",
"166 142 OFFCURVE",
"140 217 CURVE",
"24 184 LINE",
"67 59 OFFCURVE",
"174 -16 OFFCURVE",
"303 -16 CURVE SMOOTH",
"304 -16 OFFCURVE",
"304 -16 OFFCURVE",
"304 -16 CURVE",
"304 -16 LINE",
"447 -16 OFFCURVE",
"560 78 OFFCURVE",
"560 194 CURVE SMOOTH",
"560 354 OFFCURVE",
"356 392 OFFCURVE",
"305 412 CURVE SMOOTH"
);
}
);
width = 600;
},
{
associatedMasterId = "9540212F-C873-4039-900D-544C1C7D2862";
guideLines = (
{
position = "{849, 716}";
},
{
position = "{835, -16}";
},
{
position = "{858, 604}";
},
{
angle = -16;
position = "{606, 316}";
},
{
angle = 16;
position = "{6, 350}";
},
{
angle = 16;
position = "{606, 350}";
},
{
position = "{606, 350}";
},
{
angle = -16;
position = "{6, 386}";
},
{
angle = 90;
position = "{70, 197}";
},
{
angle = 90;
position = "{548, 516}";
}
);
layerId = "2797A177-B2E3-4F37-91AB-2B20C76B1FFD";
name = variate3;
paths = (
{
closed = 1;
nodes = (
"271 428 OFFCURVE",
"190 446 OFFCURVE",
"190 507 CURVE SMOOTH",
"190 561 OFFCURVE",
"233 604 OFFCURVE",
"308 604 CURVE SMOOTH",
"309 604 LINE SMOOTH",
"392 604 OFFCURVE",
"446 557 OFFCURVE",
"471 482 CURVE",
"588 516 LINE",
"545 641 OFFCURVE",
"438 716 OFFCURVE",
"309 716 CURVE SMOOTH",
"308 716 LINE SMOOTH",
"167 716 OFFCURVE",
"70 624 OFFCURVE",
"70 508 CURVE SMOOTH",
"70 347 OFFCURVE",
"235 322 OFFCURVE",
"310 293 CURVE SMOOTH",
"370 271 OFFCURVE",
"428 261 OFFCURVE",
"428 194 CURVE SMOOTH",
"428 140 OFFCURVE",
"386 96 OFFCURVE",
"310 96 CURVE SMOOTH",
"227 96 OFFCURVE",
"172 142 OFFCURVE",
"146 217 CURVE",
"30 184 LINE",
"73 59 OFFCURVE",
"180 -16 OFFCURVE",
"309 -16 CURVE SMOOTH",
"310 -16 LINE SMOOTH",
"453 -16 OFFCURVE",
"548 78 OFFCURVE",
"548 194 CURVE SMOOTH",
"548 354 OFFCURVE",
"362 392 OFFCURVE",
"311 412 CURVE SMOOTH"
);
}
);
width = 618;
},
{
associatedMasterId = "9540212F-C873-4039-900D-544C1C7D2862";
guideLines = (
{
position = "{849, 716}";
},
{
position = "{835, -16}";
},
{
position = "{858, 604}";
},
{
angle = -16;
position = "{606, 316}";
},
{
angle = 16;
position = "{6, 350}";
},
{
angle = 16;
position = "{606, 350}";
},
{
position = "{606, 350}";
},
{
angle = -16;
position = "{6, 386}";
},
{
angle = 90;
position = "{70, 197}";
},
{
angle = 90;
position = "{548, 516}";
}
);
layerId = "409D3E67-4D36-4E5C-819C-2194FCF9054D";
name = variante3b;
paths = (
{
closed = 1;
nodes = (
"271 428 OFFCURVE",
"190 446 OFFCURVE",
"190 507 CURVE SMOOTH",
"190 569 OFFCURVE",
"233 604 OFFCURVE",
"308 604 CURVE SMOOTH",
"309 604 LINE SMOOTH",
"392 604 OFFCURVE",
"436 555 OFFCURVE",
"461 480 CURVE",
"578 514 LINE",
"535 639 OFFCURVE",
"438 716 OFFCURVE",
"309 716 CURVE SMOOTH",
"308 716 LINE SMOOTH",
"167 716 OFFCURVE",
"70 632 OFFCURVE",
"70 508 CURVE SMOOTH",
"70 347 OFFCURVE",
"235 322 OFFCURVE",
"310 293 CURVE SMOOTH",
"370 271 OFFCURVE",
"428 261 OFFCURVE",
"428 194 CURVE SMOOTH",
"428 132 OFFCURVE",
"386 96 OFFCURVE",
"310 96 CURVE SMOOTH",
"227 96 OFFCURVE",
"182 146 OFFCURVE",
"156 221 CURVE",
"40 188 LINE",
"83 63 OFFCURVE",
"180 -16 OFFCURVE",
"309 -16 CURVE SMOOTH",
"310 -16 LINE SMOOTH",
"453 -16 OFFCURVE",
"548 70 OFFCURVE",
"548 194 CURVE SMOOTH",
"548 354 OFFCURVE",
"362 392 OFFCURVE",
"311 412 CURVE SMOOTH"
);
}
);
width = 618;
},
{
anchors = (
{
name = bottom;
position = "{292, 0}";
},
{
name = top;
position = "{291, 690}";
}
);
associatedMasterId = "9540212F-C873-4039-900D-544C1C7D2862";
guideLines = (
{
position = "{832, 716}";
},
{
position = "{818, -16}";
},
{
position = "{841, 604}";
},
{
angle = -16;
position = "{589, 316}";
},
{
angle = 18;
position = "{-11, 350}";
},
{
angle = 18;
position = "{589, 350}";
},
{
position = "{589, 350}";
},
{
angle = -16;
position = "{-11, 386}";
}
);
layerId = "2DC9156C-7040-487B-8C97-82B6E1B7E92D";
name = "Regular Mar 15 14, 14:04";
paths = (
{
closed = 1;
nodes = (
"30 169 LINE",
"76 55 OFFCURVE",
"170 -16 OFFCURVE",
"292 -16 CURVE SMOOTH",
"293 -16 LINE SMOOTH",
"436 -16 OFFCURVE",
"541 70 OFFCURVE",
"541 194 CURVE SMOOTH",
"541 354 OFFCURVE",
"345 397 OFFCURVE",
"294 417 CURVE SMOOTH",
"254 433 OFFCURVE",
"168 451 OFFCURVE",
"168 512 CURVE SMOOTH",
"168 569 OFFCURVE",
"216 604 OFFCURVE",
"291 604 CURVE SMOOTH",
"292 604 LINE SMOOTH",
"369 604 OFFCURVE",
"412 562 OFFCURVE",
"438 497 CURVE",
"553 534 LINE",
"507 647 OFFCURVE",
"414 716 OFFCURVE",
"292 716 CURVE SMOOTH",
"291 716 LINE SMOOTH",
"150 716 OFFCURVE",
"48 632 OFFCURVE",
"48 513 CURVE SMOOTH",
"48 352 OFFCURVE",
"218 327 OFFCURVE",
"293 298 CURVE SMOOTH",
"353 276 OFFCURVE",
"421 261 OFFCURVE",
"421 194 CURVE SMOOTH",
"421 132 OFFCURVE",
"369 96 OFFCURVE",
"293 96 CURVE SMOOTH",
"216 96 OFFCURVE",
"171 139 OFFCURVE",
"145 206 CURVE"
);
}
);
width = 603;
},
{
anchors = (
{
name = bottom;
position = "{292, 0}";
},
{
name = top;
position = "{291, 690}";
}
);
associatedMasterId = "9540212F-C873-4039-900D-544C1C7D2862";
guideLines = (
{
position = "{832, 716}";
},
{
position = "{818, -16}";
},
{
position = "{841, 604}";
},
{
angle = -16;
position = "{589, 316}";
},
{
angle = 16;
position = "{-11, 350}";
},
{
angle = 16;
position = "{589, 350}";
},
{
position = "{589, 350}";
},
{
angle = -16;
position = "{-11, 386}";
}
);
layerId = "5010A127-750B-4A7F-BAC4-8102FC29172B";
name = "Regular Mar 15 14, 14:09";
paths = (
{
closed = 1;
nodes = (
"254 428 OFFCURVE",
"173 446 OFFCURVE",
"173 507 CURVE SMOOTH",
"173 569 OFFCURVE",
"216 604 OFFCURVE",
"291 604 CURVE SMOOTH",
"292 604 LINE SMOOTH",
"375 604 OFFCURVE",
"419 555 OFFCURVE",
"444 480 CURVE",
"561 514 LINE",
"518 639 OFFCURVE",
"421 716 OFFCURVE",
"292 716 CURVE SMOOTH",
"291 716 LINE SMOOTH",
"150 716 OFFCURVE",
"53 632 OFFCURVE",
"53 508 CURVE SMOOTH",
"53 347 OFFCURVE",
"218 322 OFFCURVE",
"293 293 CURVE SMOOTH",
"353 271 OFFCURVE",
"411 261 OFFCURVE",
"411 194 CURVE SMOOTH",
"411 132 OFFCURVE",
"369 96 OFFCURVE",
"293 96 CURVE SMOOTH",
"210 96 OFFCURVE",
"165 146 OFFCURVE",
"139 221 CURVE",
"23 188 LINE",
"66 63 OFFCURVE",
"163 -16 OFFCURVE",
"292 -16 CURVE SMOOTH",
"293 -16 LINE SMOOTH",
"436 -16 OFFCURVE",
"531 70 OFFCURVE",
"531 194 CURVE SMOOTH",
"531 354 OFFCURVE",
"345 392 OFFCURVE",
"294 412 CURVE SMOOTH"
);
}
);
width = 603;
},
{
anchors = (
{
name = bottom;
position = "{292, 0}";
},
{
name = top;
position = "{291, 690}";
}
);
associatedMasterId = "9540212F-C873-4039-900D-544C1C7D2862";
guideLines = (
{
position = "{832, 716}";
},
{
position = "{818, -16}";
},
{
position = "{841, 604}";
},
{
angle = -16;
position = "{589, 316}";
},
{
angle = 19;
position = "{-11, 370}";
},
{
angle = 19;
position = "{589, 330}";
},
{
position = "{589, 360}";
},
{
angle = -16;
position = "{-11, 386}";
}
);
layerId = "C7A4DFAD-2E97-4B3F-9015-9ED7EF266220";
name = "Regular Mar 15 14, 14:16";
paths = (
{
closed = 1;
nodes = (
"43 142 LINE",
"92 44 OFFCURVE",
"180 -16 OFFCURVE",
"292 -16 CURVE SMOOTH",
"293 -16 LINE SMOOTH",
"436 -16 OFFCURVE",
"534 68 OFFCURVE",
"534 192 CURVE SMOOTH",
"534 352 OFFCURVE",
"345 395 OFFCURVE",
"294 415 CURVE SMOOTH",
"254 431 OFFCURVE",
"173 451 OFFCURVE",
"173 512 CURVE SMOOTH",
"173 571 OFFCURVE",
"216 604 OFFCURVE",
"291 604 CURVE SMOOTH",
"292 604 LINE SMOOTH",
"359 604 OFFCURVE",
"401 573 OFFCURVE",
"427 521 CURVE",
"542 560 LINE",
"493 658 OFFCURVE",
"405 716 OFFCURVE",
"292 716 CURVE SMOOTH",
"291 716 LINE SMOOTH",
"150 716 OFFCURVE",
"53 634 OFFCURVE",
"53 513 CURVE SMOOTH",
"53 352 OFFCURVE",
"218 325 OFFCURVE",
"293 296 CURVE SMOOTH",
"353 274 OFFCURVE",
"414 259 OFFCURVE",
"414 192 CURVE SMOOTH",
"414 130 OFFCURVE",
"369 96 OFFCURVE",
"293 96 CURVE SMOOTH",
"226 96 OFFCURVE",
"183 128 OFFCURVE",
"156 180 CURVE"
);
}
);
width = 584;
},
{
anchors = (
{
name = bottom;
position = "{292, 0}";
},
{
name = top;
position = "{291, 690}";
}
);
associatedMasterId = "9540212F-C873-4039-900D-544C1C7D2862";
guideLines = (
{
position = "{832, 716}";
},
{
position = "{818, -16}";
},
{
position = "{841, 604}";
},
{
angle = -16;
position = "{589, 316}";
},
{
angle = 19;
position = "{-11, 350}";
},
{
angle = 19;
position = "{589, 350}";
},
{
position = "{589, 350}";
},
{
angle = -16;
position = "{-11, 386}";
}
);
layerId = "37A95C82-9CEC-4F22-8DD3-AD0D05E3D69B";
name = "Regular Mar 15 14, 14:25";
paths = (
{
closed = 1;
nodes = (
"34 160 LINE",
"81 51 OFFCURVE",
"173 -16 OFFCURVE",
"292 -16 CURVE SMOOTH",
"293 -16 LINE SMOOTH",
"436 -16 OFFCURVE",
"541 70 OFFCURVE",
"541 194 CURVE SMOOTH",
"541 354 OFFCURVE",
"345 392 OFFCURVE",
"294 412 CURVE SMOOTH",
"254 428 OFFCURVE",
"173 446 OFFCURVE",
"173 507 CURVE SMOOTH",
"173 569 OFFCURVE",
"216 604 OFFCURVE",
"291 604 CURVE SMOOTH",
"292 604 LINE SMOOTH",
"366 604 OFFCURVE",
"409 565 OFFCURVE",
"435 504 CURVE",
"549 544 LINE",
"502 651 OFFCURVE",
"410 716 OFFCURVE",
"292 716 CURVE SMOOTH",
"291 716 LINE SMOOTH",
"150 716 OFFCURVE",
"53 632 OFFCURVE",
"53 508 CURVE SMOOTH",
"53 347 OFFCURVE",
"218 322 OFFCURVE",
"293 293 CURVE SMOOTH",
"353 271 OFFCURVE",
"421 261 OFFCURVE",
"421 194 CURVE SMOOTH",
"421 132 OFFCURVE",
"369 96 OFFCURVE",
"293 96 CURVE SMOOTH",
"219 96 OFFCURVE",
"175 136 OFFCURVE",
"148 198 CURVE"
);
},
{
closed = 1;
nodes = (
"148 198 LINE",
"145 205 OFFCURVE",
"142 213 OFFCURVE",
"139 221 CURVE",
"23 188 LINE",
"26 178 OFFCURVE",
"30 169 OFFCURVE",
"34 160 CURVE"
);
}
);
width = 603;
},
{
anchors = (
{
name = bottom;
position = "{292, 0}";
},
{
name = top;
position = "{291, 690}";
}
);
associatedMasterId = "9540212F-C873-4039-900D-544C1C7D2862";
guideLines = (
{
position = "{832, 716}";
},
{
position = "{818, -16}";
},
{
position = "{841, 604}";
},
{
angle = -16;
position = "{589, 316}";
},
{
angle = 16;
position = "{-11, 350}";
},
{
angle = 16;
position = "{589, 350}";
},
{
position = "{589, 350}";
},
{
angle = -16;
position = "{-11, 386}";
}
);
layerId = "EFA27CE7-27DE-4539-993E-79C20E79E5E5";
name = orginal;
paths = (
{
closed = 1;
nodes = (
"254 428 OFFCURVE",
"173 446 OFFCURVE",
"173 507 CURVE SMOOTH",
"173 569 OFFCURVE",
"216 604 OFFCURVE",
"291 604 CURVE SMOOTH",
"292 604 LINE SMOOTH",
"375 604 OFFCURVE",
"419 555 OFFCURVE",
"444 480 CURVE",
"561 514 LINE",
"518 639 OFFCURVE",
"421 716 OFFCURVE",
"292 716 CURVE SMOOTH",
"291 716 LINE SMOOTH",
"150 716 OFFCURVE",
"53 632 OFFCURVE",
"53 508 CURVE SMOOTH",
"53 347 OFFCURVE",
"218 322 OFFCURVE",
"293 293 CURVE SMOOTH",
"353 271 OFFCURVE",
"411 261 OFFCURVE",
"411 194 CURVE SMOOTH",
"411 132 OFFCURVE",
"369 96 OFFCURVE",
"293 96 CURVE SMOOTH",
"210 96 OFFCURVE",
"165 146 OFFCURVE",
"139 221 CURVE",
"23 188 LINE",
"66 63 OFFCURVE",
"163 -16 OFFCURVE",
"292 -16 CURVE SMOOTH",
"293 -16 LINE SMOOTH",
"436 -16 OFFCURVE",
"531 70 OFFCURVE",
"531 194 CURVE SMOOTH",
"531 354 OFFCURVE",
"345 392 OFFCURVE",
"294 412 CURVE SMOOTH"
);
}
);
width = 603;
},
{
anchors = (
{
name = bottom;
position = "{292, 0}";
},
{
name = top;
position = "{291, 690}";
}
);
associatedMasterId = "9540212F-C873-4039-900D-544C1C7D2862";
guideLines = (
{
position = "{832, 716}";
},
{
position = "{818, -16}";
},
{
position = "{841, 604}";
},
{
angle = -16;
position = "{589, 316}";
},
{
angle = 18;
position = "{-11, 350}";
},
{
angle = 18;
position = "{589, 350}";
},
{
position = "{589, 350}";
},
{
angle = -16;
position = "{-11, 386}";
},
{
angle = 90;
position = "{48, 513}";
},
{
angle = 90;
position = "{553, 534}";
}
);
layerId = "5DFAD18E-A086-43D1-B909-00242734975D";
name = "Regular Mar 15 14, 14:37";
paths = (
{
closed = 1;
nodes = (
"30 169 LINE",
"76 55 OFFCURVE",
"170 -16 OFFCURVE",
"292 -16 CURVE SMOOTH",
"293 -16 LINE SMOOTH",
"436 -16 OFFCURVE",
"546 70 OFFCURVE",
"546 194 CURVE SMOOTH",
"546 354 OFFCURVE",
"345 400 OFFCURVE",
"294 420 CURVE SMOOTH",
"254 436 OFFCURVE",
"168 455 OFFCURVE",
"168 513 CURVE SMOOTH",
"168 570 OFFCURVE",
"216 604 OFFCURVE",
"291 604 CURVE SMOOTH",
"292 604 LINE SMOOTH",
"369 604 OFFCURVE",
"412 562 OFFCURVE",
"438 497 CURVE",
"553 534 LINE",
"507 647 OFFCURVE",
"414 716 OFFCURVE",
"292 716 CURVE SMOOTH",
"291 716 LINE SMOOTH",
"150 716 OFFCURVE",
"48 633 OFFCURVE",
"48 514 CURVE SMOOTH",
"48 356 OFFCURVE",
"218 330 OFFCURVE",
"293 301 CURVE SMOOTH",
"353 279 OFFCURVE",
"426 261 OFFCURVE",
"426 194 CURVE SMOOTH",
"426 132 OFFCURVE",
"369 96 OFFCURVE",
"293 96 CURVE SMOOTH",
"216 96 OFFCURVE",
"171 139 OFFCURVE",
"145 206 CURVE"
);
}
);
width = 595;
},
{
anchors = (
{
name = bottom;
position = "{292, 0}";
},
{
name = top;
position = "{291, 690}";
}
);
associatedMasterId = "9540212F-C873-4039-900D-544C1C7D2862";
guideLines = (
{
position = "{832, 716}";
},
{
position = "{818, -16}";
},
{
position = "{841, 604}";
},
{
angle = -16;
position = "{589, 316}";
},
{
angle = 16;
position = "{-11, 350}";
},
{
angle = 16;
position = "{589, 350}";
},
{
position = "{589, 350}";
},
{
angle = -16;
position = "{-11, 386}";
}
);
layerId = "163E53D2-AF16-4971-A768-DB1D6BBCA491";
name = "orginal Mar 15 14, 16:19";
paths = (
{
closed = 1;
nodes = (
"30 169 LINE",
"77 55 OFFCURVE",
"173 -16 OFFCURVE",
"297 -16 CURVE SMOOTH",
"298 -16 LINE SMOOTH",
"444 -16 OFFCURVE",
"541 70 OFFCURVE",
"541 194 CURVE SMOOTH",
"541 354 OFFCURVE",
"351 392 OFFCURVE",
"299 412 CURVE SMOOTH",
"258 428 OFFCURVE",
"173 446 OFFCURVE",
"173 507 CURVE SMOOTH",
"173 569 OFFCURVE",
"216 604 OFFCURVE",
"291 604 CURVE SMOOTH",
"292 604 LINE SMOOTH",
"369 604 OFFCURVE",
"412 562 OFFCURVE",
"438 496 CURVE",
"554 534 LINE",
"507 647 OFFCURVE",
"414 716 OFFCURVE",
"292 716 CURVE SMOOTH",
"291 716 LINE SMOOTH",
"150 716 OFFCURVE",
"53 632 OFFCURVE",
"53 508 CURVE SMOOTH",
"53 347 OFFCURVE",
"222 322 OFFCURVE",
"298 293 CURVE SMOOTH",
"359 271 OFFCURVE",
"419 261 OFFCURVE",
"419 194 CURVE SMOOTH",
"419 132 OFFCURVE",
"376 96 OFFCURVE",
"298 96 CURVE SMOOTH",
"219 96 OFFCURVE",
"174 139 OFFCURVE",
"147 206 CURVE"
);
}
);
width = 603;
},
{
anchors = (
{
name = bottom;
position = "{286, 0}";
},
{
name = top;
position = "{285, 690}";
}
);
associatedMasterId = "9540212F-C873-4039-900D-544C1C7D2862";
guideLines = (
{
position = "{826, 716}";
},
{
position = "{812, -16}";
},
{
position = "{835, 604}";
},
{
angle = -16;
position = "{583, 316}";
},
{
angle = 18;
position = "{-17, 350}";
},
{
angle = 18;
position = "{583, 350}";
},
{
position = "{583, 350}";
},
{
angle = -16;
position = "{-17, 386}";
},
{
angle = 90;
position = "{42, 513}";
},
{
angle = 90;
position = "{547, 534}";
}
);
layerId = "9A1F5AF5-F7FD-42FA-83DB-DE54FB69F9B6";
name = "Regular Mar 15 14, 16:22";
paths = (
{
closed = 1;
nodes = (
"24 169 LINE",
"70 55 OFFCURVE",
"164 -16 OFFCURVE",
"286 -16 CURVE SMOOTH",
"287 -16 LINE SMOOTH",
"430 -16 OFFCURVE",
"535 70 OFFCURVE",
"535 194 CURVE SMOOTH",
"535 354 OFFCURVE",
"339 397 OFFCURVE",
"288 417 CURVE SMOOTH",
"248 433 OFFCURVE",
"162 451 OFFCURVE",
"162 512 CURVE SMOOTH",
"162 569 OFFCURVE",
"210 604 OFFCURVE",
"285 604 CURVE SMOOTH",
"286 604 LINE SMOOTH",
"363 604 OFFCURVE",
"406 562 OFFCURVE",
"432 497 CURVE",
"547 534 LINE",
"501 647 OFFCURVE",
"408 716 OFFCURVE",
"286 716 CURVE SMOOTH",
"285 716 LINE SMOOTH",
"144 716 OFFCURVE",
"42 632 OFFCURVE",
"42 513 CURVE SMOOTH",
"42 352 OFFCURVE",
"212 327 OFFCURVE",
"287 298 CURVE SMOOTH",
"347 276 OFFCURVE",
"415 261 OFFCURVE",
"415 194 CURVE SMOOTH",
"415 132 OFFCURVE",
"363 96 OFFCURVE",
"287 96 CURVE SMOOTH",
"210 96 OFFCURVE",
"165 139 OFFCURVE",
"139 206 CURVE"
);
}
);
width = 577;
},
{
anchors = (
{
name = bottom;
position = "{281, 0}";
},
{
name = top;
position = "{280, 690}";
}
);
associatedMasterId = "9540212F-C873-4039-900D-544C1C7D2862";
guideLines = (
{
position = "{821, 716}";
},
{
position = "{807, -16}";
},
{
position = "{830, 604}";
},
{
angle = -16;
position = "{578, 316}";
},
{
angle = 18;
position = "{-22, 350}";
},
{
angle = 18;
position = "{578, 350}";
},
{
position = "{578, 350}";
},
{
angle = -16;
position = "{-22, 386}";
},
{
angle = 90;
position = "{37, 513}";
},
{
angle = 90;
position = "{542, 534}";
}
);
layerId = "30CE0354-3B92-4C09-AA69-163D1A673F02";
name = neu;
paths = (
{
closed = 1;
nodes = (
"25 169 LINE",
"73 55 OFFCURVE",
"170 -16 OFFCURVE",
"296 -16 CURVE SMOOTH",
"297 -16 LINE SMOOTH",
"445 -16 OFFCURVE",
"544 70 OFFCURVE",
"544 194 CURVE SMOOTH",
"544 354 OFFCURVE",
"351 392 OFFCURVE",
"298 412 CURVE SMOOTH",
"257 428 OFFCURVE",
"170 451 OFFCURVE",
"170 507 CURVE SMOOTH",
"170 569 OFFCURVE",
"215 604 OFFCURVE",
"286 604 CURVE SMOOTH",
"287 604 LINE SMOOTH",
"364 604 OFFCURVE",
"407 562 OFFCURVE",
"433 496 CURVE",
"549 534 LINE",
"502 647 OFFCURVE",
"409 716 OFFCURVE",
"287 716 CURVE SMOOTH",
"286 716 LINE SMOOTH",
"145 716 OFFCURVE",
"50 632 OFFCURVE",
"50 508 CURVE SMOOTH",
"50 347 OFFCURVE",
"220 322 OFFCURVE",
"297 293 CURVE SMOOTH",
"359 271 OFFCURVE",
"420 259 OFFCURVE",
"420 194 CURVE SMOOTH",
"420 134 OFFCURVE",
"376 96 OFFCURVE",
"297 96 CURVE SMOOTH",
"217 96 OFFCURVE",
"171 139 OFFCURVE",
"144 206 CURVE"
);
}
);
width = 583;
}
);
leftMetricsKey = I;
rightMetricsKey = I;
unicode = 0053;
},
{
glyphname = Sacute;
lastChange = "2018-03-01 10:01:57 +0000";
layers = (
{
background = {
paths = (
{
closed = 1;
nodes = (
"447 893 LINE",
"317 893 LINE",
"235 763 LINE",
"334 763 LINE"
);
},
{
closed = 1;
nodes = (
"286 716 LINE SMOOTH",
"145 716 OFFCURVE",
"50 632 OFFCURVE",
"50 508 CURVE SMOOTH",
"50 347 OFFCURVE",
"220 322 OFFCURVE",
"297 293 CURVE SMOOTH",
"359 271 OFFCURVE",
"420 259 OFFCURVE",
"420 194 CURVE SMOOTH",
"420 134 OFFCURVE",
"376 96 OFFCURVE",
"297 96 CURVE SMOOTH",
"217 96 OFFCURVE",
"171 139 OFFCURVE",
"144 206 CURVE",
"25 169 LINE",
"73 55 OFFCURVE",
"170 -16 OFFCURVE",
"296 -16 CURVE SMOOTH",
"297 -16 LINE SMOOTH",
"445 -16 OFFCURVE",
"544 70 OFFCURVE",
"544 194 CURVE SMOOTH",
"544 354 OFFCURVE",
"351 392 OFFCURVE",
"298 412 CURVE SMOOTH",
"257 428 OFFCURVE",
"170 451 OFFCURVE",
"170 507 CURVE SMOOTH",
"170 569 OFFCURVE",
"215 604 OFFCURVE",
"286 604 CURVE SMOOTH",
"287 604 LINE SMOOTH",
"364 604 OFFCURVE",
"407 562 OFFCURVE",
"433 496 CURVE",
"549 534 LINE",
"502 647 OFFCURVE",
"409 716 OFFCURVE",
"287 716 CURVE SMOOTH"
);
}
);
};
components = (
{
name = S;
},
{
name = acute;
transform = "{1, 0, 0, 1, 47, 181}";
}
);
layerId = "9540212F-C873-4039-900D-544C1C7D2862";
width = 604;
}
);
leftKerningGroup = S;
rightKerningGroup = S;
unicode = 015A;
},
{
glyphname = Scaron;
lastChange = "2018-03-01 10:01:57 +0000";
layers = (
{
background = {
paths = (
{
closed = 1;
nodes = (
"435 893 LINE",
"333 893 LINE",
"284 823 LINE",
"235 893 LINE",
"134 893 LINE",
"235 763 LINE",
"334 763 LINE"
);
},
{
closed = 1;
nodes = (
"286 716 LINE SMOOTH",
"145 716 OFFCURVE",
"50 632 OFFCURVE",
"50 508 CURVE SMOOTH",
"50 347 OFFCURVE",
"220 322 OFFCURVE",
"297 293 CURVE SMOOTH",
"359 271 OFFCURVE",
"420 259 OFFCURVE",
"420 194 CURVE SMOOTH",
"420 134 OFFCURVE",
"376 96 OFFCURVE",
"297 96 CURVE SMOOTH",
"217 96 OFFCURVE",
"171 139 OFFCURVE",
"144 206 CURVE",
"25 169 LINE",
"73 55 OFFCURVE",
"170 -16 OFFCURVE",
"296 -16 CURVE SMOOTH",
"297 -16 LINE SMOOTH",
"445 -16 OFFCURVE",
"544 70 OFFCURVE",
"544 194 CURVE SMOOTH",
"544 354 OFFCURVE",
"351 392 OFFCURVE",
"298 412 CURVE SMOOTH",
"257 428 OFFCURVE",
"170 451 OFFCURVE",
"170 507 CURVE SMOOTH",
"170 569 OFFCURVE",
"215 604 OFFCURVE",
"286 604 CURVE SMOOTH",
"287 604 LINE SMOOTH",
"364 604 OFFCURVE",
"407 562 OFFCURVE",
"433 496 CURVE",
"549 534 LINE",
"502 647 OFFCURVE",
"409 716 OFFCURVE",
"287 716 CURVE SMOOTH"
);
}
);
};
components = (
{
name = S;
},
{
name = caron;
transform = "{1, 0, 0, 1, 47, 181}";
}
);
layerId = "9540212F-C873-4039-900D-544C1C7D2862";
width = 604;
}
);
leftKerningGroup = S;
rightKerningGroup = S;
unicode = 0160;
},
{
glyphname = Scedilla;
lastChange = "2018-03-01 10:01:57 +0000";
layers = (
{
background = {
paths = (
{
closed = 1;
nodes = (
"257 428 OFFCURVE",
"170 451 OFFCURVE",
"170 507 CURVE SMOOTH",
"170 569 OFFCURVE",
"215 604 OFFCURVE",
"286 604 CURVE SMOOTH",
"287 604 LINE SMOOTH",
"364 604 OFFCURVE",
"407 562 OFFCURVE",
"433 496 CURVE",
"549 534 LINE",
"502 647 OFFCURVE",
"409 716 OFFCURVE",
"287 716 CURVE SMOOTH",
"286 716 LINE SMOOTH",
"145 716 OFFCURVE",
"50 632 OFFCURVE",
"50 508 CURVE SMOOTH",
"50 347 OFFCURVE",
"220 322 OFFCURVE",
"297 293 CURVE SMOOTH",
"359 271 OFFCURVE",
"420 259 OFFCURVE",
"420 194 CURVE SMOOTH",
"420 134 OFFCURVE",
"376 96 OFFCURVE",
"297 96 CURVE SMOOTH",
"217 96 OFFCURVE",
"171 139 OFFCURVE",
"144 206 CURVE",
"25 169 LINE",
"67.25 68.657 OFFCURVE",
"147.463 1.629 OFFCURVE",
"252 -13 CURVE",
"252 -97 LINE",
"253 -97 OFFCURVE",
"255 -97 OFFCURVE",
"256 -97 CURVE SMOOTH",
"260 -97 LINE SMOOTH",
"286 -97 OFFCURVE",
"310 -103 OFFCURVE",
"310 -127 CURVE SMOOTH",
"310 -150 OFFCURVE",
"281 -155 OFFCURVE",
"257 -155 CURVE SMOOTH",
"232 -155 OFFCURVE",
"204 -144 OFFCURVE",
"189 -128 CURVE",
"159 -180 LINE",
"191 -206 OFFCURVE",
"227 -218 OFFCURVE",
"276 -218 CURVE SMOOTH",
"328 -218 OFFCURVE",
"393 -190 OFFCURVE",
"393 -130 CURVE SMOOTH",
"393 -87 OFFCURVE",
"358.289 -60 OFFCURVE",
"319 -53 CURVE",
"319 -15 LINE",
"454.729 -7 OFFCURVE",
"544 76.25 OFFCURVE",
"544 194 CURVE SMOOTH",
"544 354 OFFCURVE",
"351 392 OFFCURVE",
"298 412 CURVE SMOOTH"
);
}
);
};
components = (
{
name = S;
},
{
name = cedilla;
transform = "{1, 0, 0, 1, -123, 0}";
}
);
layerId = "9540212F-C873-4039-900D-544C1C7D2862";
width = 604;
}
);
leftKerningGroup = S;
rightKerningGroup = S;
unicode = 015E;
},
{
glyphname = Scircumflex;
lastChange = "2018-03-01 10:01:57 +0000";
layers = (
{
background = {
paths = (
{
closed = 1;
nodes = (
"334 893 LINE",
"235 893 LINE",
"134 763 LINE",
"235 763 LINE",
"284 833 LINE",
"333 763 LINE",
"435 763 LINE"
);
},
{
closed = 1;
nodes = (
"286 716 LINE SMOOTH",
"145 716 OFFCURVE",
"50 632 OFFCURVE",
"50 508 CURVE SMOOTH",
"50 347 OFFCURVE",
"220 322 OFFCURVE",
"297 293 CURVE SMOOTH",
"359 271 OFFCURVE",
"420 259 OFFCURVE",
"420 194 CURVE SMOOTH",
"420 134 OFFCURVE",
"376 96 OFFCURVE",
"297 96 CURVE SMOOTH",
"217 96 OFFCURVE",
"171 139 OFFCURVE",
"144 206 CURVE",
"25 169 LINE",
"73 55 OFFCURVE",
"170 -16 OFFCURVE",
"296 -16 CURVE SMOOTH",
"297 -16 LINE SMOOTH",
"445 -16 OFFCURVE",
"544 70 OFFCURVE",
"544 194 CURVE SMOOTH",
"544 354 OFFCURVE",
"351 392 OFFCURVE",
"298 412 CURVE SMOOTH",
"257 428 OFFCURVE",
"170 451 OFFCURVE",
"170 507 CURVE SMOOTH",
"170 569 OFFCURVE",
"215 604 OFFCURVE",
"286 604 CURVE SMOOTH",
"287 604 LINE SMOOTH",
"364 604 OFFCURVE",
"407 562 OFFCURVE",
"433 496 CURVE",
"549 534 LINE",
"502 647 OFFCURVE",
"409 716 OFFCURVE",
"287 716 CURVE SMOOTH"
);
}
);
};
components = (
{
name = S;
},
{
name = circumflex;
transform = "{1, 0, 0, 1, 47, 181}";
}
);
layerId = "9540212F-C873-4039-900D-544C1C7D2862";
width = 604;
}
);
leftKerningGroup = S;
rightKerningGroup = S;
unicode = 015C;
},
{
glyphname = Scommaaccent;
lastChange = "2018-03-01 10:01:57 +0000";
layers = (
{
background = {
paths = (
{
closed = 1;
nodes = (
"257 428 OFFCURVE",
"170 451 OFFCURVE",
"170 507 CURVE SMOOTH",
"170 569 OFFCURVE",
"215 604 OFFCURVE",
"286 604 CURVE SMOOTH",
"287 604 LINE SMOOTH",
"364 604 OFFCURVE",
"407 562 OFFCURVE",
"433 496 CURVE",
"549 534 LINE",
"502 647 OFFCURVE",
"409 716 OFFCURVE",
"287 716 CURVE SMOOTH",
"286 716 LINE SMOOTH",
"145 716 OFFCURVE",
"50 632 OFFCURVE",
"50 508 CURVE SMOOTH",
"50 347 OFFCURVE",
"220 322 OFFCURVE",
"297 293 CURVE SMOOTH",
"359 271 OFFCURVE",
"420 259 OFFCURVE",
"420 194 CURVE SMOOTH",
"420 134 OFFCURVE",
"376 96 OFFCURVE",
"297 96 CURVE SMOOTH",
"217 96 OFFCURVE",
"171 139 OFFCURVE",
"144 206 CURVE",
"25 169 LINE",
"73 55 OFFCURVE",
"170 -16 OFFCURVE",
"296 -16 CURVE SMOOTH",
"297 -16 LINE SMOOTH",
"445 -16 OFFCURVE",
"544 70 OFFCURVE",
"544 194 CURVE SMOOTH",
"544 354 OFFCURVE",
"351 392 OFFCURVE",
"298 412 CURVE SMOOTH"
);
},
{
closed = 1;
nodes = (
"238 -176 LINE",
"297 -176 LINE",
"265 -268 LINE",
"328 -268 LINE",
"360 -176 LINE",
"360 -58 LINE",
"238 -58 LINE"
);
}
);
};
components = (
{
name = commaaccent;
},
{
name = S;
}
);
layerId = "9540212F-C873-4039-900D-544C1C7D2862";
width = 600;
}
);
leftKerningGroup = S;
rightKerningGroup = S;
unicode = 0218;
},
{
glyphname = T;
lastChange = "2018-03-01 10:01:57 +0000";
layers = (
{
anchors = (
{
name = bottom;
position = "{206, 0}";
},
{
name = center;
position = "{302, 350}";
},
{
name = top;
position = "{206, 702}";
}
);
background = {
paths = (
{
closed = 1;
nodes = (
"488 700 LINE",
"8 700 LINE",
"8 588 LINE",
"188 588 LINE",
"188 0 LINE",
"308 0 LINE",
"308 588 LINE",
"488 588 LINE"
);
}
);
};
layerId = "9540212F-C873-4039-900D-544C1C7D2862";
leftMetricsKey = "=I";
rightMetricsKey = "=I";
paths = (
{
closed = 1;
nodes = (
"568 510 LINE",
"568 702 LINE",
"36 702 LINE",
"36 510 LINE",
"206 510 LINE",
"206 0 LINE",
"398 0 LINE",
"398 510 LINE"
);
},
{
closed = 1;
nodes = (
"546 532 LINE",
"376 532 LINE",
"376 22 LINE",
"228 22 LINE",
"228 532 LINE",
"58 532 LINE",
"58 680 LINE",
"546 680 LINE"
);
}
);
width = 604;
}
);
leftKerningGroup = T;
leftMetricsKey = I;
rightKerningGroup = T;
rightMetricsKey = I;
unicode = 0054;
},
{
glyphname = Tbar;
lastChange = "2018-03-01 10:01:57 +0000";
layers = (
{
background = {
paths = (
{
closed = 1;
nodes = (
"488 588 LINE",
"488 700 LINE",
"8 700 LINE",
"8 588 LINE",
"188 588 LINE",
"188 395 LINE",
"100 395 LINE",
"100 320 LINE",
"188 320 LINE",
"188 0 LINE",
"308 0 LINE",
"308 320 LINE",
"440 320 LINE",
"440 395 LINE",
"308 395 LINE",
"308 588 LINE"
);
}
);
};
layerId = "9540212F-C873-4039-900D-544C1C7D2862";
leftMetricsKey = "=T";
rightMetricsKey = "=T";
paths = (
{
closed = 1;
nodes = (
"568 510 LINE",
"568 702 LINE",
"36 702 LINE",
"36 510 LINE",
"206 510 LINE",
"206 362 LINE",
"47 362 LINE",
"47 340 LINE",
"206 340 LINE",
"206 0 LINE",
"398 0 LINE",
"398 340 LINE",
"557 340 LINE",
"557 362 LINE",
"398 362 LINE",
"398 510 LINE"
);
},
{
closed = 1;
nodes = (
"376 532 LINE",
"376 22 LINE",
"228 22 LINE",
"228 532 LINE",
"58 532 LINE",
"58 680 LINE",
"546 680 LINE",
"546 532 LINE"
);
}
);
width = 604;
}
);
leftKerningGroup = T;
leftMetricsKey = T;
rightKerningGroup = T;
rightMetricsKey = T;
unicode = 0166;
},
{
glyphname = Tcaron;
lastChange = "2018-03-01 10:01:57 +0000";
layers = (
{
background = {
paths = (
{
closed = 1;
nodes = (
"399 883 LINE",
"297 883 LINE",
"248 813 LINE",
"199 883 LINE",
"98 883 LINE",
"199 753 LINE",
"298 753 LINE"
);
},
{
closed = 1;
nodes = (
"488 700 LINE",
"8 700 LINE",
"8 588 LINE",
"188 588 LINE",
"188 0 LINE",
"308 0 LINE",
"308 588 LINE",
"488 588 LINE"
);
}
);
};
components = (
{
name = T;
},
{
name = caron;
transform = "{1, 0, 0, 1, 47, 181}";
}
);
layerId = "9540212F-C873-4039-900D-544C1C7D2862";
width = 604;
}
);
leftKerningGroup = T;
rightKerningGroup = T;
unicode = 0164;
},
{
glyphname = Tcommaaccent;
lastChange = "2018-03-01 10:01:57 +0000";
layers = (
{
background = {
paths = (
{
closed = 1;
nodes = (
"8 700 LINE",
"8 588 LINE",
"188 588 LINE",
"188 0 LINE",
"308 0 LINE",
"308 588 LINE",
"488 588 LINE",
"488 700 LINE"
);
},
{
closed = 1;
nodes = (
"187 -176 LINE",
"246 -176 LINE",
"214 -268 LINE",
"277 -268 LINE",
"309 -176 LINE",
"309 -58 LINE",
"187 -58 LINE"
);
}
);
};
components = (
{
name = T;
},
{
name = commaaccent;
transform = "{1, 0, 0, 1, -156, 0}";
}
);
layerId = "9540212F-C873-4039-900D-544C1C7D2862";
width = 604;
}
);
leftKerningGroup = T;
rightKerningGroup = T;
unicode = 021A;
},
{
glyphname = U;
lastChange = "2018-03-01 10:01:57 +0000";
layers = (
{
anchors = (
{
name = ogonek;
position = "{321, 0}";
},
{
name = top;
position = "{206, 702}";
}
);
background = {
paths = (
{
closed = 1;
nodes = (
"605 700 LINE",
"485 700 LINE",
"485 265 LINE SMOOTH",
"485 152 OFFCURVE",
"425 96 OFFCURVE",
"334 96 CURVE SMOOTH",
"245 96 OFFCURVE",
"185 152 OFFCURVE",
"185 265 CURVE SMOOTH",
"185 700 LINE",
"65 700 LINE",
"65 251 LINE SMOOTH",
"65 88 OFFCURVE",
"171 -16 OFFCURVE",
"335 -16 CURVE SMOOTH",
"499 -16 OFFCURVE",
"605 88 OFFCURVE",
"605 251 CURVE SMOOTH"
);
}
);
};
guideLines = (
{
position = "{685, -16}";
},
{
position = "{691, 96}";
}
);
layerId = "9540212F-C873-4039-900D-544C1C7D2862";
leftMetricsKey = "=I";
rightMetricsKey = "=I";
paths = (
{
closed = 1;
nodes = (
"376 702 LINE",
"376 192 LINE",
"228 192 LINE",
"228 702 LINE",
"36 702 LINE",
"36 0 LINE",
"398 0 LINE",
"398 170 LINE",
"568 170 LINE",
"568 702 LINE"
);
},
{
closed = 1;
nodes = (
"376 22 LINE",
"58 22 LINE",
"58 680 LINE",
"206 680 LINE",
"206 170 LINE",
"376 170 LINE"
);
},
{
closed = 1;
nodes = (
"546 192 LINE",
"398 192 LINE",
"398 680 LINE",
"546 680 LINE"
);
}
);
width = 604;
}
);
leftMetricsKey = I;
rightMetricsKey = I;
unicode = 0055;
},
{
glyphname = Uacute;
lastChange = "2018-03-01 10:01:57 +0000";
layers = (
{
background = {
paths = (
{
closed = 1;
nodes = (
"493 883 LINE",
"363 883 LINE",
"281 753 LINE",
"380 753 LINE"
);
},
{
closed = 1;
nodes = (
"605 700 LINE",
"485 700 LINE",
"485 265 LINE SMOOTH",
"485 152 OFFCURVE",
"425 96 OFFCURVE",
"334 96 CURVE SMOOTH",
"245 96 OFFCURVE",
"185 152 OFFCURVE",
"185 265 CURVE SMOOTH",
"185 700 LINE",
"65 700 LINE",
"65 251 LINE SMOOTH",
"65 88 OFFCURVE",
"171 -16 OFFCURVE",
"335 -16 CURVE SMOOTH",
"499 -16 OFFCURVE",
"605 88 OFFCURVE",
"605 251 CURVE SMOOTH"
);
}
);
};
components = (
{
name = U;
},
{
name = acute;
transform = "{1, 0, 0, 1, 47, 181}";
}
);
layerId = "9540212F-C873-4039-900D-544C1C7D2862";
width = 604;
}
);
leftKerningGroup = U;
rightKerningGroup = U;
unicode = 00DA;
},
{
glyphname = Ubreve;
lastChange = "2018-03-01 10:01:57 +0000";
layers = (
{
background = {
paths = (
{
closed = 1;
nodes = (
"391 883 LINE",
"391 857 OFFCURVE",
"376 821 OFFCURVE",
"343 821 CURVE SMOOTH",
"318 821 LINE SMOOTH",
"284 821 OFFCURVE",
"270 857 OFFCURVE",
"270 883 CURVE",
"195 883 LINE",
"195 849 OFFCURVE",
"204 808 OFFCURVE",
"225 786 CURVE",
"244 763 OFFCURVE",
"275 753 OFFCURVE",
"305 753 CURVE SMOOTH",
"356 753 LINE SMOOTH",
"386 753 OFFCURVE",
"417 763 OFFCURVE",
"437 786 CURVE SMOOTH",
"456 808 OFFCURVE",
"466 849 OFFCURVE",
"466 883 CURVE"
);
},
{
closed = 1;
nodes = (
"605 700 LINE",
"485 700 LINE",
"485 265 LINE SMOOTH",
"485 152 OFFCURVE",
"425 96 OFFCURVE",
"334 96 CURVE SMOOTH",
"245 96 OFFCURVE",
"185 152 OFFCURVE",
"185 265 CURVE SMOOTH",
"185 700 LINE",
"65 700 LINE",
"65 251 LINE SMOOTH",
"65 88 OFFCURVE",
"171 -16 OFFCURVE",
"335 -16 CURVE SMOOTH",
"499 -16 OFFCURVE",
"605 88 OFFCURVE",
"605 251 CURVE SMOOTH"
);
}
);
};
components = (
{
name = U;
},
{
name = breve;
transform = "{1, 0, 0, 1, 47, 181}";
}
);
layerId = "9540212F-C873-4039-900D-544C1C7D2862";
width = 604;
}
);
leftKerningGroup = U;
rightKerningGroup = U;
unicode = 016C;
},
{
glyphname = Ucircumflex;
lastChange = "2018-03-01 10:01:57 +0000";
layers = (
{
background = {
paths = (
{
closed = 1;
nodes = (
"380 883 LINE",
"281 883 LINE",
"180 753 LINE",
"281 753 LINE",
"330 823 LINE",
"379 753 LINE",
"481 753 LINE"
);
},
{
closed = 1;
nodes = (
"605 700 LINE",
"485 700 LINE",
"485 265 LINE SMOOTH",
"485 152 OFFCURVE",
"425 96 OFFCURVE",
"334 96 CURVE SMOOTH",
"245 96 OFFCURVE",
"185 152 OFFCURVE",
"185 265 CURVE SMOOTH",
"185 700 LINE",
"65 700 LINE",
"65 251 LINE SMOOTH",
"65 88 OFFCURVE",
"171 -16 OFFCURVE",
"335 -16 CURVE SMOOTH",
"499 -16 OFFCURVE",
"605 88 OFFCURVE",
"605 251 CURVE SMOOTH"
);
}
);
};
components = (
{
name = U;
},
{
name = circumflex;
transform = "{1, 0, 0, 1, 47, 181}";
}
);
layerId = "9540212F-C873-4039-900D-544C1C7D2862";
width = 604;
}
);
leftKerningGroup = U;
rightKerningGroup = U;
unicode = 00DB;
},
{
glyphname = Udieresis;
lastChange = "2018-03-01 10:01:57 +0000";
layers = (
{
background = {
paths = (
{
closed = 1;
nodes = (
"282 883 LINE",
"177 883 LINE",
"177 776 LINE",
"282 776 LINE"
);
},
{
closed = 1;
nodes = (
"485 883 LINE",
"380 883 LINE",
"380 776 LINE",
"485 776 LINE"
);
},
{
closed = 1;
nodes = (
"605 700 LINE",
"485 700 LINE",
"485 265 LINE SMOOTH",
"485 152 OFFCURVE",
"425 96 OFFCURVE",
"334 96 CURVE SMOOTH",
"245 96 OFFCURVE",
"185 152 OFFCURVE",
"185 265 CURVE SMOOTH",
"185 700 LINE",
"65 700 LINE",
"65 251 LINE SMOOTH",
"65 88 OFFCURVE",
"171 -16 OFFCURVE",
"335 -16 CURVE SMOOTH",
"499 -16 OFFCURVE",
"605 88 OFFCURVE",
"605 251 CURVE SMOOTH"
);
}
);
};
components = (
{
name = U;
},
{
name = dieresis;
transform = "{1, 0, 0, 1, 47, 181}";
}
);
layerId = "9540212F-C873-4039-900D-544C1C7D2862";
width = 604;
}
);
leftKerningGroup = U;
rightKerningGroup = U;
unicode = 00DC;
},
{
glyphname = Ugrave;
lastChange = "2018-03-01 10:01:57 +0000";
layers = (
{
background = {
paths = (
{
closed = 1;
nodes = (
"298 883 LINE",
"168 883 LINE",
"281 753 LINE",
"380 753 LINE"
);
},
{
closed = 1;
nodes = (
"605 700 LINE",
"485 700 LINE",
"485 265 LINE SMOOTH",
"485 152 OFFCURVE",
"425 96 OFFCURVE",
"334 96 CURVE SMOOTH",
"245 96 OFFCURVE",
"185 152 OFFCURVE",
"185 265 CURVE SMOOTH",
"185 700 LINE",
"65 700 LINE",
"65 251 LINE SMOOTH",
"65 88 OFFCURVE",
"171 -16 OFFCURVE",
"335 -16 CURVE SMOOTH",
"499 -16 OFFCURVE",
"605 88 OFFCURVE",
"605 251 CURVE SMOOTH"
);
}
);
};
components = (
{
name = U;
},
{
name = grave;
transform = "{1, 0, 0, 1, -123, 181}";
}
);
layerId = "9540212F-C873-4039-900D-544C1C7D2862";
width = 604;
}
);
leftKerningGroup = U;
rightKerningGroup = U;
unicode = 00D9;
},
{
glyphname = Uhungarumlaut;
lastChange = "2018-03-01 10:01:57 +0000";
layers = (
{
background = {
paths = (
{
closed = 1;
nodes = (
"403 883 LINE",
"273 883 LINE",
"191 753 LINE",
"290 753 LINE"
);
},
{
closed = 1;
nodes = (
"584 883 LINE",
"454 883 LINE",
"372 753 LINE",
"471 753 LINE"
);
},
{
closed = 1;
nodes = (
"605 700 LINE",
"485 700 LINE",
"485 265 LINE SMOOTH",
"485 152 OFFCURVE",
"425 96 OFFCURVE",
"334 96 CURVE SMOOTH",
"245 96 OFFCURVE",
"185 152 OFFCURVE",
"185 265 CURVE SMOOTH",
"185 700 LINE",
"65 700 LINE",
"65 251 LINE SMOOTH",
"65 88 OFFCURVE",
"171 -16 OFFCURVE",
"335 -16 CURVE SMOOTH",
"499 -16 OFFCURVE",
"605 88 OFFCURVE",
"605 251 CURVE SMOOTH"
);
}
);
};
components = (
{
name = U;
},
{
name = hungarumlaut;
transform = "{1, 0, 0, 1, 47, 181}";
}
);
layerId = "9540212F-C873-4039-900D-544C1C7D2862";
width = 604;
}
);
leftKerningGroup = U;
rightKerningGroup = U;
unicode = 0170;
},
{
glyphname = Umacron;
lastChange = "2018-03-01 10:01:57 +0000";
layers = (
{
background = {
paths = (
{
closed = 1;
nodes = (
"471 846 LINE",
"190 846 LINE",
"190 774 LINE",
"471 774 LINE"
);
},
{
closed = 1;
nodes = (
"605 700 LINE",
"485 700 LINE",
"485 265 LINE SMOOTH",
"485 152 OFFCURVE",
"425 96 OFFCURVE",
"334 96 CURVE SMOOTH",
"245 96 OFFCURVE",
"185 152 OFFCURVE",
"185 265 CURVE SMOOTH",
"185 700 LINE",
"65 700 LINE",
"65 251 LINE SMOOTH",
"65 88 OFFCURVE",
"171 -16 OFFCURVE",
"335 -16 CURVE SMOOTH",
"499 -16 OFFCURVE",
"605 88 OFFCURVE",
"605 251 CURVE SMOOTH"
);
}
);
};
components = (
{
name = U;
},
{
name = macron;
transform = "{1, 0, 0, 1, 47, 170}";
}
);
layerId = "9540212F-C873-4039-900D-544C1C7D2862";
width = 604;
}
);
leftKerningGroup = U;
rightKerningGroup = U;
unicode = 016A;
},
{
glyphname = Uogonek;
lastChange = "2018-03-01 10:01:57 +0000";
layers = (
{
background = {
paths = (
{
closed = 1;
nodes = (
"485 700 LINE",
"485 265 LINE SMOOTH",
"485 152 OFFCURVE",
"425 96 OFFCURVE",
"334 96 CURVE SMOOTH",
"245 96 OFFCURVE",
"185 152 OFFCURVE",
"185 265 CURVE SMOOTH",
"185 700 LINE",
"65 700 LINE",
"65 251 LINE SMOOTH",
"65 107.334 OFFCURVE",
"147.345 9.502 OFFCURVE",
"279.171 -12 CURVE",
"250.065 -37 OFFCURVE",
"223 -76 OFFCURVE",
"223 -117 CURVE SMOOTH",
"223 -149 OFFCURVE",
"234 -171 OFFCURVE",
"253 -184 CURVE SMOOTH",
"272 -197 OFFCURVE",
"295 -203 OFFCURVE",
"322 -203 CURVE SMOOTH",
"353 -203 OFFCURVE",
"401 -193 OFFCURVE",
"455 -150 CURVE",
"420 -98 LINE",
"387 -117 OFFCURVE",
"363 -127 OFFCURVE",
"343 -124 CURVE SMOOTH",
"328 -122 OFFCURVE",
"316 -117 OFFCURVE",
"316 -98 CURVE SMOOTH",
"316 -76 OFFCURVE",
"360.123 -40 OFFCURVE",
"400.227 -10 CURVE",
"526.556 14.22 OFFCURVE",
"605 110.779 OFFCURVE",
"605 251 CURVE SMOOTH",
"605 700 LINE"
);
}
);
};
components = (
{
name = U;
},
{
name = ogonek.case;
transform = "{1, 0, 0, 1, 332, 0}";
}
);
layerId = "9540212F-C873-4039-900D-544C1C7D2862";
width = 604;
}
);
leftKerningGroup = U;
rightKerningGroup = U;
unicode = 0172;
},
{
glyphname = Uring;
lastChange = "2018-03-01 10:01:57 +0000";
layers = (
{
background = {
paths = (
{
closed = 1;
nodes = (
"286 899 OFFCURVE",
"251 863 OFFCURVE",
"251 817 CURVE SMOOTH",
"251 773 OFFCURVE",
"287 738 OFFCURVE",
"331 738 CURVE SMOOTH",
"376 738 OFFCURVE",
"411 773 OFFCURVE",
"411 817 CURVE SMOOTH",
"411 863 OFFCURVE",
"376 899 OFFCURVE",
"332 899 CURVE SMOOTH"
);
},
{
closed = 1;
nodes = (
"352 853 OFFCURVE",
"367 838 OFFCURVE",
"367 819 CURVE SMOOTH",
"367 798 OFFCURVE",
"350 783 OFFCURVE",
"331 783 CURVE SMOOTH",
"311 783 OFFCURVE",
"296 798 OFFCURVE",
"296 817 CURVE SMOOTH",
"296 839 OFFCURVE",
"311 853 OFFCURVE",
"332 853 CURVE SMOOTH"
);
},
{
closed = 1;
nodes = (
"605 700 LINE",
"485 700 LINE",
"485 265 LINE SMOOTH",
"485 152 OFFCURVE",
"425 96 OFFCURVE",
"334 96 CURVE SMOOTH",
"245 96 OFFCURVE",
"185 152 OFFCURVE",
"185 265 CURVE SMOOTH",
"185 700 LINE",
"65 700 LINE",
"65 251 LINE SMOOTH",
"65 88 OFFCURVE",
"171 -16 OFFCURVE",
"335 -16 CURVE SMOOTH",
"499 -16 OFFCURVE",
"605 88 OFFCURVE",
"605 251 CURVE SMOOTH"
);
}
);
};
components = (
{
name = U;
},
{
name = ring;
transform = "{1, 0, 0, 1, 47, 170}";
}
);
layerId = "9540212F-C873-4039-900D-544C1C7D2862";
width = 604;
}
);
leftKerningGroup = U;
rightKerningGroup = U;
unicode = 016E;
},
{
glyphname = Utilde;
lastChange = "2018-03-01 10:01:57 +0000";
layers = (
{
background = {
paths = (
{
closed = 1;
nodes = (
"436 882 LINE",
"411 844 OFFCURVE",
"403 839 OFFCURVE",
"385 839 CURVE SMOOTH",
"377 839 OFFCURVE",
"369 840 OFFCURVE",
"351 852 CURVE",
"308 874 OFFCURVE",
"295 876 OFFCURVE",
"278 876 CURVE SMOOTH",
"245 876 OFFCURVE",
"189 843 OFFCURVE",
"172 792 CURVE",
"231 757 LINE",
"249 790 OFFCURVE",
"259 798 OFFCURVE",
"278 798 CURVE SMOOTH",
"291 798 OFFCURVE",
"297 796 OFFCURVE",
"329 780 CURVE",
"353 766 OFFCURVE",
"369 761 OFFCURVE",
"386 761 CURVE SMOOTH",
"419 761 OFFCURVE",
"463 785 OFFCURVE",
"490 838 CURVE"
);
},
{
closed = 1;
nodes = (
"605 700 LINE",
"485 700 LINE",
"485 265 LINE SMOOTH",
"485 152 OFFCURVE",
"425 96 OFFCURVE",
"334 96 CURVE SMOOTH",
"245 96 OFFCURVE",
"185 152 OFFCURVE",
"185 265 CURVE SMOOTH",
"185 700 LINE",
"65 700 LINE",
"65 251 LINE SMOOTH",
"65 88 OFFCURVE",
"171 -16 OFFCURVE",
"335 -16 CURVE SMOOTH",
"499 -16 OFFCURVE",
"605 88 OFFCURVE",
"605 251 CURVE SMOOTH"
);
}
);
};
components = (
{
name = U;
},
{
name = tilde;
transform = "{1, 0, 0, 1, 47, 170}";
}
);
layerId = "9540212F-C873-4039-900D-544C1C7D2862";
width = 604;
}
);
leftKerningGroup = U;
rightKerningGroup = U;
unicode = 0168;
},
{
glyphname = V;
lastChange = "2018-03-01 10:01:57 +0000";
layers = (
{
background = {
paths = (
{
closed = 1;
nodes = (
"599 700 LINE",
"478 700 LINE",
"299 152 LINE",
"121 700 LINE",
"0 700 LINE",
"227 0 LINE",
"370 0 LINE"
);
}
);
};
guideLines = (
{
position = "{228, 362}";
}
);
layerId = "9540212F-C873-4039-900D-544C1C7D2862";
leftMetricsKey = "=I";
rightMetricsKey = "=I";
paths = (
{
closed = 1;
nodes = (
"546 702 LINE",
"546 532 LINE",
"376 532 LINE",
"376 362 LINE",
"228 362 LINE",
"228 702 LINE",
"36 702 LINE",
"36 340 LINE",
"206 340 LINE",
"206 0 LINE",
"398 0 LINE",
"398 170 LINE",
"568 170 LINE",
"568 702 LINE"
);
},
{
closed = 1;
nodes = (
"58 362 LINE",
"58 680 LINE",
"206 680 LINE",
"206 362 LINE"
);
},
{
closed = 1;
nodes = (
"546 192 LINE",
"398 192 LINE",
"398 510 LINE",
"546 510 LINE"
);
},
{
closed = 1;
nodes = (
"376 22 LINE",
"228 22 LINE",
"228 340 LINE",
"376 340 LINE"
);
}
);
width = 604;
},
{
associatedMasterId = "9540212F-C873-4039-900D-544C1C7D2862";
layerId = "9F155A98-F97E-4D4F-9636-1B78DD1AA859";
name = Orginal;
paths = (
{
closed = 1;
nodes = (
"299 167 LINE",
"126 700 LINE",
"0 700 LINE",
"227 0 LINE",
"370 0 LINE",
"599 700 LINE",
"473 700 LINE"
);
}
);
width = 599;
},
{
associatedMasterId = "9540212F-C873-4039-900D-544C1C7D2862";
layerId = "38BCACD1-59DD-41A7-B81E-384158D95209";
name = "Orginal Mar 15 14, 20:31";
paths = (
{
closed = 1;
nodes = (
"299 152 LINE",
"121 700 LINE",
"0 700 LINE",
"227 0 LINE",
"370 0 LINE",
"599 700 LINE",
"478 700 LINE"
);
}
);
width = 599;
}
);
leftKerningGroup = V;
leftMetricsKey = I;
rightMetricsKey = I;
unicode = 0056;
},
{
glyphname = W;
lastChange = "2018-03-01 10:01:57 +0000";
layers = (
{
anchors = (
{
name = top;
position = "{206, 702}";
}
);
background = {
paths = (
{
closed = 1;
nodes = (
"899 700 LINE",
"783 700 LINE",
"652 194 LINE",
"505 700 LINE",
"394 700 LINE",
"246 193 LINE",
"116 700 LINE",
"0 700 LINE",
"178 0 LINE",
"308 0 LINE",
"449 516 LINE",
"590 0 LINE",
"720 0 LINE"
);
}
);
};
layerId = "9540212F-C873-4039-900D-544C1C7D2862";
leftMetricsKey = "=I";
rightMetricsKey = "=w";
paths = (
{
closed = 1;
nodes = (
"398 362 LINE",
"398 680 LINE",
"546 680 LINE",
"546 362 LINE"
);
},
{
closed = 1;
nodes = (
"376 22 LINE",
"58 22 LINE",
"58 340 LINE",
"206 340 LINE",
"206 181 LINE",
"228 181 LINE",
"228 510 LINE",
"376 510 LINE"
);
},
{
closed = 1;
nodes = (
"716 22 LINE",
"568 22 LINE",
"568 340 LINE",
"716 340 LINE"
);
},
{
closed = 1;
nodes = (
"738 680 LINE",
"908 680 LINE",
"908 702 LINE",
"716 702 LINE",
"716 362 LINE",
"568 362 LINE",
"568 702 LINE",
"376 702 LINE",
"376 532 LINE",
"206 532 LINE",
"206 362 LINE",
"58 362 LINE",
"58 702 LINE",
"36 702 LINE",
"36 0 LINE",
"398 0 LINE",
"398 340 LINE",
"546 340 LINE",
"546 0 LINE",
"738 0 LINE"
);
}
);
width = 860;
},
{
anchors = (
{
name = top;
position = "{448, 680}";
}
);
associatedMasterId = "9540212F-C873-4039-900D-544C1C7D2862";
layerId = "0C92D4A8-A8D7-41B7-A7B9-FC7071D95722";
name = Orginal;
paths = (
{
closed = 1;
nodes = (
"652 218 LINE",
"514 700 LINE",
"385 700 LINE",
"246 218 LINE",
"124 700 LINE",
"0 700 LINE",
"178 0 LINE",
"308 0 LINE",
"449 491 LINE",
"590 0 LINE",
"720 0 LINE",
"899 700 LINE",
"775 700 LINE"
);
}
);
width = 899;
},
{
anchors = (
{
name = top;
position = "{471, 680}";
}
);
associatedMasterId = "9540212F-C873-4039-900D-544C1C7D2862";
background = {
paths = (
{
closed = 1;
nodes = (
"899 700 LINE",
"783 700 LINE",
"652 194 LINE",
"505 700 LINE",
"394 700 LINE",
"246 193 LINE",
"116 700 LINE",
"0 700 LINE",
"178 0 LINE",
"308 0 LINE",
"449 516 LINE",
"590 0 LINE",
"720 0 LINE"
);
}
);
};
layerId = "12E2FAFA-AC67-48FA-9ACD-9B30DE38B70E";
name = "Regular Apr 20 14, 22:30";
paths = (
{
closed = 1;
nodes = (
"716 702 LINE",
"716 362 LINE",
"568 362 LINE",
"568 702 LINE",
"376 702 LINE",
"376 532 LINE",
"206 532 LINE",
"206 362 LINE",
"58 362 LINE",
"58 702 LINE",
"36 702 LINE",
"36 0 LINE",
"398 0 LINE",
"398 340 LINE",
"546 340 LINE",
"546 0 LINE",
"738 0 LINE",
"738 510 LINE",
"908 510 LINE",
"908 702 LINE"
);
},
{
closed = 1;
nodes = (
"398 362 LINE",
"398 680 LINE",
"546 680 LINE",
"546 362 LINE"
);
},
{
closed = 1;
nodes = (
"886 532 LINE",
"738 532 LINE",
"738 680 LINE",
"886 680 LINE"
);
},
{
closed = 1;
nodes = (
"376 22 LINE",
"58 22 LINE",
"58 340 LINE",
"206 340 LINE",
"206 181 LINE",
"228 181 LINE",
"228 510 LINE",
"376 510 LINE"
);
},
{
closed = 1;
nodes = (
"716 22 LINE",
"568 22 LINE",
"568 340 LINE",
"716 340 LINE"
);
}
);
width = 944;
}
);
leftMetricsKey = I;
rightKerningGroup = W;
rightMetricsKey = w;
unicode = 0057;
},
{
glyphname = Wacute;
lastChange = "2018-03-01 10:01:57 +0000";
layers = (
{
background = {
paths = (
{
closed = 1;
nodes = (
"610 883 LINE",
"480 883 LINE",
"398 753 LINE",
"497 753 LINE"
);
},
{
closed = 1;
nodes = (
"899 700 LINE",
"783 700 LINE",
"652 194 LINE",
"505 700 LINE",
"394 700 LINE",
"246 193 LINE",
"116 700 LINE",
"0 700 LINE",
"178 0 LINE",
"308 0 LINE",
"449 516 LINE",
"590 0 LINE",
"720 0 LINE"
);
}
);
};
components = (
{
name = W;
},
{
name = acute;
transform = "{1, 0, 0, 1, 47, 181}";
}
);
layerId = "9540212F-C873-4039-900D-544C1C7D2862";
width = 860;
}
);
leftKerningGroup = W;
rightKerningGroup = W;
unicode = 1E82;
},
{
glyphname = Wcircumflex;
lastChange = "2018-03-01 10:01:57 +0000";
layers = (
{
background = {
paths = (
{
closed = 1;
nodes = (
"497 883 LINE",
"398 883 LINE",
"297 753 LINE",
"398 753 LINE",
"447 823 LINE",
"496 753 LINE",
"598 753 LINE"
);
},
{
closed = 1;
nodes = (
"899 700 LINE",
"783 700 LINE",
"652 194 LINE",
"505 700 LINE",
"394 700 LINE",
"246 193 LINE",
"116 700 LINE",
"0 700 LINE",
"178 0 LINE",
"308 0 LINE",
"449 516 LINE",
"590 0 LINE",
"720 0 LINE"
);
}
);
};
components = (
{
name = W;
},
{
name = circumflex;
transform = "{1, 0, 0, 1, 47, 181}";
}
);
layerId = "9540212F-C873-4039-900D-544C1C7D2862";
width = 860;
}
);
leftKerningGroup = W;
rightKerningGroup = W;
unicode = 0174;
},
{
glyphname = Wdieresis;
lastChange = "2018-03-01 10:01:57 +0000";
layers = (
{
background = {
paths = (
{
closed = 1;
nodes = (
"399 883 LINE",
"294 883 LINE",
"294 776 LINE",
"399 776 LINE"
);
},
{
closed = 1;
nodes = (
"602 883 LINE",
"497 883 LINE",
"497 776 LINE",
"602 776 LINE"
);
},
{
closed = 1;
nodes = (
"899 700 LINE",
"783 700 LINE",
"652 194 LINE",
"505 700 LINE",
"394 700 LINE",
"246 193 LINE",
"116 700 LINE",
"0 700 LINE",
"178 0 LINE",
"308 0 LINE",
"449 516 LINE",
"590 0 LINE",
"720 0 LINE"
);
}
);
};
components = (
{
name = W;
},
{
name = dieresis;
transform = "{1, 0, 0, 1, 47, 181}";
}
);
layerId = "9540212F-C873-4039-900D-544C1C7D2862";
width = 860;
}
);
leftKerningGroup = W;
rightKerningGroup = W;
unicode = 1E84;
},
{
glyphname = Wgrave;
lastChange = "2018-03-01 10:01:57 +0000";
layers = (
{
background = {
paths = (
{
closed = 1;
nodes = (
"415 883 LINE",
"285 883 LINE",
"398 753 LINE",
"497 753 LINE"
);
},
{
closed = 1;
nodes = (
"899 700 LINE",
"783 700 LINE",
"652 194 LINE",
"505 700 LINE",
"394 700 LINE",
"246 193 LINE",
"116 700 LINE",
"0 700 LINE",
"178 0 LINE",
"308 0 LINE",
"449 516 LINE",
"590 0 LINE",
"720 0 LINE"
);
}
);
};
components = (
{
name = W;
},
{
name = grave;
transform = "{1, 0, 0, 1, -123, 181}";
}
);
layerId = "9540212F-C873-4039-900D-544C1C7D2862";
width = 860;
}
);
leftKerningGroup = W;
rightKerningGroup = W;
unicode = 1E80;
},
{
glyphname = X;
lastChange = "2018-03-01 10:01:57 +0000";
layers = (
{
background = {
paths = (
{
closed = 1;
nodes = (
"585 700 LINE",
"445 700 LINE",
"301 463 LINE",
"156 700 LINE",
"14 700 LINE",
"230 360 LINE",
"0 0 LINE",
"145 0 LINE",
"301 256 LINE",
"458 0 LINE",
"599 0 LINE",
"372 360 LINE"
);
}
);
};
layerId = "9540212F-C873-4039-900D-544C1C7D2862";
leftMetricsKey = "=I";
rightMetricsKey = "=I";
paths = (
{
closed = 1;
nodes = (
"398 510 LINE",
"568 510 LINE",
"568 702 LINE",
"376 702 LINE",
"376 532 LINE",
"228 532 LINE",
"228 702 LINE",
"36 702 LINE",
"36 510 LINE",
"206 510 LINE",
"206 192 LINE",
"36 192 LINE",
"36 0 LINE",
"228 0 LINE",
"228 170 LINE",
"376 170 LINE",
"376 0 LINE",
"568 0 LINE",
"568 192 LINE",
"398 192 LINE"
);
},
{
closed = 1;
nodes = (
"58 532 LINE",
"58 680 LINE",
"206 680 LINE",
"206 532 LINE"
);
},
{
closed = 1;
nodes = (
"398 680 LINE",
"546 680 LINE",
"546 532 LINE",
"398 532 LINE"
);
},
{
closed = 1;
nodes = (
"228 192 LINE",
"228 510 LINE",
"376 510 LINE",
"376 192 LINE"
);
},
{
closed = 1;
nodes = (
"206 22 LINE",
"58 22 LINE",
"58 170 LINE",
"206 170 LINE"
);
},
{
closed = 1;
nodes = (
"546 170 LINE",
"546 22 LINE",
"398 22 LINE",
"398 170 LINE"
);
}
);
width = 604;
}
);
leftMetricsKey = I;
rightMetricsKey = I;
unicode = 0058;
},
{
glyphname = Y;
lastChange = "2018-03-01 10:01:57 +0000";
layers = (
{
anchors = (
{
name = top;
position = "{206, 702}";
}
);
background = {
paths = (
{
closed = 1;
nodes = (
"599 700 LINE",
"462 700 LINE",
"299 410 LINE",
"137 700 LINE",
"0 700 LINE",
"240 270 LINE",
"240 0 LINE",
"359 0 LINE",
"359 270 LINE",
"358 270 LINE"
);
}
);
};
layerId = "9540212F-C873-4039-900D-544C1C7D2862";
leftMetricsKey = "=I";
rightMetricsKey = "=w";
paths = (
{
closed = 1;
nodes = (
"36 510 LINE",
"206 510 LINE",
"206 0 LINE",
"398 0 LINE",
"398 340 LINE",
"568 340 LINE",
"568 680 LINE",
"738 680 LINE",
"738 702 LINE",
"376 702 LINE",
"376 532 LINE",
"228 532 LINE",
"228 702 LINE",
"36 702 LINE"
);
},
{
closed = 1;
nodes = (
"398 680 LINE",
"546 680 LINE",
"546 362 LINE",
"398 362 LINE"
);
},
{
closed = 1;
nodes = (
"206 680 LINE",
"206 532 LINE",
"58 532 LINE",
"58 680 LINE"
);
},
{
closed = 1;
nodes = (
"376 510 LINE",
"376 22 LINE",
"228 22 LINE",
"228 510 LINE"
);
}
);
width = 690;
}
);
leftKerningGroup = T;
leftMetricsKey = I;
rightKerningGroup = Y;
rightMetricsKey = w;
unicode = 0059;
},
{
glyphname = Yacute;
lastChange = "2018-03-01 10:01:57 +0000";
layers = (
{
background = {
paths = (
{
closed = 1;
nodes = (
"472 883 LINE",
"342 883 LINE",
"260 753 LINE",
"359 753 LINE"
);
},
{
closed = 1;
nodes = (
"599 700 LINE",
"462 700 LINE",
"299 410 LINE",
"137 700 LINE",
"0 700 LINE",
"240 270 LINE",
"240 0 LINE",
"359 0 LINE",
"359 270 LINE",
"358 270 LINE"
);
}
);
};
components = (
{
name = Y;
},
{
name = acute;
transform = "{1, 0, 0, 1, 47, 181}";
}
);
layerId = "9540212F-C873-4039-900D-544C1C7D2862";
width = 690;
}
);
leftKerningGroup = Y;
rightKerningGroup = Y;
unicode = 00DD;
},
{
glyphname = Ycircumflex;
lastChange = "2018-03-01 10:01:57 +0000";
layers = (
{
background = {
paths = (
{
closed = 1;
nodes = (
"359 883 LINE",
"260 883 LINE",
"159 753 LINE",
"260 753 LINE",
"309 823 LINE",
"358 753 LINE",
"460 753 LINE"
);
},
{
closed = 1;
nodes = (
"599 700 LINE",
"462 700 LINE",
"299 410 LINE",
"137 700 LINE",
"0 700 LINE",
"240 270 LINE",
"240 0 LINE",
"359 0 LINE",
"359 270 LINE",
"358 270 LINE"
);
}
);
};
components = (
{
name = Y;
},
{
name = circumflex;
transform = "{1, 0, 0, 1, 47, 181}";
}
);
layerId = "9540212F-C873-4039-900D-544C1C7D2862";
width = 690;
}
);
leftKerningGroup = Y;
rightKerningGroup = Y;
unicode = 0176;
},
{
glyphname = Ydieresis;
lastChange = "2018-03-01 10:01:57 +0000";
layers = (
{
background = {
paths = (
{
closed = 1;
nodes = (
"261 883 LINE",
"156 883 LINE",
"156 776 LINE",
"261 776 LINE"
);
},
{
closed = 1;
nodes = (
"464 883 LINE",
"359 883 LINE",
"359 776 LINE",
"464 776 LINE"
);
},
{
closed = 1;
nodes = (
"599 700 LINE",
"462 700 LINE",
"299 410 LINE",
"137 700 LINE",
"0 700 LINE",
"240 270 LINE",
"240 0 LINE",
"359 0 LINE",
"359 270 LINE",
"358 270 LINE"
);
}
);
};
components = (
{
name = Y;
},
{
name = dieresis;
transform = "{1, 0, 0, 1, 47, 181}";
}
);
layerId = "9540212F-C873-4039-900D-544C1C7D2862";
width = 690;
}
);
leftKerningGroup = Y;
rightKerningGroup = Y;
unicode = 0178;
},
{
glyphname = Ygrave;
lastChange = "2018-03-01 10:01:57 +0000";
layers = (
{
background = {
paths = (
{
closed = 1;
nodes = (
"277 883 LINE",
"147 883 LINE",
"260 753 LINE",
"359 753 LINE"
);
},
{
closed = 1;
nodes = (
"599 700 LINE",
"462 700 LINE",
"299 410 LINE",
"137 700 LINE",
"0 700 LINE",
"240 270 LINE",
"240 0 LINE",
"359 0 LINE",
"359 270 LINE",
"358 270 LINE"
);
}
);
};
components = (
{
name = Y;
},
{
name = grave;
transform = "{1, 0, 0, 1, -123, 181}";
}
);
layerId = "9540212F-C873-4039-900D-544C1C7D2862";
width = 690;
}
);
leftKerningGroup = Y;
rightKerningGroup = Y;
unicode = 1EF2;
},
{
glyphname = Ymacron;
lastChange = "2018-03-01 10:01:57 +0000";
layers = (
{
background = {
paths = (
{
closed = 1;
nodes = (
"450 846 LINE",
"169 846 LINE",
"169 774 LINE",
"450 774 LINE"
);
},
{
closed = 1;
nodes = (
"599 700 LINE",
"462 700 LINE",
"299 410 LINE",
"137 700 LINE",
"0 700 LINE",
"240 270 LINE",
"240 0 LINE",
"359 0 LINE",
"359 270 LINE",
"358 270 LINE"
);
}
);
};
components = (
{
name = Y;
},
{
name = macron;
transform = "{1, 0, 0, 1, 47, 170}";
}
);
layerId = "9540212F-C873-4039-900D-544C1C7D2862";
width = 690;
}
);
leftKerningGroup = Y;
rightKerningGroup = Y;
unicode = 0232;
},
{
glyphname = Z;
lastChange = "2018-03-01 10:01:57 +0000";
layers = (
{
anchors = (
{
name = top;
position = "{206, 702}";
}
);
background = {
paths = (
{
closed = 1;
nodes = (
"516 700 LINE",
"48 700 LINE",
"48 588 LINE",
"370 588 LINE",
"37 96 LINE",
"37 0 LINE",
"505 0 LINE",
"505 112 LINE",
"183 112 LINE",
"516 604 LINE"
);
}
);
};
layerId = "9540212F-C873-4039-900D-544C1C7D2862";
leftMetricsKey = "=I";
rightMetricsKey = "=I";
paths = (
{
closed = 1;
nodes = (
"36 702 LINE",
"36 510 LINE",
"376 510 LINE",
"376 362 LINE",
"36 362 LINE",
"36 0 LINE",
"568 0 LINE",
"568 192 LINE",
"228 192 LINE",
"228 340 LINE",
"568 340 LINE",
"568 702 LINE"
);
},
{
closed = 1;
nodes = (
"546 362 LINE",
"398 362 LINE",
"398 521 LINE",
"387 521 LINE",
"387 532 LINE",
"58 532 LINE",
"58 680 LINE",
"546 680 LINE"
);
},
{
closed = 1;
nodes = (
"546 170 LINE",
"546 22 LINE",
"58 22 LINE",
"58 340 LINE",
"206 340 LINE",
"206 170 LINE"
);
}
);
width = 604;
}
);
leftMetricsKey = I;
rightMetricsKey = I;
unicode = 005A;
},
{
glyphname = Zacute;
lastChange = "2018-03-01 10:01:57 +0000";
layers = (
{
background = {
paths = (
{
closed = 1;
nodes = (
"437 883 LINE",
"307 883 LINE",
"225 753 LINE",
"324 753 LINE"
);
},
{
closed = 1;
nodes = (
"516 700 LINE",
"48 700 LINE",
"48 588 LINE",
"370 588 LINE",
"37 96 LINE",
"37 0 LINE",
"505 0 LINE",
"505 112 LINE",
"183 112 LINE",
"516 604 LINE"
);
}
);
};
components = (
{
name = Z;
},
{
name = acute;
transform = "{1, 0, 0, 1, 47, 181}";
}
);
layerId = "9540212F-C873-4039-900D-544C1C7D2862";
width = 604;
}
);
leftKerningGroup = Z;
rightKerningGroup = Z;
unicode = 0179;
},
{
glyphname = Zcaron;
lastChange = "2018-03-01 10:01:57 +0000";
layers = (
{
background = {
paths = (
{
closed = 1;
nodes = (
"425 883 LINE",
"323 883 LINE",
"274 813 LINE",
"225 883 LINE",
"124 883 LINE",
"225 753 LINE",
"324 753 LINE"
);
},
{
closed = 1;
nodes = (
"516 700 LINE",
"48 700 LINE",
"48 588 LINE",
"370 588 LINE",
"37 96 LINE",
"37 0 LINE",
"505 0 LINE",
"505 112 LINE",
"183 112 LINE",
"516 604 LINE"
);
}
);
};
components = (
{
name = Z;
},
{
name = caron;
transform = "{1, 0, 0, 1, 47, 181}";
}
);
layerId = "9540212F-C873-4039-900D-544C1C7D2862";
width = 604;
}
);
leftKerningGroup = Z;
rightKerningGroup = Z;
unicode = 017D;
},
{
glyphname = Zdotaccent;
lastChange = "2018-03-01 10:01:57 +0000";
layers = (
{
background = {
paths = (
{
closed = 1;
nodes = (
"334 878 LINE",
"216 878 LINE",
"216 758 LINE",
"334 758 LINE"
);
},
{
closed = 1;
nodes = (
"516 700 LINE",
"48 700 LINE",
"48 588 LINE",
"370 588 LINE",
"37 96 LINE",
"37 0 LINE",
"505 0 LINE",
"505 112 LINE",
"183 112 LINE",
"516 604 LINE"
);
}
);
};
components = (
{
name = Z;
},
{
name = dotaccent;
transform = "{1, 0, 0, 1, 47, 170}";
}
);
layerId = "9540212F-C873-4039-900D-544C1C7D2862";
width = 604;
}
);
leftKerningGroup = Z;
rightKerningGroup = Z;
unicode = 017B;
},
{
glyphname = a;
lastChange = "2018-03-01 10:01:57 +0000";
layers = (
{
anchors = (
{
name = ogonek;
position = "{371, 0}";
},
{
name = top;
position = "{36, 532}";
}
);
background = {
paths = (
{
closed = 1;
nodes = (
"145 509 OFFCURVE",
"73 453 OFFCURVE",
"42 366 CURVE",
"143 339 LINE",
"161 383 OFFCURVE",
"198 412 OFFCURVE",
"254 412 CURVE SMOOTH",
"302 412 OFFCURVE",
"336 387 OFFCURVE",
"336 357 CURVE SMOOTH",
"336 310 LINE",
"297 306 OFFCURVE",
"249 304 OFFCURVE",
"189 291 CURVE SMOOTH",
"122 276 OFFCURVE",
"40 236 OFFCURVE",
"40 135 CURVE SMOOTH",
"40 50 OFFCURVE",
"96 -8 OFFCURVE",
"182 -8 CURVE SMOOTH",
"244 -8 OFFCURVE",
"301 18 OFFCURVE",
"336 53 CURVE",
"336 0 LINE",
"439 0 LINE",
"439 358 LINE SMOOTH",
"439 459 OFFCURVE",
"357 509 OFFCURVE",
"254 509 CURVE SMOOTH"
);
},
{
closed = 1;
nodes = (
"336 153 LINE",
"317 131 OFFCURVE",
"258 89 OFFCURVE",
"216 85 CURVE SMOOTH",
"196 83 OFFCURVE",
"146 83 OFFCURVE",
"146 139 CURVE SMOOTH",
"146 177 OFFCURVE",
"191 198 OFFCURVE",
"240 208 CURVE SMOOTH",
"292 219 OFFCURVE",
"336 222 OFFCURVE",
"336 222 CURVE"
);
}
);
};
layerId = "9540212F-C873-4039-900D-544C1C7D2862";
leftMetricsKey = "=I";
paths = (
{
closed = 1;
nodes = (
"36 532 LINE",
"36 0 LINE",
"398 0 LINE",
"398 532 LINE"
);
},
{
closed = 1;
nodes = (
"376 22 LINE",
"228 22 LINE",
"228 192 LINE",
"58 192 LINE",
"58 340 LINE",
"228 340 LINE",
"228 362 LINE",
"58 362 LINE",
"58 510 LINE",
"376 510 LINE"
);
},
{
closed = 1;
nodes = (
"58 22 LINE",
"58 170 LINE",
"206 170 LINE",
"206 22 LINE"
);
}
);
width = 398;
},
{
anchors = (
{
name = top;
position = "{268, 509}";
}
);
associatedMasterId = "9540212F-C873-4039-900D-544C1C7D2862";
layerId = "04CBF79C-43B4-414B-A677-A1098FA448AB";
name = "Regular Mar 7 14, 16:35";
paths = (
{
closed = 1;
nodes = (
"106 509 OFFCURVE",
"63 391 OFFCURVE",
"54 366 CURVE",
"165 336 LINE",
"177 367 OFFCURVE",
"210 405 OFFCURVE",
"266 405 CURVE SMOOTH",
"308 405 OFFCURVE",
"351 384 OFFCURVE",
"350 342 CURVE",
"350 342 OFFCURVE",
"350 308 OFFCURVE",
"350 308 CURVE",
"332 307 OFFCURVE",
"263 300 OFFCURVE",
"203 288 CURVE SMOOTH",
"129 273 OFFCURVE",
"41 235 OFFCURVE",
"44 130 CURVE SMOOTH",
"47 44 OFFCURVE",
"111 -13 OFFCURVE",
"208 -8 CURVE SMOOTH",
"265 -5 OFFCURVE",
"317 20 OFFCURVE",
"350 53 CURVE",
"350 0 LINE",
"462 0 LINE",
"462 359 LINE",
"461 409 OFFCURVE",
"420 509 OFFCURVE",
"268 509 CURVE SMOOTH"
);
},
{
closed = 1;
nodes = (
"322 129 OFFCURVE",
"284 88 OFFCURVE",
"227 88 CURVE",
"201 88 OFFCURVE",
"156 97 OFFCURVE",
"155 141 CURVE SMOOTH",
"154 186 OFFCURVE",
"200 201 OFFCURVE",
"252 211 CURVE SMOOTH",
"304 221 OFFCURVE",
"350 226 OFFCURVE",
"350 226 CURVE",
"350 151 LINE"
);
}
);
width = 532.045;
},
{
anchors = (
{
name = ogonek;
position = "{403, 0}";
},
{
name = top;
position = "{265, 497}";
}
);
associatedMasterId = "9540212F-C873-4039-900D-544C1C7D2862";
layerId = "D122CA9D-C122-4683-9A10-8952CD1806BC";
rightMetricsKey = "=n";
name = orginal;
paths = (
{
closed = 1;
nodes = (
"102 509 OFFCURVE",
"60 391 OFFCURVE",
"51 366 CURVE",
"151 336 LINE",
"163 367 OFFCURVE",
"206 409 OFFCURVE",
"262 409 CURVE SMOOTH",
"304 409 OFFCURVE",
"347 384 OFFCURVE",
"346 342 CURVE",
"346 342 OFFCURVE",
"346 308 OFFCURVE",
"346 301 CURVE",
"307 297 OFFCURVE",
"259 294 OFFCURVE",
"199 282 CURVE SMOOTH",
"126 267 OFFCURVE",
"40 229 OFFCURVE",
"40 135 CURVE SMOOTH",
"40 50 OFFCURVE",
"100 -8 OFFCURVE",
"192 -8 CURVE SMOOTH",
"254 -8 OFFCURVE",
"311 18 OFFCURVE",
"346 53 CURVE",
"346 0 LINE",
"458 0 LINE",
"458 359 LINE",
"457 409 OFFCURVE",
"416 509 OFFCURVE",
"264 509 CURVE SMOOTH"
);
},
{
closed = 1;
nodes = (
"346 147 LINE",
"327 125 OFFCURVE",
"268 86 OFFCURVE",
"226 82 CURVE SMOOTH",
"201 80 OFFCURVE",
"151 81 OFFCURVE",
"151 137 CURVE SMOOTH",
"151 174 OFFCURVE",
"194 199 OFFCURVE",
"248 209 CURVE SMOOTH",
"300 219 OFFCURVE",
"346 224 OFFCURVE",
"346 224 CURVE"
);
}
);
width = 521;
},
{
anchors = (
{
name = ogonek;
position = "{403, 0}";
},
{
name = top;
position = "{265, 497}";
}
);
associatedMasterId = "9540212F-C873-4039-900D-544C1C7D2862";
layerId = "16E96D87-563B-46F8-98B9-C3FC0AC460DF";
rightMetricsKey = "=n";
name = "orginal Mar 15 14, 16:27";
paths = (
{
closed = 1;
nodes = (
"102 509 OFFCURVE",
"60 391 OFFCURVE",
"51 366 CURVE",
"151 336 LINE",
"163 367 OFFCURVE",
"206 409 OFFCURVE",
"262 409 CURVE SMOOTH",
"304 409 OFFCURVE",
"347 384 OFFCURVE",
"346 342 CURVE",
"346 342 OFFCURVE",
"346 308 OFFCURVE",
"346 301 CURVE",
"307 297 OFFCURVE",
"259 294 OFFCURVE",
"199 282 CURVE SMOOTH",
"126 267 OFFCURVE",
"48 229 OFFCURVE",
"48 135 CURVE SMOOTH",
"48 50 OFFCURVE",
"100 -8 OFFCURVE",
"192 -8 CURVE SMOOTH",
"254 -8 OFFCURVE",
"311 18 OFFCURVE",
"346 53 CURVE",
"346 0 LINE",
"458 0 LINE",
"458 359 LINE",
"457 409 OFFCURVE",
"416 509 OFFCURVE",
"264 509 CURVE SMOOTH"
);
},
{
closed = 1;
nodes = (
"346 147 LINE",
"327 125 OFFCURVE",
"268 86 OFFCURVE",
"226 82 CURVE SMOOTH",
"201 80 OFFCURVE",
"154 81 OFFCURVE",
"154 137 CURVE SMOOTH",
"154 174 OFFCURVE",
"194 199 OFFCURVE",
"248 209 CURVE SMOOTH",
"300 219 OFFCURVE",
"346 224 OFFCURVE",
"346 224 CURVE"
);
}
);
width = 521;
},
{
anchors = (
{
name = ogonek;
position = "{403, 0}";
},
{
name = top;
position = "{265, 497}";
}
);
associatedMasterId = "9540212F-C873-4039-900D-544C1C7D2862";
layerId = "C0DDE738-1A30-4475-94EB-AD7C80F2CC4B";
rightMetricsKey = "=n";
name = versuch2;
paths = (
{
closed = 1;
nodes = (
"346 357 LINE",
"346 347 OFFCURVE",
"346 314 OFFCURVE",
"346 310 CURVE",
"307 306 OFFCURVE",
"259 304 OFFCURVE",
"199 291 CURVE SMOOTH",
"132 276 OFFCURVE",
"50 236 OFFCURVE",
"50 135 CURVE SMOOTH",
"50 50 OFFCURVE",
"106 -8 OFFCURVE",
"192 -8 CURVE SMOOTH",
"254 -8 OFFCURVE",
"311 18 OFFCURVE",
"346 53 CURVE",
"346 0 LINE",
"449 0 LINE",
"449 358 LINE"
);
},
{
closed = 1;
nodes = (
"346 153 LINE",
"327 131 OFFCURVE",
"268 89 OFFCURVE",
"226 85 CURVE SMOOTH",
"206 83 OFFCURVE",
"156 83 OFFCURVE",
"156 139 CURVE SMOOTH",
"156 177 OFFCURVE",
"201 198 OFFCURVE",
"250 208 CURVE SMOOTH",
"302 219 OFFCURVE",
"346 222 OFFCURVE",
"346 222 CURVE"
);
},
{
closed = 1;
nodes = (
"449 358 LINE",
"449 459 OFFCURVE",
"367 509 OFFCURVE",
"264 509 CURVE SMOOTH",
"155 509 OFFCURVE",
"83 453 OFFCURVE",
"52 366 CURVE",
"153 339 LINE",
"171 383 OFFCURVE",
"208 412 OFFCURVE",
"264 412 CURVE SMOOTH",
"312 412 OFFCURVE",
"346 387 OFFCURVE",
"346 357 CURVE"
);
},
{
closed = 1;
nodes = (
"698 429 OFFCURVE",
"660 405 OFFCURVE",
"645 356 CURVE",
"538 356 LINE",
"547 424 OFFCURVE",
"579 469 OFFCURVE",
"620 495 CURVE SMOOTH",
"660 521 OFFCURVE",
"709 530 OFFCURVE",
"750 530 CURVE SMOOTH",
"795 530 OFFCURVE",
"848 519 OFFCURVE",
"891 487 CURVE SMOOTH",
"934 455 OFFCURVE",
"965 401 OFFCURVE",
"965 316 CURVE SMOOTH",
"965 0 LINE",
"860 0 LINE",
"860 49 LINE",
"827 9 OFFCURVE",
"774 -10 OFFCURVE",
"706 -10 CURVE SMOOTH",
"659 -10 OFFCURVE",
"615 2 OFFCURVE",
"583 27 CURVE SMOOTH",
"551 51 OFFCURVE",
"530 90 OFFCURVE",
"530 143 CURVE SMOOTH",
"530 172 OFFCURVE",
"537 204 OFFCURVE",
"554 232 CURVE SMOOTH",
"571 260 OFFCURVE",
"599 285 OFFCURVE",
"642 298 CURVE SMOOTH",
"705 317 OFFCURVE",
"771 321 OFFCURVE",
"859 328 CURVE",
"859 329 LINE",
"854 397 OFFCURVE",
"811 429 OFFCURVE",
"750 429 CURVE SMOOTH"
);
},
{
closed = 1;
nodes = (
"752 91 OFFCURVE",
"787 96 OFFCURVE",
"814 113 CURVE SMOOTH",
"841 129 OFFCURVE",
"860 158 OFFCURVE",
"860 206 CURVE SMOOTH",
"860 235 LINE",
"768 228 OFFCURVE",
"699 223 OFFCURVE",
"660 200 CURVE SMOOTH",
"647 192 OFFCURVE",
"635 179 OFFCURVE",
"635 152 CURVE SMOOTH",
"635 109 OFFCURVE",
"667 91 OFFCURVE",
"723 91 CURVE SMOOTH"
);
}
);
width = 521;
},
{
anchors = (
{
name = ogonek;
position = "{403, 0}";
},
{
name = top;
position = "{265, 497}";
}
);
associatedMasterId = "9540212F-C873-4039-900D-544C1C7D2862";
layerId = "C40BB456-58A8-445A-ABB6-67CAECDB8B28";
rightMetricsKey = "=n";
name = "versuch2 Mar 16 14, 13:03";
paths = (
{
closed = 1;
nodes = (
"346 149 LINE",
"327 127 OFFCURVE",
"268 87 OFFCURVE",
"226 83 CURVE SMOOTH",
"204 81 OFFCURVE",
"154 81 OFFCURVE",
"154 137 CURVE SMOOTH",
"154 174 OFFCURVE",
"197 196 OFFCURVE",
"248 206 CURVE SMOOTH",
"300 216 OFFCURVE",
"346 221 OFFCURVE",
"346 221 CURVE"
);
},
{
closed = 1;
nodes = (
"155 509 OFFCURVE",
"83 453 OFFCURVE",
"52 366 CURVE",
"153 339 LINE",
"171 383 OFFCURVE",
"208 415 OFFCURVE",
"264 415 CURVE SMOOTH",
"312 415 OFFCURVE",
"346 390 OFFCURVE",
"346 360 CURVE SMOOTH",
"346 308 LINE",
"307 304 OFFCURVE",
"259 302 OFFCURVE",
"199 289 CURVE SMOOTH",
"129 274 OFFCURVE",
"51 227 OFFCURVE",
"51 138 CURVE SMOOTH",
"51 53 OFFCURVE",
"103 -8 OFFCURVE",
"192 -8 CURVE SMOOTH",
"254 -8 OFFCURVE",
"311 18 OFFCURVE",
"346 53 CURVE",
"346 0 LINE",
"447 0 LINE",
"447 361 LINE",
"446 441 OFFCURVE",
"375 509 OFFCURVE",
"264 509 CURVE SMOOTH"
);
}
);
width = 521;
},
{
anchors = (
{
name = ogonek;
position = "{403, 0}";
},
{
name = top;
position = "{265, 497}";
}
);
associatedMasterId = "9540212F-C873-4039-900D-544C1C7D2862";
layerId = "C66DB2B3-DCB9-40DA-956F-C00058094C80";
rightMetricsKey = "=n";
name = orginal;
paths = (
{
closed = 1;
nodes = (
"102 509 OFFCURVE",
"60 391 OFFCURVE",
"51 366 CURVE",
"151 336 LINE",
"163 367 OFFCURVE",
"206 409 OFFCURVE",
"262 409 CURVE SMOOTH",
"304 409 OFFCURVE",
"347 384 OFFCURVE",
"346 342 CURVE",
"346 342 OFFCURVE",
"346 308 OFFCURVE",
"346 301 CURVE",
"307 297 OFFCURVE",
"259 294 OFFCURVE",
"199 282 CURVE SMOOTH",
"126 267 OFFCURVE",
"40 229 OFFCURVE",
"40 135 CURVE SMOOTH",
"40 50 OFFCURVE",
"100 -8 OFFCURVE",
"192 -8 CURVE SMOOTH",
"254 -8 OFFCURVE",
"311 18 OFFCURVE",
"346 53 CURVE",
"346 0 LINE",
"458 0 LINE",
"458 359 LINE",
"457 409 OFFCURVE",
"416 509 OFFCURVE",
"264 509 CURVE SMOOTH"
);
},
{
closed = 1;
nodes = (
"346 147 LINE",
"327 125 OFFCURVE",
"268 86 OFFCURVE",
"226 82 CURVE SMOOTH",
"201 80 OFFCURVE",
"151 81 OFFCURVE",
"151 137 CURVE SMOOTH",
"151 174 OFFCURVE",
"194 199 OFFCURVE",
"248 209 CURVE SMOOTH",
"300 219 OFFCURVE",
"346 224 OFFCURVE",
"346 224 CURVE"
);
}
);
width = 521;
}
);
leftKerningGroup = a;
leftMetricsKey = I;
unicode = 0061;
},
{
glyphname = aacute;
lastChange = "2018-03-01 10:01:57 +0000";
layers = (
{
background = {
paths = (
{
closed = 1;
nodes = (
"417 700 LINE",
"287 700 LINE",
"205 570 LINE",
"304 570 LINE"
);
},
{
closed = 1;
nodes = (
"145 509 OFFCURVE",
"73 453 OFFCURVE",
"42 366 CURVE",
"143 339 LINE",
"161 383 OFFCURVE",
"198 412 OFFCURVE",
"254 412 CURVE SMOOTH",
"302 412 OFFCURVE",
"336 387 OFFCURVE",
"336 357 CURVE SMOOTH",
"336 310 LINE",
"297 306 OFFCURVE",
"249 304 OFFCURVE",
"189 291 CURVE SMOOTH",
"122 276 OFFCURVE",
"40 236 OFFCURVE",
"40 135 CURVE SMOOTH",
"40 50 OFFCURVE",
"96 -8 OFFCURVE",
"182 -8 CURVE SMOOTH",
"244 -8 OFFCURVE",
"301 18 OFFCURVE",
"336 53 CURVE",
"336 0 LINE",
"439 0 LINE",
"439 358 LINE SMOOTH",
"439 459 OFFCURVE",
"357 509 OFFCURVE",
"254 509 CURVE SMOOTH"
);
},
{
closed = 1;
nodes = (
"336 153 LINE",
"317 131 OFFCURVE",
"258 89 OFFCURVE",
"216 85 CURVE SMOOTH",
"196 83 OFFCURVE",
"146 83 OFFCURVE",
"146 139 CURVE SMOOTH",
"146 177 OFFCURVE",
"191 198 OFFCURVE",
"240 208 CURVE SMOOTH",
"292 219 OFFCURVE",
"336 222 OFFCURVE",
"336 222 CURVE"
);
}
);
};
components = (
{
name = a;
},
{
name = acute;
transform = "{1, 0, 0, 1, -123, 11}";
}
);
layerId = "9540212F-C873-4039-900D-544C1C7D2862";
width = 398;
}
);
leftKerningGroup = a;
rightKerningGroup = n;
unicode = 00E1;
},
{
glyphname = abreve;
lastChange = "2018-03-01 10:01:57 +0000";
layers = (
{
background = {
paths = (
{
closed = 1;
nodes = (
"280 570 LINE SMOOTH",
"310 570 OFFCURVE",
"341 580 OFFCURVE",
"361 603 CURVE SMOOTH",
"380 625 OFFCURVE",
"390 666 OFFCURVE",
"390 700 CURVE",
"315 700 LINE",
"315 674 OFFCURVE",
"300 638 OFFCURVE",
"267 638 CURVE SMOOTH",
"242 638 LINE SMOOTH",
"208 638 OFFCURVE",
"194 674 OFFCURVE",
"194 700 CURVE",
"119 700 LINE",
"119 666 OFFCURVE",
"128 625 OFFCURVE",
"149 603 CURVE",
"168 580 OFFCURVE",
"199 570 OFFCURVE",
"229 570 CURVE SMOOTH"
);
},
{
closed = 1;
nodes = (
"145 509 OFFCURVE",
"73 453 OFFCURVE",
"42 366 CURVE",
"143 339 LINE",
"161 383 OFFCURVE",
"198 412 OFFCURVE",
"254 412 CURVE SMOOTH",
"302 412 OFFCURVE",
"336 387 OFFCURVE",
"336 357 CURVE SMOOTH",
"336 310 LINE",
"297 306 OFFCURVE",
"249 304 OFFCURVE",
"189 291 CURVE SMOOTH",
"122 276 OFFCURVE",
"40 236 OFFCURVE",
"40 135 CURVE SMOOTH",
"40 50 OFFCURVE",
"96 -8 OFFCURVE",
"182 -8 CURVE SMOOTH",
"244 -8 OFFCURVE",
"301 18 OFFCURVE",
"336 53 CURVE",
"336 0 LINE",
"439 0 LINE",
"439 358 LINE SMOOTH",
"439 459 OFFCURVE",
"357 509 OFFCURVE",
"254 509 CURVE SMOOTH"
);
},
{
closed = 1;
nodes = (
"336 153 LINE",
"317 131 OFFCURVE",
"258 89 OFFCURVE",
"216 85 CURVE SMOOTH",
"196 83 OFFCURVE",
"146 83 OFFCURVE",
"146 139 CURVE SMOOTH",
"146 177 OFFCURVE",
"191 198 OFFCURVE",
"240 208 CURVE SMOOTH",
"292 219 OFFCURVE",
"336 222 OFFCURVE",
"336 222 CURVE"
);
}
);
};
components = (
{
name = a;
},
{
name = breve;
transform = "{1, 0, 0, 1, -123, 11}";
}
);
layerId = "9540212F-C873-4039-900D-544C1C7D2862";
width = 398;
}
);
leftKerningGroup = a;
rightKerningGroup = n;
unicode = 0103;
},
{
glyphname = acircumflex;
lastChange = "2018-03-01 10:01:57 +0000";
layers = (
{
background = {
paths = (
{
closed = 1;
nodes = (
"254 640 LINE",
"303 570 LINE",
"405 570 LINE",
"304 700 LINE",
"205 700 LINE",
"104 570 LINE",
"205 570 LINE"
);
},
{
closed = 1;
nodes = (
"145 509 OFFCURVE",
"73 453 OFFCURVE",
"42 366 CURVE",
"143 339 LINE",
"161 383 OFFCURVE",
"198 412 OFFCURVE",
"254 412 CURVE SMOOTH",
"302 412 OFFCURVE",
"336 387 OFFCURVE",
"336 357 CURVE SMOOTH",
"336 310 LINE",
"297 306 OFFCURVE",
"249 304 OFFCURVE",
"189 291 CURVE SMOOTH",
"122 276 OFFCURVE",
"40 236 OFFCURVE",
"40 135 CURVE SMOOTH",
"40 50 OFFCURVE",
"96 -8 OFFCURVE",
"182 -8 CURVE SMOOTH",
"244 -8 OFFCURVE",
"301 18 OFFCURVE",
"336 53 CURVE",
"336 0 LINE",
"439 0 LINE",
"439 358 LINE SMOOTH",
"439 459 OFFCURVE",
"357 509 OFFCURVE",
"254 509 CURVE SMOOTH"
);
},
{
closed = 1;
nodes = (
"336 153 LINE",
"317 131 OFFCURVE",
"258 89 OFFCURVE",
"216 85 CURVE SMOOTH",
"196 83 OFFCURVE",
"146 83 OFFCURVE",
"146 139 CURVE SMOOTH",
"146 177 OFFCURVE",
"191 198 OFFCURVE",
"240 208 CURVE SMOOTH",
"292 219 OFFCURVE",
"336 222 OFFCURVE",
"336 222 CURVE"
);
}
);
};
components = (
{
name = a;
},
{
name = circumflex;
transform = "{1, 0, 0, 1, -123, 11}";
}
);
layerId = "9540212F-C873-4039-900D-544C1C7D2862";
width = 398;
}
);
leftKerningGroup = a;
rightKerningGroup = n;
unicode = 00E2;
},
{
glyphname = adieresis;
lastChange = "2018-03-01 10:01:57 +0000";
layers = (
{
background = {
paths = (
{
closed = 1;
nodes = (
"206 700 LINE",
"101 700 LINE",
"101 593 LINE",
"206 593 LINE"
);
},
{
closed = 1;
nodes = (
"409 700 LINE",
"304 700 LINE",
"304 593 LINE",
"409 593 LINE"
);
},
{
closed = 1;
nodes = (
"145 509 OFFCURVE",
"73 453 OFFCURVE",
"42 366 CURVE",
"143 339 LINE",
"161 383 OFFCURVE",
"198 412 OFFCURVE",
"254 412 CURVE SMOOTH",
"302 412 OFFCURVE",
"336 387 OFFCURVE",
"336 357 CURVE SMOOTH",
"336 310 LINE",
"297 306 OFFCURVE",
"249 304 OFFCURVE",
"189 291 CURVE SMOOTH",
"122 276 OFFCURVE",
"40 236 OFFCURVE",
"40 135 CURVE SMOOTH",
"40 50 OFFCURVE",
"96 -8 OFFCURVE",
"182 -8 CURVE SMOOTH",
"244 -8 OFFCURVE",
"301 18 OFFCURVE",
"336 53 CURVE",
"336 0 LINE",
"439 0 LINE",
"439 358 LINE SMOOTH",
"439 459 OFFCURVE",
"357 509 OFFCURVE",
"254 509 CURVE SMOOTH"
);
},
{
closed = 1;
nodes = (
"336 153 LINE",
"317 131 OFFCURVE",
"258 89 OFFCURVE",
"216 85 CURVE SMOOTH",
"196 83 OFFCURVE",
"146 83 OFFCURVE",
"146 139 CURVE SMOOTH",
"146 177 OFFCURVE",
"191 198 OFFCURVE",
"240 208 CURVE SMOOTH",
"292 219 OFFCURVE",
"336 222 OFFCURVE",
"336 222 CURVE"
);
}
);
};
components = (
{
name = a;
},
{
name = dieresis;
transform = "{1, 0, 0, 1, -123, 11}";
}
);
layerId = "9540212F-C873-4039-900D-544C1C7D2862";
width = 398;
}
);
leftKerningGroup = a;
rightKerningGroup = n;
unicode = 00E4;
},
{
glyphname = adotaccent;
lastChange = "2018-03-01 10:01:57 +0000";
layers = (
{
background = {
paths = (
{
closed = 1;
nodes = (
"314 695 LINE",
"196 695 LINE",
"196 575 LINE",
"314 575 LINE"
);
},
{
closed = 1;
nodes = (
"145 509 OFFCURVE",
"73 453 OFFCURVE",
"42 366 CURVE",
"143 339 LINE",
"161 383 OFFCURVE",
"198 412 OFFCURVE",
"254 412 CURVE SMOOTH",
"302 412 OFFCURVE",
"336 387 OFFCURVE",
"336 357 CURVE SMOOTH",
"336 310 LINE",
"297 306 OFFCURVE",
"249 304 OFFCURVE",
"189 291 CURVE SMOOTH",
"122 276 OFFCURVE",
"40 236 OFFCURVE",
"40 135 CURVE SMOOTH",
"40 50 OFFCURVE",
"96 -8 OFFCURVE",
"182 -8 CURVE SMOOTH",
"244 -8 OFFCURVE",
"301 18 OFFCURVE",
"336 53 CURVE",
"336 0 LINE",
"439 0 LINE",
"439 358 LINE SMOOTH",
"439 459 OFFCURVE",
"357 509 OFFCURVE",
"254 509 CURVE SMOOTH"
);
},
{
closed = 1;
nodes = (
"336 153 LINE",
"317 131 OFFCURVE",
"258 89 OFFCURVE",
"216 85 CURVE SMOOTH",
"196 83 OFFCURVE",
"146 83 OFFCURVE",
"146 139 CURVE SMOOTH",
"146 177 OFFCURVE",
"191 198 OFFCURVE",
"240 208 CURVE SMOOTH",
"292 219 OFFCURVE",
"336 222 OFFCURVE",
"336 222 CURVE"
);
}
);
};
components = (
{
name = a;
},
{
name = dotaccent;
transform = "{1, 0, 0, 1, -123, 0}";
}
);
layerId = "9540212F-C873-4039-900D-544C1C7D2862";
width = 398;
}
);
leftKerningGroup = a;
rightKerningGroup = n;
unicode = 0227;
},
{
glyphname = agrave;
lastChange = "2018-03-01 10:01:57 +0000";
layers = (
{
background = {
paths = (
{
closed = 1;
nodes = (
"304 570 LINE",
"222 700 LINE",
"92 700 LINE",
"205 570 LINE"
);
},
{
closed = 1;
nodes = (
"145 509 OFFCURVE",
"73 453 OFFCURVE",
"42 366 CURVE",
"143 339 LINE",
"161 383 OFFCURVE",
"198 412 OFFCURVE",
"254 412 CURVE SMOOTH",
"302 412 OFFCURVE",
"336 387 OFFCURVE",
"336 357 CURVE SMOOTH",
"336 310 LINE",
"297 306 OFFCURVE",
"249 304 OFFCURVE",
"189 291 CURVE SMOOTH",
"122 276 OFFCURVE",
"40 236 OFFCURVE",
"40 135 CURVE SMOOTH",
"40 50 OFFCURVE",
"96 -8 OFFCURVE",
"182 -8 CURVE SMOOTH",
"244 -8 OFFCURVE",
"301 18 OFFCURVE",
"336 53 CURVE",
"336 0 LINE",
"439 0 LINE",
"439 358 LINE SMOOTH",
"439 459 OFFCURVE",
"357 509 OFFCURVE",
"254 509 CURVE SMOOTH"
);
},
{
closed = 1;
nodes = (
"336 153 LINE",
"317 131 OFFCURVE",
"258 89 OFFCURVE",
"216 85 CURVE SMOOTH",
"196 83 OFFCURVE",
"146 83 OFFCURVE",
"146 139 CURVE SMOOTH",
"146 177 OFFCURVE",
"191 198 OFFCURVE",
"240 208 CURVE SMOOTH",
"292 219 OFFCURVE",
"336 222 OFFCURVE",
"336 222 CURVE"
);
}
);
};
components = (
{
name = a;
},
{
name = grave;
transform = "{1, 0, 0, 1, -293, 11}";
}
);
layerId = "9540212F-C873-4039-900D-544C1C7D2862";
width = 398;
}
);
leftKerningGroup = a;
rightKerningGroup = n;
unicode = 00E0;
},
{
glyphname = amacron;
lastChange = "2018-03-01 10:01:57 +0000";
layers = (
{
background = {
paths = (
{
closed = 1;
nodes = (
"395 663 LINE",
"114 663 LINE",
"114 591 LINE",
"395 591 LINE"
);
},
{
closed = 1;
nodes = (
"145 509 OFFCURVE",
"73 453 OFFCURVE",
"42 366 CURVE",
"143 339 LINE",
"161 383 OFFCURVE",
"198 412 OFFCURVE",
"254 412 CURVE SMOOTH",
"302 412 OFFCURVE",
"336 387 OFFCURVE",
"336 357 CURVE SMOOTH",
"336 310 LINE",
"297 306 OFFCURVE",
"249 304 OFFCURVE",
"189 291 CURVE SMOOTH",
"122 276 OFFCURVE",
"40 236 OFFCURVE",
"40 135 CURVE SMOOTH",
"40 50 OFFCURVE",
"96 -8 OFFCURVE",
"182 -8 CURVE SMOOTH",
"244 -8 OFFCURVE",
"301 18 OFFCURVE",
"336 53 CURVE",
"336 0 LINE",
"439 0 LINE",
"439 358 LINE SMOOTH",
"439 459 OFFCURVE",
"357 509 OFFCURVE",
"254 509 CURVE SMOOTH"
);
},
{
closed = 1;
nodes = (
"336 153 LINE",
"317 131 OFFCURVE",
"258 89 OFFCURVE",
"216 85 CURVE SMOOTH",
"196 83 OFFCURVE",
"146 83 OFFCURVE",
"146 139 CURVE SMOOTH",
"146 177 OFFCURVE",
"191 198 OFFCURVE",
"240 208 CURVE SMOOTH",
"292 219 OFFCURVE",
"336 222 OFFCURVE",
"336 222 CURVE"
);
}
);
};
components = (
{
name = a;
},
{
name = macron;
transform = "{1, 0, 0, 1, -123, 0}";
}
);
layerId = "9540212F-C873-4039-900D-544C1C7D2862";
width = 398;
}
);
leftKerningGroup = a;
rightKerningGroup = n;
unicode = 0101;
},
{
glyphname = aogonek;
lastChange = "2018-03-01 10:01:57 +0000";
layers = (
{
background = {
paths = (
{
closed = 1;
nodes = (
"454 -98 LINE",
"421 -117 OFFCURVE",
"397 -127 OFFCURVE",
"377 -124 CURVE SMOOTH",
"362 -122 OFFCURVE",
"350 -117 OFFCURVE",
"350 -98 CURVE SMOOTH",
"350 -73 OFFCURVE",
"396 -31 OFFCURVE",
"439 0 CURVE",
"439 358 LINE SMOOTH",
"439 459 OFFCURVE",
"357 509 OFFCURVE",
"254 509 CURVE SMOOTH",
"145 509 OFFCURVE",
"73 453 OFFCURVE",
"42 366 CURVE",
"143 339 LINE",
"161 383 OFFCURVE",
"198 412 OFFCURVE",
"254 412 CURVE SMOOTH",
"302 412 OFFCURVE",
"336 387 OFFCURVE",
"336 357 CURVE SMOOTH",
"336 310 LINE",
"297 306 OFFCURVE",
"249 304 OFFCURVE",
"189 291 CURVE SMOOTH",
"122 276 OFFCURVE",
"40 236 OFFCURVE",
"40 135 CURVE SMOOTH",
"40 50 OFFCURVE",
"96 -8 OFFCURVE",
"182 -8 CURVE SMOOTH",
"244 -8 OFFCURVE",
"301 18 OFFCURVE",
"336 53 CURVE",
"336 0 LINE",
"302 -24 OFFCURVE",
"257 -69 OFFCURVE",
"257 -117 CURVE SMOOTH",
"257 -149 OFFCURVE",
"268 -171 OFFCURVE",
"287 -184 CURVE SMOOTH",
"306 -197 OFFCURVE",
"329 -203 OFFCURVE",
"356 -203 CURVE SMOOTH",
"387 -203 OFFCURVE",
"435 -193 OFFCURVE",
"489 -150 CURVE"
);
},
{
closed = 1;
nodes = (
"196 83 OFFCURVE",
"146 83 OFFCURVE",
"146 139 CURVE SMOOTH",
"146 177 OFFCURVE",
"191 198 OFFCURVE",
"240 208 CURVE SMOOTH",
"292 219 OFFCURVE",
"336 222 OFFCURVE",
"336 222 CURVE",
"336 153 LINE",
"317 131 OFFCURVE",
"258 89 OFFCURVE",
"216 85 CURVE SMOOTH"
);
}
);
};
components = (
{
name = a;
},
{
alignment = -1;
name = ogonek;
transform = "{1, 0, 0, 1, 217, 0}";
}
);
layerId = "9540212F-C873-4039-900D-544C1C7D2862";
width = 398;
}
);
leftKerningGroup = a;
rightKerningGroup = n;
unicode = 0105;
},
{
glyphname = aring;
lastChange = "2018-03-01 10:01:57 +0000";
layers = (
{
background = {
paths = (
{
closed = 1;
nodes = (
"300 555 OFFCURVE",
"335 590 OFFCURVE",
"335 634 CURVE SMOOTH",
"335 680 OFFCURVE",
"300 716 OFFCURVE",
"256 716 CURVE SMOOTH",
"210 716 OFFCURVE",
"175 680 OFFCURVE",
"175 634 CURVE SMOOTH",
"175 590 OFFCURVE",
"211 555 OFFCURVE",
"255 555 CURVE SMOOTH"
);
},
{
closed = 1;
nodes = (
"276 670 OFFCURVE",
"291 655 OFFCURVE",
"291 636 CURVE SMOOTH",
"291 615 OFFCURVE",
"274 600 OFFCURVE",
"255 600 CURVE SMOOTH",
"235 600 OFFCURVE",
"220 615 OFFCURVE",
"220 634 CURVE SMOOTH",
"220 656 OFFCURVE",
"235 670 OFFCURVE",
"256 670 CURVE SMOOTH"
);
},
{
closed = 1;
nodes = (
"145 509 OFFCURVE",
"73 453 OFFCURVE",
"42 366 CURVE",
"143 339 LINE",
"161 383 OFFCURVE",
"198 412 OFFCURVE",
"254 412 CURVE SMOOTH",
"302 412 OFFCURVE",
"336 387 OFFCURVE",
"336 357 CURVE SMOOTH",
"336 310 LINE",
"297 306 OFFCURVE",
"249 304 OFFCURVE",
"189 291 CURVE SMOOTH",
"122 276 OFFCURVE",
"40 236 OFFCURVE",
"40 135 CURVE SMOOTH",
"40 50 OFFCURVE",
"96 -8 OFFCURVE",
"182 -8 CURVE SMOOTH",
"244 -8 OFFCURVE",
"301 18 OFFCURVE",
"336 53 CURVE",
"336 0 LINE",
"439 0 LINE",
"439 358 LINE SMOOTH",
"439 459 OFFCURVE",
"357 509 OFFCURVE",
"254 509 CURVE SMOOTH"
);
},
{
closed = 1;
nodes = (
"336 153 LINE",
"317 131 OFFCURVE",
"258 89 OFFCURVE",
"216 85 CURVE SMOOTH",
"196 83 OFFCURVE",
"146 83 OFFCURVE",
"146 139 CURVE SMOOTH",
"146 177 OFFCURVE",
"191 198 OFFCURVE",
"240 208 CURVE SMOOTH",
"292 219 OFFCURVE",
"336 222 OFFCURVE",
"336 222 CURVE"
);
}
);
};
components = (
{
name = a;
},
{
name = ring;
transform = "{1, 0, 0, 1, -123, 0}";
}
);
layerId = "9540212F-C873-4039-900D-544C1C7D2862";
width = 398;
}
);
leftKerningGroup = a;
rightKerningGroup = n;
unicode = 00E5;
},
{
glyphname = aringacute;
lastChange = "2018-03-01 10:01:57 +0000";
layers = (
{
background = {
paths = (
{
closed = 1;
nodes = (
"417 845 LINE",
"287 845 LINE",
"205 715 LINE",
"304 715 LINE"
);
},
{
closed = 1;
nodes = (
"300 529 OFFCURVE",
"335 564 OFFCURVE",
"335 608 CURVE SMOOTH",
"335 654 OFFCURVE",
"300 690 OFFCURVE",
"256 690 CURVE SMOOTH",
"210 690 OFFCURVE",
"175 654 OFFCURVE",
"175 608 CURVE SMOOTH",
"175 564 OFFCURVE",
"211 529 OFFCURVE",
"255 529 CURVE SMOOTH"
);
},
{
closed = 1;
nodes = (
"276 644 OFFCURVE",
"291 629 OFFCURVE",
"291 610 CURVE SMOOTH",
"291 589 OFFCURVE",
"274 574 OFFCURVE",
"255 574 CURVE SMOOTH",
"235 574 OFFCURVE",
"220 589 OFFCURVE",
"220 608 CURVE SMOOTH",
"220 630 OFFCURVE",
"235 644 OFFCURVE",
"256 644 CURVE SMOOTH"
);
},
{
closed = 1;
nodes = (
"145 509 OFFCURVE",
"73 453 OFFCURVE",
"42 366 CURVE",
"143 339 LINE",
"161 383 OFFCURVE",
"198 412 OFFCURVE",
"254 412 CURVE SMOOTH",
"302 412 OFFCURVE",
"336 387 OFFCURVE",
"336 357 CURVE SMOOTH",
"336 310 LINE",
"297 306 OFFCURVE",
"249 304 OFFCURVE",
"189 291 CURVE SMOOTH",
"122 276 OFFCURVE",
"40 236 OFFCURVE",
"40 135 CURVE SMOOTH",
"40 50 OFFCURVE",
"96 -8 OFFCURVE",
"182 -8 CURVE SMOOTH",
"244 -8 OFFCURVE",
"301 18 OFFCURVE",
"336 53 CURVE",
"336 0 LINE",
"439 0 LINE",
"439 358 LINE SMOOTH",
"439 459 OFFCURVE",
"357 509 OFFCURVE",
"254 509 CURVE SMOOTH"
);
},
{
closed = 1;
nodes = (
"336 153 LINE",
"317 131 OFFCURVE",
"258 89 OFFCURVE",
"216 85 CURVE SMOOTH",
"196 83 OFFCURVE",
"146 83 OFFCURVE",
"146 139 CURVE SMOOTH",
"146 177 OFFCURVE",
"191 198 OFFCURVE",
"240 208 CURVE SMOOTH",
"292 219 OFFCURVE",
"336 222 OFFCURVE",
"336 222 CURVE"
);
}
);
};
components = (
{
name = a;
},
{
name = ring;
transform = "{1, 0, 0, 1, -123, 0}";
}
);
layerId = "9540212F-C873-4039-900D-544C1C7D2862";
leftMetricsKey = "=a";
rightMetricsKey = "=a";
width = 398;
}
);
leftKerningGroup = a;
leftMetricsKey = a;
rightKerningGroup = n;
rightMetricsKey = a;
unicode = 01FB;
},
{
glyphname = atilde;
lastChange = "2018-03-01 10:01:57 +0000";
layers = (
{
background = {
paths = (
{
closed = 1;
nodes = (
"215 615 OFFCURVE",
"221 613 OFFCURVE",
"253 597 CURVE",
"277 583 OFFCURVE",
"293 578 OFFCURVE",
"310 578 CURVE SMOOTH",
"343 578 OFFCURVE",
"387 602 OFFCURVE",
"414 655 CURVE",
"360 699 LINE",
"335 661 OFFCURVE",
"327 656 OFFCURVE",
"309 656 CURVE SMOOTH",
"301 656 OFFCURVE",
"293 657 OFFCURVE",
"275 669 CURVE",
"232 691 OFFCURVE",
"219 693 OFFCURVE",
"202 693 CURVE SMOOTH",
"169 693 OFFCURVE",
"113 660 OFFCURVE",
"96 609 CURVE",
"155 574 LINE",
"173 607 OFFCURVE",
"183 615 OFFCURVE",
"202 615 CURVE SMOOTH"
);
},
{
closed = 1;
nodes = (
"145 509 OFFCURVE",
"73 453 OFFCURVE",
"42 366 CURVE",
"143 339 LINE",
"161 383 OFFCURVE",
"198 412 OFFCURVE",
"254 412 CURVE SMOOTH",
"302 412 OFFCURVE",
"336 387 OFFCURVE",
"336 357 CURVE SMOOTH",
"336 310 LINE",
"297 306 OFFCURVE",
"249 304 OFFCURVE",
"189 291 CURVE SMOOTH",
"122 276 OFFCURVE",
"40 236 OFFCURVE",
"40 135 CURVE SMOOTH",
"40 50 OFFCURVE",
"96 -8 OFFCURVE",
"182 -8 CURVE SMOOTH",
"244 -8 OFFCURVE",
"301 18 OFFCURVE",
"336 53 CURVE",
"336 0 LINE",
"439 0 LINE",
"439 358 LINE SMOOTH",
"439 459 OFFCURVE",
"357 509 OFFCURVE",
"254 509 CURVE SMOOTH"
);
},
{
closed = 1;
nodes = (
"336 153 LINE",
"317 131 OFFCURVE",
"258 89 OFFCURVE",
"216 85 CURVE SMOOTH",
"196 83 OFFCURVE",
"146 83 OFFCURVE",
"146 139 CURVE SMOOTH",
"146 177 OFFCURVE",
"191 198 OFFCURVE",
"240 208 CURVE SMOOTH",
"292 219 OFFCURVE",
"336 222 OFFCURVE",
"336 222 CURVE"
);
}
);
};
components = (
{
name = a;
},
{
name = tilde;
transform = "{1, 0, 0, 1, -123, 0}";
}
);
layerId = "9540212F-C873-4039-900D-544C1C7D2862";
width = 398;
}
);
leftKerningGroup = a;
rightKerningGroup = n;
unicode = 00E3;
},
